<svg width="56" height="56" viewBox="0 0 56 56" fill="none" xmlns="http://www.w3.org/2000/svg">
<rect y="8" width="56" height="40" rx="4" fill="white"/>
<mask id="mask0_17_3106" style="mask-type:alpha" maskUnits="userSpaceOnUse" x="0" y="8" width="56" height="40">
<rect y="8" width="56" height="40" rx="4" fill="white"/>
</mask>
<g mask="url(#mask0_17_3106)">
<rect y="8" width="56" height="40" fill="url(#paint0_linear_17_3106)"/>
<rect x="26.6667" y="8" width="29.3333" height="40" fill="#08379D"/>
<path fill-rule="evenodd" clip-rule="evenodd" d="M0 48H18.6667V8H0V48Z" fill="#08379D"/>
<path fill-rule="evenodd" clip-rule="evenodd" d="M18.6667 48H37.3333V8H18.6667V48Z" fill="#FFCC50"/>
<path fill-rule="evenodd" clip-rule="evenodd" d="M27.4912 20.827C27.7587 20.4336 28.3404 20.439 28.6006 20.8373L29.993 22.9687C30.2826 23.4121 29.9645 24 29.4348 24H29.4033C29.0089 24 28.7007 24.3405 28.74 24.733L29.2733 30.0663C29.3074 30.4071 29.5942 30.6667 29.9367 30.6667H30.3926C30.5682 30.6667 30.7367 30.5974 30.8615 30.4739L31.8022 29.5433C31.9288 29.4181 32 29.2475 32 29.0694V26.9428C32 26.766 31.9298 26.5964 31.8047 26.4714L31.4294 26.0961C31.079 25.7457 31.2198 25.1489 31.69 24.9922L33.596 24.3569C34.0773 24.1965 34.5543 24.611 34.4625 25.1099L33.4794 30.4555C33.4542 30.5928 33.3864 30.7187 33.2858 30.8155L30.8602 33.1473C30.736 33.2667 30.5704 33.3333 30.3982 33.3333H30C29.6318 33.3333 29.3333 33.6318 29.3333 34V35.3333C29.3333 35.7015 29.0348 36 28.6667 36H27.3333C26.9651 36 26.6667 35.7015 26.6667 35.3333V34C26.6667 33.6318 26.3682 33.3333 26 33.3333H25.6095C25.4327 33.3333 25.2631 33.2631 25.1381 33.1381L22.8094 30.8094C22.7163 30.7163 22.6529 30.5978 22.6271 30.4687L21.5586 25.1265C21.4582 24.6245 21.9375 24.2014 22.4232 24.3633L24.31 24.9922C24.7801 25.1489 24.921 25.7457 24.5706 26.0961L24.1953 26.4714C24.0702 26.5964 24 26.766 24 26.9428V29.0694C24 29.2475 24.0712 29.4181 24.1978 29.5433L25.1385 30.4739C25.2633 30.5974 25.4318 30.6667 25.6074 30.6667H26.0633C26.4058 30.6667 26.6926 30.4071 26.7267 30.0663L27.26 24.733C27.2993 24.3405 26.9897 24 26.5953 24C26.06 24 25.7407 23.401 26.0417 22.9584L27.4912 20.827Z" fill="#262626"/>
</g>
<defs>
<linearGradient id="paint0_linear_17_3106" x1="0" y1="8" x2="0" y2="48" gradientUnits="userSpaceOnUse">
<stop stop-color="#1132C7"/>
<stop offset="1" stop-color="#0522A5"/>
</linearGradient>
</defs>
</svg>
