<svg width="56" height="56" viewBox="0 0 56 56" fill="none" xmlns="http://www.w3.org/2000/svg">
<rect y="8" width="56" height="40" rx="4" fill="white"/>
<mask id="mask0_17_3086" style="mask-type:alpha" maskUnits="userSpaceOnUse" x="0" y="8" width="56" height="40">
<rect y="8" width="56" height="40" rx="4" fill="white"/>
</mask>
<g mask="url(#mask0_17_3086)">
<rect y="8" width="56" height="40" fill="#FF5F38"/>
<path fill-rule="evenodd" clip-rule="evenodd" d="M0 48L56 8H0V48Z" fill="#FFD951"/>
<path fill-rule="evenodd" clip-rule="evenodd" d="M48 18.339C48 18.339 46.8166 18.2572 46.1854 18.2572C45.8496 18.2572 45.5362 18.373 45.2095 18.4938C44.922 18.6 44.6242 18.7101 44.2919 18.7484C44.5543 18.6123 44.7439 18.4258 44.928 18.2449C45.0761 18.0993 45.2206 17.9573 45.3965 17.8478C45.4724 17.8163 45.5572 17.7878 45.6451 17.7582C46.0135 17.6343 46.4373 17.4918 46.501 17.0291C46.1065 17.3566 45.5542 17.2747 45.0809 17.1929C44.716 17.1929 44.4448 17.4361 44.1951 17.6601L44.1951 17.6601C44.1209 17.7267 44.0486 17.7916 43.9763 17.8478C44.047 17.5177 44.1652 17.2369 44.2813 16.9612L44.2813 16.9612C44.4242 16.6215 44.5639 16.2897 44.6075 15.883C44.64 15.6131 44.8333 15.371 45.0272 15.1281C45.3039 14.7815 45.582 14.4332 45.3965 14C45.3531 14.3599 45.0953 14.5468 44.8325 14.7372C44.6172 14.8933 44.3985 15.0518 44.2919 15.3099C44.1941 15.6144 44.0289 15.8909 43.8632 16.1684C43.6279 16.5623 43.3915 16.9581 43.3452 17.4385C43.2926 18.0934 42.9595 18.0934 42.5562 18.0934C42.3546 18.0934 42.1354 18.0934 41.925 18.1753C41.8715 18.2031 41.7545 18.1178 41.5831 17.993C41.2493 17.7499 40.7093 17.3566 40.0316 17.3566C38.4536 17.4385 37.8225 17.4385 35.7712 15.3099C35.2978 14.8187 33.641 14.6549 33.0099 15.0643C33.641 15.0643 34.1933 15.228 34.6667 15.5555C34.5121 15.6758 34.3196 15.5997 34.1171 15.5195C33.9062 15.4361 33.6845 15.3483 33.4832 15.4736C34.1144 15.4736 34.3511 15.8011 34.2722 16.3742C33.7199 15.9648 32.7732 15.3918 32.0631 15.7192C31.8884 15.8099 31.6601 15.8225 31.4295 15.8352C31.0352 15.8569 30.6346 15.879 30.4852 16.2923C31.1164 15.9648 31.7475 16.2104 32.3787 16.4561C32.2946 16.4779 32.1769 16.4939 32.045 16.5118C31.6819 16.5612 31.2111 16.6252 31.0375 16.8654C31.3531 16.7835 31.6686 16.7835 31.9053 16.8654C31.8264 17.111 31.7475 17.3566 31.8264 17.6022L31.7147 17.5599C30.8592 17.2353 29.7418 16.8112 28.9862 17.4385C28.1183 18.1753 29.4596 18.994 29.6963 18.5028C29.144 18.7484 28.9073 17.7659 29.6963 17.7659C30.8008 17.6841 31.8264 18.1753 32.7732 18.6665C32.2998 18.8302 30.8008 18.6665 30.5641 18.0116C30.4852 18.2572 30.4852 18.5846 30.7219 18.7484C30.3757 18.7484 30.0482 18.9235 29.7304 19.0936C29.3963 19.2723 29.0729 19.4453 28.7495 19.4033C28.1972 19.4033 27.0927 19.4033 27.0138 20.1401C27.5712 19.6143 28.2587 19.6964 28.9511 19.779C29.3367 19.825 29.7238 19.8712 30.0907 19.8127C29.854 20.3039 29.6963 20.877 29.5385 21.45C29.4083 21.8551 29.1351 22.1365 28.8499 22.4302C28.6164 22.6707 28.3748 22.9194 28.1972 23.2511C28.5128 22.9237 28.9073 22.6781 29.3807 22.5962C29.327 22.7262 29.2529 22.8731 29.1743 23.0293L29.1743 23.0293C28.9063 23.5611 28.5844 24.1999 28.8284 24.6429C28.9376 24.0196 29.2358 23.9454 29.6184 23.8501C29.7885 23.8078 29.9753 23.7613 30.1696 23.6605C30.0118 24.0698 30.3274 24.8066 30.8797 24.6429C30.643 25.0522 30.8797 25.6253 31.3531 25.7891C31.1979 25.9903 30.9284 26.0332 30.6758 26.0735C30.4144 26.1152 30.171 26.154 30.0907 26.3621C30.3564 26.244 30.6038 26.3911 30.8682 26.5482C31.1532 26.7177 31.458 26.8989 31.8264 26.7715C31.7475 27.099 31.8264 27.3446 31.9842 27.5902C31.8629 27.565 31.7118 27.5785 31.5537 27.5927C31.1978 27.6245 30.8069 27.6595 30.643 27.2627C30.5157 27.6149 30.7764 27.7304 31.0199 27.8383C31.2293 27.931 31.426 28.0181 31.3531 28.2451C31.266 28.2451 31.1683 28.1565 31.0717 28.069C30.9056 27.9184 30.7428 27.7708 30.643 28.0814C30.6121 28.0814 30.569 28.0059 30.5139 27.9093C30.4283 27.7592 30.3136 27.5581 30.1696 27.5083C30.0004 27.4644 29.8086 27.5146 29.6427 27.5581C29.4991 27.5956 29.375 27.6281 29.3018 27.5902C29.6174 27.099 28.7495 26.7715 28.4339 27.099C28.4767 26.6992 28.1016 26.3718 27.7494 26.0644C27.4523 25.8051 27.1716 25.56 27.1716 25.2978C27.0393 25.5267 27.1289 25.73 27.2199 25.9363C27.2916 26.099 27.3642 26.2635 27.3294 26.444C27.1716 26.2803 27.0138 26.1984 26.856 26.2803C26.6002 26.3245 26.5748 26.297 26.5308 26.2495C26.4933 26.2091 26.4425 26.1542 26.2249 26.1165C25.9991 26.0775 25.9348 26.1316 25.8866 26.1722C25.8337 26.2167 25.8 26.245 25.5937 26.1165C25.357 25.9528 25.0414 26.0347 24.9625 26.1984C24.837 25.7642 24.4895 25.6754 24.1556 25.5901C23.8598 25.5145 23.5747 25.4417 23.4635 25.1341C23.4184 25.368 23.5794 25.6019 23.7405 25.8358C23.8612 26.0113 23.982 26.1867 24.0158 26.3621C23.5424 25.9528 22.6746 26.444 22.9112 27.099C22.8716 27.1195 22.7723 27.1091 22.6496 27.0962C22.2834 27.0578 21.7083 26.9976 21.8856 27.672C21.57 27.3446 19.7554 27.5902 19.7554 28.1632C20.071 27.9176 20.7022 28.0814 20.9389 28.2451C20.7022 28.4088 20.6233 28.9819 20.7811 29.2275C20.2521 29.1776 20.1921 29.6144 20.1366 30.0187C20.101 30.2777 20.0672 30.5234 19.9132 30.6193C19.7527 30.7145 19.5921 30.8512 19.4277 30.9912C19.0265 31.3328 18.6023 31.6941 18.0986 31.5198C18.355 31.9455 18.7779 31.8179 19.1726 31.6989C19.3853 31.6347 19.5897 31.5731 19.7554 31.6017C19.4562 31.8235 19.4581 32.1173 19.4598 32.4051C19.4613 32.6486 19.4628 32.8878 19.2821 33.0753C19.2172 33.1595 19.1489 33.2679 19.0753 33.3849L19.0753 33.3849C18.7909 33.8368 18.426 34.4166 17.8619 34.2215C17.9408 34.549 18.3353 34.6308 18.6509 34.6308C18.5972 34.668 18.5435 34.7135 18.4889 34.7599C18.3028 34.9179 18.1059 35.0849 17.8619 34.9583C17.8619 35.2039 18.0197 35.3677 18.1775 35.4495C18.0171 35.4495 17.8698 35.4766 17.7248 35.5032C17.5134 35.5421 17.3071 35.58 17.073 35.5314C17.073 35.6951 17.1519 35.9407 17.2308 36.1045C16.7574 35.9407 15.8107 35.6951 15.4951 36.2682C15.7318 36.2682 16.1262 36.2682 16.2051 36.5957C15.9812 36.4214 15.7176 36.4532 15.4425 36.4864C15.3298 36.5 15.2152 36.5138 15.1006 36.5138C14.7391 36.5674 14.479 36.4456 14.1876 36.3092C14.0338 36.2372 13.8713 36.1611 13.6805 36.1045C13.286 35.9407 11.4714 35.6133 11.3925 36.2682C11.6202 36.0792 12.0056 36.2175 12.3818 36.3524C12.6574 36.4513 12.9281 36.5484 13.1282 36.5138C13.569 36.463 13.949 36.6646 14.3248 36.864C14.5544 36.9857 14.7824 37.1067 15.0217 37.1688C14.4747 37.1215 14.0594 37.2655 13.6388 37.4113C13.3314 37.5179 13.0213 37.6254 12.6548 37.66C12.554 37.6809 12.4222 37.6858 12.2805 37.691C11.8682 37.7063 11.3723 37.7246 11.3136 38.1512C11.5241 38.0201 11.7571 38.0523 12.0006 38.0859C12.2134 38.1152 12.4341 38.1457 12.6548 38.0693C12.7863 38.042 12.9178 37.9875 13.0493 37.9329C13.3123 37.8237 13.5753 37.7146 13.8383 37.8237C13.6016 38.1512 13.2071 38.3149 12.8126 38.3968C12.3232 38.4603 12.071 38.6222 11.7248 38.8445C11.6246 38.9088 11.5165 38.9782 11.3925 39.0517C11.2154 39.162 11.0064 39.2063 10.7942 39.2512C10.5338 39.3064 10.2686 39.3625 10.0513 39.543C9.97899 39.5992 9.90669 39.6641 9.8325 39.7306L9.83247 39.7307C9.58281 39.9546 9.31166 40.1979 8.94675 40.1979C9.33987 40.431 9.733 40.2078 10.0977 40.0007C10.2453 39.9169 10.3882 39.8357 10.5247 39.7886C10.7727 39.692 11.0207 39.6461 11.264 39.601L11.264 39.601C11.6397 39.5314 12.004 39.464 12.3393 39.2155C12.1485 39.7104 11.6694 39.8463 11.1809 39.9849C10.8613 40.0755 10.5376 40.1674 10.288 40.3616C10.026 40.552 9.79004 40.7784 9.55711 41.002C9.08868 41.4516 8.63232 41.8897 8 41.999C8.33258 42.4131 9.00162 42.0126 9.39252 41.7786L9.39256 41.7785C9.4653 41.735 9.5284 41.6972 9.57791 41.6715C9.887 41.4933 10.226 41.4238 10.5624 41.3547L10.5624 41.3547C10.9987 41.2651 11.4306 41.1765 11.787 40.8529C12.0912 40.5766 12.4138 40.4145 12.7281 40.2565C13.066 40.0867 13.3944 39.9217 13.6805 39.6248C13.8383 39.4611 15.2584 38.4787 15.4162 38.4787C15.1692 38.5885 15.0169 38.8293 14.8605 39.0767C14.6671 39.3824 14.4675 39.698 14.075 39.7886C14.4486 39.9547 15.1111 39.5588 15.6961 39.2092C15.9757 39.0421 16.2377 38.8856 16.4418 38.8061C16.3066 39.0167 16.0409 39.1821 15.7752 39.3475C15.421 39.568 15.0668 39.7886 15.0217 40.116C15.3111 39.8587 15.6654 39.7811 16.0053 39.7067C16.3141 39.6391 16.6109 39.5741 16.8363 39.3792C16.9492 39.2816 17.0891 39.1699 17.2409 39.0488L17.241 39.0487L17.241 39.0487C17.7255 38.662 18.3317 38.1782 18.572 37.7419C18.8876 37.2506 19.2032 37.005 19.6765 36.6776C19.7395 36.634 19.8026 36.5846 19.8671 36.534L19.8671 36.534C20.0449 36.3946 20.2339 36.2464 20.4655 36.1864C20.6057 36.15 20.746 36.1783 20.8863 36.2066C21.0616 36.2419 21.2369 36.2773 21.4122 36.1864C21.4576 37.0344 21.294 36.9877 21.0567 36.9201C20.8816 36.8702 20.6665 36.8088 20.4655 37.0869C20.426 37.1278 20.5444 37.1892 20.6824 37.2609C20.8205 37.3325 20.9783 37.4144 21.0178 37.4962C21.0178 37.4962 20.1499 38.3149 20.071 38.3149C20.3077 38.6424 20.86 38.3968 21.0966 38.1512C21.0572 38.274 21.1164 38.3968 21.1755 38.5196C21.2347 38.6424 21.2939 38.7652 21.2544 38.888C21.323 38.888 21.4364 38.7178 21.5555 38.5389C21.7105 38.3062 21.8753 38.0586 21.9645 38.1512C21.57 38.3149 22.2801 38.5605 22.2801 38.5605C22.0541 38.7168 22.2595 38.9477 22.4159 38.8972C22.3105 38.9498 22.3212 39.0829 22.3321 39.2201C22.342 39.3426 22.352 39.4683 22.2801 39.543C22.1853 39.7889 22.0335 39.8575 21.8419 39.9442C21.7146 40.0017 21.5697 40.0672 21.4122 40.1979C21.0966 40.5254 21.0178 40.9347 21.0966 41.3441L21.1099 41.3994C21.1994 41.7753 21.4202 42.7025 21.57 42.0809C21.2544 43.6364 23.1479 44.6188 24.2525 43.5545C24.8047 42.9814 25.4359 40.6072 24.4892 40.116C24.6469 40.1979 24.8836 40.116 24.9625 40.0342C25.0414 40.1979 25.1203 40.2798 25.2781 40.2798C25.8304 40.4435 25.9882 41.1803 25.9093 41.7534C26.3037 41.2622 26.2249 40.0342 25.8304 39.543C25.6726 39.3792 25.1203 39.1336 24.8836 39.0517C24.6469 39.0517 24.4892 39.0517 24.4103 39.2974C24.2525 39.1336 24.0158 39.0517 23.7791 39.1336C23.858 38.8061 23.4635 37.9875 23.1479 37.8237C22.5803 37.4556 22.8422 36.5577 23.0155 35.9638C23.0349 35.8973 23.0532 35.8347 23.069 35.777C23.2072 35.8726 23.5067 35.9961 23.7949 36.1149C24.0003 36.1996 24.2 36.2819 24.3314 36.3501C24.6469 36.5138 26.3826 36.9232 25.6726 36.5957C27.2505 37.2506 28.1972 34.6309 26.6982 34.0578C27.3294 34.1396 26.7771 33.4847 26.4615 33.321C25.9882 33.1572 25.0414 33.4028 24.6469 33.7303C24.6864 33.6894 24.7456 33.5256 24.8047 33.3619C24.8639 33.1982 24.9231 33.0344 24.9625 32.9935C25.1992 32.7479 25.4359 32.5023 25.8304 32.666C24.8848 31.3749 24.3473 32.3968 23.9011 33.2451C23.64 33.7416 23.4101 34.1787 23.1479 34.0578C22.6746 33.8122 22.5957 32.4204 22.8323 32.0929C22.9215 32.0004 22.9099 31.8817 22.8972 31.7517C22.8874 31.6516 22.8769 31.5448 22.9112 31.438C22.9901 31.3152 23.1085 31.1924 23.2268 31.0696C23.3452 30.9468 23.4635 30.824 23.5424 30.7012C24.0947 29.7187 26.3826 30.21 27.4083 30.7012C28.7495 31.2742 30.5641 31.5198 31.9842 31.6836C31.895 31.8687 31.9319 32.0015 31.9665 32.1263C31.9932 32.2223 32.0185 32.3136 31.9842 32.4204C31.8264 32.3385 30.5641 32.3385 30.4852 32.4204C30.6342 32.4204 30.7832 32.5117 30.9405 32.608C31.1164 32.7157 31.3026 32.8297 31.5108 32.8297C31.1797 32.8727 31.0006 33.141 30.8368 33.3863C30.6883 33.6087 30.5525 33.8122 30.3274 33.8122C30.4377 33.898 30.7309 33.8139 31.0321 33.7275C31.5931 33.5667 32.182 33.3979 31.6686 34.3034C31.9842 34.3034 32.142 33.894 32.2209 33.5666C32.2874 33.601 32.4239 33.7009 32.6016 33.831C33.2677 34.3184 34.5131 35.2297 34.8245 34.7127C34.8245 35.1221 35.3767 35.1221 35.6134 35.1221C35.7887 35.1221 36.0264 35.1867 36.2641 35.2514C36.5611 35.3323 36.8582 35.4131 37.0335 35.3677C35.8501 36.2682 39.0848 39.1336 39.0848 37.9875C39.0848 37.6757 39.2684 37.745 39.558 37.8543C39.9528 38.0034 40.5444 38.2267 41.1361 37.66C42.1617 36.5957 41.2939 34.549 39.8738 34.6308C40.2682 34.549 41.1361 34.4671 41.2939 35.2039C42.0039 33.9759 40.1105 33.321 39.3215 33.6484C39.5706 33.5192 39.6012 33.3899 39.6318 33.2606C39.6594 33.1443 39.6869 33.028 39.8738 32.9116C39.9674 32.863 40.0541 32.8 40.14 32.7376C40.3437 32.5896 40.5431 32.4447 40.8205 32.5023C40.3471 31.9292 38.4536 32.0929 38.6114 33.0753C38.3748 32.9935 38.217 33.0753 38.0592 33.2391C38.0592 33.5666 37.9014 33.6484 37.5858 33.6484C37.428 33.9759 37.2702 34.0578 37.1124 33.7303C36.9807 33.6619 36.8765 33.6364 36.7768 33.612C36.6376 33.5778 36.5073 33.5459 36.3235 33.4028C36.0868 33.2391 35.5345 33.2391 35.2978 33.2391C35.1161 33.2768 34.9846 33.1755 34.8493 33.0713C34.691 32.9493 34.5275 32.8233 34.2722 32.9116C34.2181 32.35 34.4981 31.9425 34.7811 31.5306L34.7811 31.5306C34.9107 31.342 35.0409 31.1524 35.14 30.9468C35.5345 30.21 35.929 29.4731 36.0868 28.5726C36.1032 28.4191 36.106 28.2692 36.1086 28.1273C36.1184 27.5878 36.1262 27.1638 36.8757 27.099C37.5858 27.0171 37.7436 27.9176 37.0335 28.1632C37.3491 28.4088 37.7436 28.0814 37.9014 27.7539C37.6647 28.2451 37.6647 29.1457 38.2959 29.3094C38.217 29.1047 38.2959 28.9205 38.3748 28.7363C38.4536 28.5521 38.5325 28.3679 38.4536 28.1632C38.7692 28.327 39.0848 28.6545 39.0848 29.0638C39.334 28.7536 39.2055 28.4433 39.0769 28.1331L39.0769 28.1331C39.002 27.9521 38.927 27.7711 38.927 27.5902C39.6371 27.672 40.1105 27.4264 40.6627 26.9352C41.2939 26.5259 41.3728 26.5259 41.8462 26.9352C42.714 27.5902 44.6075 27.4264 45.1598 26.3621C45.2404 26.167 45.3575 26.0383 45.4583 25.9276C45.6536 25.7131 45.7875 25.5661 45.4753 25.1341C45.3521 24.9423 45.2169 24.763 45.0837 24.5864C44.8757 24.3107 44.6729 24.0417 44.5286 23.7423C43.8974 22.1868 41.925 23.9061 41.6884 24.3973C41.5971 24.5394 41.552 24.6473 41.5187 24.7268C41.4371 24.9222 41.4268 24.9467 40.9783 24.8885C40.6122 24.8505 40.2631 24.9536 39.9073 25.0586C39.4964 25.1798 39.0766 25.3037 38.6114 25.216C37.9128 25.071 37.3998 24.7334 36.8533 24.3738L36.8533 24.3738C36.7826 24.3273 36.7113 24.2804 36.6391 24.2336C36.4048 24.101 36.1994 24.0042 36.0118 23.9158C35.5042 23.6768 35.1275 23.4993 34.6667 22.8418L34.7193 22.8509C35.1805 22.9301 35.7068 23.0206 36.0868 23.4149C36.1345 23.4644 36.1822 23.5176 36.2307 23.5718L36.2308 23.5718C36.5032 23.8759 36.8015 24.2088 37.2702 24.0698C36.9596 23.9777 36.6489 23.6525 36.3383 23.3272C36.0966 23.0743 35.855 22.8213 35.6134 22.6781C36.0583 22.0845 36.9126 22.1285 37.6817 22.168C37.8674 22.1776 38.0482 22.1868 38.217 22.1868C38.6607 22.1868 38.9504 22.5066 39.2401 22.8264C39.414 23.0183 39.5878 23.2102 39.7949 23.333C39.6643 23.4008 39.5742 23.5246 39.4856 23.6464C39.36 23.8191 39.2372 23.988 39.0059 23.988C39.3215 24.1517 39.716 24.0698 40.0316 23.8242C39.9527 24.1517 40.0316 24.4792 40.3471 24.6429C40.1502 24.3704 40.3903 24.1545 40.5674 23.9954C40.6031 23.9633 40.6363 23.9335 40.6627 23.9061C40.694 24.0035 40.7626 24.0881 40.829 24.17C40.9299 24.2945 41.0259 24.4129 40.9783 24.561C41.7673 24.3973 41.215 22.4325 40.6627 22.2687C41.6884 21.3682 41.925 23.0055 41.6095 23.7423C42.0039 23.4149 42.0039 22.9237 42.0039 22.4325C42.255 22.5106 42.8096 22.4478 43.444 22.376C44.8035 22.2222 46.5297 22.0268 46.4221 23.0874C46.9744 22.4325 45.9487 21.9412 45.4753 21.8594C45.3248 21.8281 45.1973 21.6419 45.0664 21.4508C44.8543 21.1412 44.6334 20.8188 44.2919 21.1226C44.9231 21.0407 44.6075 21.9412 44.213 22.105C44.3708 21.5319 43.8185 21.1226 43.2663 21.2863C44.6075 21.6956 42.5562 22.7599 42.714 22.0231C42.7469 21.8182 42.8347 21.6418 42.9202 21.4701C43.0396 21.2302 43.1545 20.9995 43.1085 20.7132C43.0822 20.6313 43.0471 20.5404 43.0121 20.4494C42.9419 20.2675 42.8718 20.0856 42.8718 19.9764C43.1874 20.0583 43.1874 19.8127 42.9507 19.6489C43.0859 19.6957 43.2212 19.6356 43.3564 19.5754C43.4579 19.5303 43.5593 19.4852 43.6608 19.4852C44.1289 19.4158 44.5403 19.2287 44.9912 19.0238C45.0722 18.9869 45.1545 18.9495 45.2387 18.9121C46.0276 18.6665 48 18.339 48 18.339ZM39.0848 21.0407C39.3215 20.4676 40.5838 19.8945 40.1894 20.877C40.2434 20.8489 40.3068 20.7631 40.3763 20.669C40.5094 20.4887 40.665 20.2781 40.8205 20.3857C41.1361 20.5495 41.2939 20.877 40.8994 21.0407C41.0347 21.0407 41.1699 20.9956 41.3052 20.9505C41.4855 20.8903 41.6658 20.8302 41.8462 20.877C41.7792 20.9464 41.7406 21.0454 41.7004 21.1489C41.6457 21.2892 41.5879 21.4377 41.4517 21.5319C41.1556 21.7367 40.5816 21.5251 40.0195 21.3179C39.683 21.1938 39.3507 21.0713 39.0848 21.0407ZM39.3215 21.5319C39.5582 21.8594 40.1894 22.1868 40.5049 22.3506C40.5838 22.1868 40.8205 22.0231 40.8205 22.0231C40.5165 21.8654 40.18 21.7752 39.8527 21.6875C39.6704 21.6386 39.4909 21.5905 39.3215 21.5319Z" fill="white"/>
</g>
</svg>
