<svg width="56" height="56" viewBox="0 0 56 56" fill="none" xmlns="http://www.w3.org/2000/svg">
<rect y="8" width="56" height="40" rx="4" fill="white"/>
<mask id="mask0_17_3058" style="mask-type:alpha" maskUnits="userSpaceOnUse" x="0" y="8" width="56" height="40">
<rect y="8" width="56" height="40" rx="4" fill="white"/>
</mask>
<g mask="url(#mask0_17_3058)">
<rect y="8" width="56" height="40" fill="#E4233B"/>
<path fill-rule="evenodd" clip-rule="evenodd" d="M0 8L24 28L0 48V8Z" fill="#34CD4E"/>
<path fill-rule="evenodd" clip-rule="evenodd" d="M56 8L32 28L56 48V8Z" fill="#34CD4E"/>
<path fill-rule="evenodd" clip-rule="evenodd" d="M33.9242 20.7875C32.3127 19.4623 30.2493 18.6667 28 18.6667C25.7507 18.6667 23.6873 19.4623 22.0758 20.7875L-2.56494 4.16711L-5.5473 8.58865L19.0915 25.2077C18.8155 26.0894 18.6667 27.0273 18.6667 28C18.6667 28.9727 18.8155 29.9106 19.0915 30.7923L-5.5473 47.4114L-2.56494 51.8329L22.0758 35.2125C23.6873 36.5377 25.7507 37.3333 28 37.3333C30.2493 37.3333 32.3127 36.5377 33.9242 35.2125L58.5649 51.8329L61.5473 47.4114L36.9085 30.7923C37.1845 29.9106 37.3333 28.9727 37.3333 28C37.3333 27.0273 37.1845 26.0894 36.9085 25.2077L61.5473 8.58865L58.5649 4.16711L33.9242 20.7875Z" fill="white"/>
<path fill-rule="evenodd" clip-rule="evenodd" d="M28 25.3333L26.1144 25.8856L26.6667 24L26.1144 22.1144L28 22.6667L29.8856 22.1144L29.3333 24L29.8856 25.8856L28 25.3333ZM24 32L22.1144 32.5523L22.6667 30.6667L22.1144 28.781L24 29.3333L25.8856 28.781L25.3333 30.6667L25.8856 32.5523L24 32ZM30.1144 32.5523L32 32L33.8856 32.5523L33.3333 30.6667L33.8856 28.781L32 29.3333L30.1144 28.781L30.6667 30.6667L30.1144 32.5523Z" fill="#DF2239"/>
</g>
</svg>
