<svg width="56" height="56" viewBox="0 0 56 56" fill="none" xmlns="http://www.w3.org/2000/svg">
<rect x="0.5" y="8.5" width="55" height="39" rx="3.5" fill="white" stroke="#F5F5F5"/>
<mask id="mask0_17_3045" style="mask-type:alpha" maskUnits="userSpaceOnUse" x="0" y="8" width="56" height="40">
<rect x="0.5" y="8.5" width="55" height="39" rx="3.5" fill="white" stroke="white"/>
</mask>
<g mask="url(#mask0_17_3045)">
<rect x="40" y="8" width="16" height="40" fill="#FF3131"/>
<path fill-rule="evenodd" clip-rule="evenodd" d="M0 48H16V8H0V48Z" fill="#FF3131"/>
<path fill-rule="evenodd" clip-rule="evenodd" d="M32.2236 26.443C31.7572 26.9094 30.9691 26.4877 31.0985 25.8409L32 21.3333L29.3333 22.6666L28 18.6666L26.6667 22.6666L24 21.3333L24.9015 25.8409C25.0309 26.4877 24.2428 26.9094 23.7764 26.443L23.1381 25.8047C22.8777 25.5443 22.4556 25.5443 22.1953 25.8047L21.3333 26.6666L18.6667 25.3333L20 28L19.1381 28.8619C18.8777 29.1222 18.8777 29.5443 19.1381 29.8047L22.6667 33.3333H26.6667L27.3333 37.3333H28.6667L29.3333 33.3333H33.3333L36.8619 29.8047C37.1223 29.5443 37.1223 29.1222 36.8619 28.8619L36 28L37.3333 25.3333L34.6667 26.6666L33.8047 25.8047C33.5444 25.5443 33.1223 25.5443 32.8619 25.8047L32.2236 26.443Z" fill="#FF3131"/>
</g>
</svg>
