<svg width="56" height="56" viewBox="0 0 56 56" fill="none" xmlns="http://www.w3.org/2000/svg">
<rect y="8" width="56" height="40" rx="4" fill="white"/>
<mask id="mask0_17_3029" style="mask-type:alpha" maskUnits="userSpaceOnUse" x="0" y="8" width="56" height="40">
<rect y="8" width="56" height="40" rx="4" fill="white"/>
</mask>
<g mask="url(#mask0_17_3029)">
<rect y="8" width="56" height="40" fill="#F1361D"/>
<path fill-rule="evenodd" clip-rule="evenodd" d="M20.1453 14.2015L22.0822 14.5317L23.5348 15.8547L23.8651 13.9178L25.188 12.4651L23.2512 12.1349L21.7985 10.8119L21.4683 12.7488L20.1453 14.2015ZM25.3333 20.976L27.0118 19.9545L28.9761 19.9999L27.9546 18.3215L28 16.3572L26.3216 17.3787L24.3573 17.3333L25.3788 19.0117L25.3333 20.976ZM23.0565 31.9417L21.4147 33.0211L21.3916 31.0564L20.3121 29.4147L22.2768 29.3915L23.9186 28.3121L23.9417 30.2768L25.0212 31.9185L23.0565 31.9417ZM24.4823 26.8628L26.4351 26.6463L28.1962 27.5177L27.9797 25.5648L28.8511 23.8037L26.8982 24.0202L25.1371 23.1489L25.3536 25.1017L24.4823 26.8628Z" fill="#FFDC42"/>
<path fill-rule="evenodd" clip-rule="evenodd" d="M13.3333 24.4534L8.63105 27.8055L10.366 22.2975L5.72488 18.8612L11.4994 18.8092L13.3333 13.3334L15.1672 18.8092L20.9418 18.8612L16.3006 22.2975L18.0356 27.8055L13.3333 24.4534Z" fill="#FFDC42"/>
</g>
</svg>
