<svg width="56" height="56" viewBox="0 0 56 56" fill="none" xmlns="http://www.w3.org/2000/svg">
<rect y="8" width="56" height="40" rx="4" fill="white"/>
<mask id="mask0_17_2988" style="mask-type:alpha" maskUnits="userSpaceOnUse" x="0" y="8" width="56" height="40">
<rect y="8" width="56" height="40" rx="4" fill="white"/>
</mask>
<g mask="url(#mask0_17_2988)">
<path fill-rule="evenodd" clip-rule="evenodd" d="M0 24H56V8H0V24Z" fill="#108753"/>
<path fill-rule="evenodd" clip-rule="evenodd" d="M0 48H56V32H0V48Z" fill="#108753"/>
<path fill-rule="evenodd" clip-rule="evenodd" d="M32 48H24V32H0V24H24V8H32V24H56V32H32V48Z" fill="white"/>
<path fill-rule="evenodd" clip-rule="evenodd" d="M29.3333 48H26.6667V29.3333H0V26.6667H26.6667V8H29.3333V26.6667H56V29.3333H29.3333V48Z" fill="#262626"/>
<path fill-rule="evenodd" clip-rule="evenodd" d="M26.6667 48H24V26.6667H0V24H24V8H26.6667V24H56V26.6667H26.6667V48Z" fill="#FCD449"/>
<circle cx="28" cy="28" r="9.33333" fill="url(#paint0_linear_17_2988)"/>
<circle cx="28" cy="28" r="6.66667" stroke="#0E673F" stroke-width="2.66667" stroke-linecap="round" stroke-dasharray="1.33 5.33"/>
<ellipse cx="28" cy="28" rx="1.33687" ry="2.66667" fill="#0E673F"/>
</g>
<defs>
<linearGradient id="paint0_linear_17_2988" x1="18.6667" y1="18.6667" x2="18.6667" y2="37.3334" gradientUnits="userSpaceOnUse">
<stop stop-color="#E02C42"/>
<stop offset="1" stop-color="#D22036"/>
</linearGradient>
</defs>
</svg>
