<svg width="56" height="56" viewBox="0 0 56 56" fill="none" xmlns="http://www.w3.org/2000/svg">
<rect x="0.5" y="8.5" width="55" height="39" rx="3.5" fill="white" stroke="#F5F5F5"/>
<mask id="mask0_17_2975" style="mask-type:alpha" maskUnits="userSpaceOnUse" x="0" y="8" width="56" height="40">
<rect x="0.5" y="8.5" width="55" height="39" rx="3.5" fill="white" stroke="white"/>
</mask>
<g mask="url(#mask0_17_2975)">
<path fill-rule="evenodd" clip-rule="evenodd" d="M0 21.3333H56V8H0V21.3333Z" fill="#E41D33"/>
<path fill-rule="evenodd" clip-rule="evenodd" d="M0 48H56V34.6667H0V48Z" fill="#262626"/>
<path d="M24.737 26.9648L25.3056 28.1019L25.9175 26.988L25.9175 26.9879L25.9175 26.9878L25.9176 26.9876L25.9178 26.9873L25.9201 26.9832L25.9306 26.9644C25.9403 26.9472 25.9552 26.921 25.9749 26.8872C26.0143 26.8195 26.0726 26.7214 26.1465 26.6031C26.295 26.3653 26.5027 26.0518 26.743 25.7416C26.9863 25.4275 27.2468 25.138 27.4978 24.9332C27.7659 24.7144 27.9323 24.6667 28 24.6667C28.1146 24.6667 28.3021 24.7288 28.5627 24.9372C28.814 25.1383 29.0671 25.4228 29.3 25.7333C29.53 26.04 29.7242 26.3502 29.8616 26.5859C29.93 26.7031 29.9833 26.8001 30.0191 26.8669C30.037 26.9003 30.0504 26.926 30.0591 26.9427L30.0684 26.961L30.0703 26.9648L30.0704 26.9648L30.0705 26.965L30.0705 26.9652L30.0706 26.9653L30.6666 28.1574L31.2629 26.9648L32.412 24.6667L33.3333 24.6667C33.7015 24.6667 34 24.9651 34 25.3333V29.5086C34 30.0411 33.4065 30.3587 32.9635 30.0633L31.0364 28.7786L30.8685 28.6667H30.6666H29.3333H28.6666V29.3333V30.6667C28.6666 31.0349 28.3682 31.3333 28 31.3333C27.6318 31.3333 27.3333 31.0349 27.3333 30.6667V29.3333V28.6667H26.6666H25.3333H25.1315L24.9635 28.7786L23.0364 30.0633C22.5934 30.3587 22 30.0411 22 29.5086V25.3333C22 24.9651 22.2985 24.6667 22.6666 24.6667L23.588 24.6667L24.737 26.9648Z" fill="#F4B32E" fill-opacity="0.25" stroke="#C6A846" stroke-width="1.33333"/>
</g>
</svg>
