<svg width="56" height="56" viewBox="0 0 56 56" fill="none" xmlns="http://www.w3.org/2000/svg">
<rect y="8" width="56" height="40" rx="4" fill="white"/>
<mask id="mask0_17_2950" style="mask-type:alpha" maskUnits="userSpaceOnUse" x="0" y="8" width="56" height="40">
<rect y="8" width="56" height="40" rx="4" fill="white"/>
</mask>
<g mask="url(#mask0_17_2950)">
<rect y="8" width="56" height="40" fill="#79CFF6"/>
<rect y="8" width="24" height="18.6667" fill="url(#paint0_linear_17_2950)"/>
<path fill-rule="evenodd" clip-rule="evenodd" d="M34.6667 28C34.6667 24 34.6667 18.6667 34.6667 18.6667H48C48 18.6667 48 24 48 28C48 34.6667 41.3334 37.3333 41.3334 37.3333C41.3334 37.3333 34.6667 34.6667 34.6667 28Z" fill="white"/>
<mask id="mask1_17_2950" style="mask-type:alpha" maskUnits="userSpaceOnUse" x="34" y="18" width="14" height="20">
<path fill-rule="evenodd" clip-rule="evenodd" d="M34.6667 28C34.6667 24 34.6667 18.6667 34.6667 18.6667H48C48 18.6667 48 24 48 28C48 34.6667 41.3334 37.3333 41.3334 37.3333C41.3334 37.3333 34.6667 34.6667 34.6667 28Z" fill="white"/>
</mask>
<g mask="url(#mask1_17_2950)">
<path fill-rule="evenodd" clip-rule="evenodd" d="M37.3333 25.3333C38.0697 25.3333 38.6667 24.7364 38.6667 24C38.6667 23.2636 38.0697 22.6667 37.3333 22.6667C36.597 22.6667 36 23.2636 36 24C36 24.7364 36.597 25.3333 37.3333 25.3333ZM45.3333 25.3333C46.0697 25.3333 46.6667 24.7364 46.6667 24C46.6667 23.2636 46.0697 22.6667 45.3333 22.6667C44.597 22.6667 44 23.2636 44 24C44 24.7364 44.597 25.3333 45.3333 25.3333Z" fill="#2A915C"/>
<path fill-rule="evenodd" clip-rule="evenodd" d="M34.6667 18.6667H48V21.3333H42.6667V26.6667H48V29.3333H42.6667V37.3333H40V29.3333H34.6667V26.6667H40V21.3333H34.6667V18.6667Z" fill="#EB1D43"/>
</g>
<path d="M0 7.33333H-1.80217L-0.433861 8.50617L8.66667 16.3066V18.3236L-0.387492 24.7908L-0.666667 24.9903V25.3333V26.6667V27.8695L0.353333 27.232L10.8579 20.6667H13.1197L22.1642 27.127C22.352 27.2612 22.5771 27.3333 22.808 27.3333C23.8363 27.3333 24.3096 26.054 23.5288 25.3847L15.3333 18.36V16.3431L24.1083 10.0752C24.4587 9.82495 24.6667 9.42086 24.6667 8.99025V8V6.79717L23.6467 7.43467L13.1421 14H10.8803L1.72083 7.45751L1.54698 7.33333H1.33333H0Z" fill="#DB1E36" stroke="white" stroke-width="1.33333"/>
<path fill-rule="evenodd" clip-rule="evenodd" d="M0 14.6667V20H9.33333V26.6667C9.33333 27.403 9.93029 28 10.6667 28H13.3333C14.0697 28 14.6667 27.403 14.6667 26.6667V20H24C24.7364 20 25.3333 19.403 25.3333 18.6667V16C25.3333 15.2636 24.7364 14.6667 24 14.6667H14.6667V8H9.33333V14.6667H0Z" fill="url(#paint1_linear_17_2950)"/>
<path fill-rule="evenodd" clip-rule="evenodd" d="M0 16H10.6667V14.6667V8H13.3333V14.6667V16H24V18.6667H13.3333V20V26.6667H10.6667V20V18.6667H0V16Z" fill="#DB1E36"/>
</g>
<defs>
<linearGradient id="paint0_linear_17_2950" x1="0" y1="8" x2="0" y2="26.6667" gradientUnits="userSpaceOnUse">
<stop stop-color="#042C90"/>
<stop offset="1" stop-color="#00247E"/>
</linearGradient>
<linearGradient id="paint1_linear_17_2950" x1="0" y1="8" x2="0" y2="28" gradientUnits="userSpaceOnUse">
<stop stop-color="white"/>
<stop offset="1" stop-color="#F0F0F0"/>
</linearGradient>
</defs>
</svg>
