<svg width="56" height="56" viewBox="0 0 56 56" fill="none" xmlns="http://www.w3.org/2000/svg">
<rect x="0.5" y="8.5" width="55" height="39" rx="3.5" fill="white" stroke="#F5F5F5"/>
<mask id="mask0_17_2867" style="mask-type:alpha" maskUnits="userSpaceOnUse" x="0" y="8" width="56" height="40">
<rect x="0.5" y="8.5" width="55" height="39" rx="3.5" fill="white" stroke="white"/>
</mask>
<g mask="url(#mask0_17_2867)">
<path fill-rule="evenodd" clip-rule="evenodd" d="M0 21.3333H56V8H0V21.3333Z" fill="#38BB56"/>
<path fill-rule="evenodd" clip-rule="evenodd" d="M0 48H56V34.6666H0V48Z" fill="#DE1B27"/>
<path fill-rule="evenodd" clip-rule="evenodd" d="M3.33335 18.6666C2.96516 18.6666 2.66669 18.9651 2.66669 19.3333V20.6666C2.66669 21.0348 2.96516 21.3333 3.33335 21.3333H4.66669C5.03488 21.3333 5.33335 21.0348 5.33335 20.6666V19.3333C5.33335 18.9651 5.03488 18.6666 4.66669 18.6666H3.33335ZM8.66669 18.6666C8.2985 18.6666 8.00002 18.9651 8.00002 19.3333V20.6666C8.00002 21.0348 8.2985 21.3333 8.66669 21.3333H10C10.3682 21.3333 10.6667 21.0348 10.6667 20.6666V19.3333C10.6667 18.9651 10.3682 18.6666 10 18.6666H8.66669ZM13.3334 19.3333C13.3334 18.9651 13.6318 18.6666 14 18.6666H15.3334C15.7015 18.6666 16 18.9651 16 19.3333V20.6666C16 21.0348 15.7015 21.3333 15.3334 21.3333H14C13.6318 21.3333 13.3334 21.0348 13.3334 20.6666V19.3333ZM19.3334 18.6666C18.9652 18.6666 18.6667 18.9651 18.6667 19.3333V20.6666C18.6667 21.0348 18.9652 21.3333 19.3334 21.3333H20.6667C21.0349 21.3333 21.3334 21.0348 21.3334 20.6666V19.3333C21.3334 18.9651 21.0349 18.6666 20.6667 18.6666H19.3334ZM24 19.3333C24 18.9651 24.2985 18.6666 24.6667 18.6666H26C26.3682 18.6666 26.6667 18.9651 26.6667 19.3333V20.6666C26.6667 21.0348 26.3682 21.3333 26 21.3333H24.6667C24.2985 21.3333 24 21.0348 24 20.6666V19.3333ZM30 18.6666C29.6318 18.6666 29.3334 18.9651 29.3334 19.3333V20.6666C29.3334 21.0348 29.6318 21.3333 30 21.3333H31.3334C31.7015 21.3333 32 21.0348 32 20.6666V19.3333C32 18.9651 31.7015 18.6666 31.3334 18.6666H30ZM34.6667 19.3333C34.6667 18.9651 34.9652 18.6666 35.3334 18.6666H36.6667C37.0349 18.6666 37.3334 18.9651 37.3334 19.3333V20.6666C37.3334 21.0348 37.0349 21.3333 36.6667 21.3333H35.3334C34.9652 21.3333 34.6667 21.0348 34.6667 20.6666V19.3333ZM40.6667 18.6666C40.2985 18.6666 40 18.9651 40 19.3333V20.6666C40 21.0348 40.2985 21.3333 40.6667 21.3333H42C42.3682 21.3333 42.6667 21.0348 42.6667 20.6666V19.3333C42.6667 18.9651 42.3682 18.6666 42 18.6666H40.6667ZM45.3334 19.3333C45.3334 18.9651 45.6318 18.6666 46 18.6666H47.3334C47.7015 18.6666 48 18.9651 48 19.3333V20.6666C48 21.0348 47.7015 21.3333 47.3334 21.3333H46C45.6318 21.3333 45.3334 21.0348 45.3334 20.6666V19.3333ZM51.3334 18.6666C50.9652 18.6666 50.6667 18.9651 50.6667 19.3333V20.6666C50.6667 21.0348 50.9652 21.3333 51.3334 21.3333H52.6667C53.0349 21.3333 53.3334 21.0348 53.3334 20.6666V19.3333C53.3334 18.9651 53.0349 18.6666 52.6667 18.6666H51.3334ZM2.66669 35.3333C2.66669 34.9651 2.96516 34.6666 3.33335 34.6666H4.66669C5.03488 34.6666 5.33335 34.9651 5.33335 35.3333V36.6666C5.33335 37.0348 5.03488 37.3333 4.66669 37.3333H3.33335C2.96516 37.3333 2.66669 37.0348 2.66669 36.6666V35.3333ZM8.66669 34.6666C8.2985 34.6666 8.00002 34.9651 8.00002 35.3333V36.6666C8.00002 37.0348 8.2985 37.3333 8.66669 37.3333H10C10.3682 37.3333 10.6667 37.0348 10.6667 36.6666V35.3333C10.6667 34.9651 10.3682 34.6666 10 34.6666H8.66669ZM13.3334 35.3333C13.3334 34.9651 13.6318 34.6666 14 34.6666H15.3334C15.7015 34.6666 16 34.9651 16 35.3333V36.6666C16 37.0348 15.7015 37.3333 15.3334 37.3333H14C13.6318 37.3333 13.3334 37.0348 13.3334 36.6666V35.3333ZM19.3334 34.6666C18.9652 34.6666 18.6667 34.9651 18.6667 35.3333V36.6666C18.6667 37.0348 18.9652 37.3333 19.3334 37.3333H20.6667C21.0349 37.3333 21.3334 37.0348 21.3334 36.6666V35.3333C21.3334 34.9651 21.0349 34.6666 20.6667 34.6666H19.3334ZM24 35.3333C24 34.9651 24.2985 34.6666 24.6667 34.6666H26C26.3682 34.6666 26.6667 34.9651 26.6667 35.3333V36.6666C26.6667 37.0348 26.3682 37.3333 26 37.3333H24.6667C24.2985 37.3333 24 37.0348 24 36.6666V35.3333ZM30 34.6666C29.6318 34.6666 29.3334 34.9651 29.3334 35.3333V36.6666C29.3334 37.0348 29.6318 37.3333 30 37.3333H31.3334C31.7015 37.3333 32 37.0348 32 36.6666V35.3333C32 34.9651 31.7015 34.6666 31.3334 34.6666H30ZM34.6667 35.3333C34.6667 34.9651 34.9652 34.6666 35.3334 34.6666H36.6667C37.0349 34.6666 37.3334 34.9651 37.3334 35.3333V36.6666C37.3334 37.0348 37.0349 37.3333 36.6667 37.3333H35.3334C34.9652 37.3333 34.6667 37.0348 34.6667 36.6666V35.3333ZM40.6667 34.6666C40.2985 34.6666 40 34.9651 40 35.3333V36.6666C40 37.0348 40.2985 37.3333 40.6667 37.3333H42C42.3682 37.3333 42.6667 37.0348 42.6667 36.6666V35.3333C42.6667 34.9651 42.3682 34.6666 42 34.6666H40.6667ZM45.3334 35.3333C45.3334 34.9651 45.6318 34.6666 46 34.6666H47.3334C47.7015 34.6666 48 34.9651 48 35.3333V36.6666C48 37.0348 47.7015 37.3333 47.3334 37.3333H46C45.6318 37.3333 45.3334 37.0348 45.3334 36.6666V35.3333ZM51.3334 34.6666C50.9652 34.6666 50.6667 34.9651 50.6667 35.3333V36.6666C50.6667 37.0348 50.9652 37.3333 51.3334 37.3333H52.6667C53.0349 37.3333 53.3334 37.0348 53.3334 36.6666V35.3333C53.3334 34.9651 53.0349 34.6666 52.6667 34.6666H51.3334Z" fill="white" fill-opacity="0.5"/>
<mask id="path-6-inside-1_17_2867" fill="white">
<path fill-rule="evenodd" clip-rule="evenodd" d="M25.307 25.0422C24.504 25.7738 24 26.828 24 28C24 30.2091 25.7909 32 28 32C30.2091 32 32 30.2091 32 28C32 26.8502 31.5149 25.8137 30.7381 25.084"/>
</mask>
<path d="M24.4091 24.0566C23.3404 25.0302 22.6667 26.4373 22.6667 28H25.3333C25.3333 27.2187 25.6676 26.5174 26.205 26.0279L24.4091 24.0566ZM22.6667 28C22.6667 30.9455 25.0545 33.3333 28 33.3333V30.6666C26.5272 30.6666 25.3333 29.4727 25.3333 28H22.6667ZM28 33.3333C30.9455 33.3333 33.3333 30.9455 33.3333 28H30.6667C30.6667 29.4727 29.4728 30.6666 28 30.6666V33.3333ZM33.3333 28C33.3333 26.467 32.6848 25.0833 31.651 24.1122L29.8252 26.0558C30.3449 26.544 30.6667 27.2333 30.6667 28H33.3333Z" fill="#D80915" mask="url(#path-6-inside-1_17_2867)"/>
<rect x="26.6667" y="26.6666" width="2.66667" height="5.33333" rx="1.33333" fill="#D80915"/>
</g>
</svg>
