<svg width="56" height="56" viewBox="0 0 56 56" fill="none" xmlns="http://www.w3.org/2000/svg">
<rect y="8" width="56" height="40" rx="4" fill="white"/>
<mask id="mask0_17_2821" style="mask-type:alpha" maskUnits="userSpaceOnUse" x="0" y="8" width="56" height="40">
<rect y="8" width="56" height="40" rx="4" fill="white"/>
</mask>
<g mask="url(#mask0_17_2821)">
<rect x="-12" y="8" width="80" height="40" fill="#CE1126"/>
<path d="M35.6968 26.8922C35.9053 26.9228 36.0047 26.9376 36.1165 26.955C37.3101 27.1409 37.9759 27.3751 38.4273 27.9024L38.7424 28.2705L38.2744 28.1448C37.873 28.037 37.4573 28.1896 36.6568 28.6599L36.5516 28.7219C35.6381 29.2611 35.1868 29.4544 34.7244 29.3576C34.7073 29.3754 34.6862 29.3917 34.6613 29.4059C34.5831 29.4504 34.4574 29.482 34.2749 29.5088C33.9556 29.5555 33.4511 29.5866 32.7755 29.6037C31.5935 29.6336 29.9118 29.62 27.9049 29.5712C26.2982 29.5322 24.5512 29.472 23.0845 29.4086C22.4779 29.3824 21.9715 29.3578 21.658 29.3395C21.5042 29.3305 21.4016 29.3233 21.3536 29.318C21.3352 29.3159 21.3352 29.3159 21.3123 29.3115C21.3019 29.3165 21.2989 29.3179 21.2627 29.2773C21.0271 29.2202 20.7661 29.1759 20.3032 29.1077C20.0947 29.0771 19.9953 29.0623 19.8835 29.0449C18.6899 28.859 18.0241 28.6248 17.5727 28.0975L17.2576 27.7294L17.7256 27.8551C18.127 27.9629 18.5427 27.8103 19.3432 27.34L19.4484 27.278C20.0648 26.9141 20.4708 26.7078 20.8117 26.6418C20.7616 26.6135 20.7088 26.5841 20.653 26.5535C20.5401 26.4914 20.1421 26.2775 20.1038 26.2567C18.9542 25.6328 18.4013 25.1908 18.1665 24.5216L18.0121 24.0818L18.394 24.3491C18.7442 24.5941 19.1823 24.5871 20.1687 24.4037L20.2213 24.394C20.9165 24.2644 21.366 24.2094 21.7061 24.2619C21.5961 24.1362 21.4454 23.9678 21.2222 23.7189C20.3009 22.6916 19.9295 22.0945 19.9487 21.3667L19.9607 20.912L20.2215 21.2846C20.4681 21.6369 20.8767 21.7756 21.8911 21.9422L21.9285 21.9483C22.6224 22.0622 23.0637 22.1645 23.3658 22.3324C23.3095 22.1824 23.2356 21.9923 23.1326 21.7293C23.0264 21.4584 22.9598 21.2827 22.896 21.1005C22.5888 20.2229 22.5043 19.583 22.701 19.0186L22.8613 18.5587L22.9875 19.0291C23.0999 19.4478 23.4314 19.7128 24.3416 20.2247L24.3667 20.2388C24.9747 20.5808 25.3528 20.8282 25.5803 21.0917C25.5776 20.9418 25.5717 20.7618 25.5629 20.5313C25.5552 20.3309 25.5518 20.2312 25.5487 20.1138C25.5188 18.9517 25.6408 18.2611 26.0968 17.7436L26.3985 17.4011L26.3588 17.8558C26.3211 18.2867 26.5417 18.6469 27.2249 19.4399C27.286 19.5109 27.286 19.5109 27.3471 19.5822C27.733 20.0336 27.9767 20.3745 28.0917 20.6881C28.1258 20.5947 28.1622 20.4918 28.2021 20.3765C28.212 20.3481 28.3367 19.9852 28.3745 19.8773C28.7918 18.6856 29.1341 18.0653 29.7129 17.7145L30.1352 17.4585L29.9266 17.9061C29.7463 18.293 29.8315 18.7013 30.2044 19.6655L30.2076 19.674C30.4651 20.3397 30.6018 20.7795 30.606 21.1321C30.6389 21.092 30.6733 21.0498 30.7094 21.0049C30.7861 20.9096 31.0564 20.5682 31.0642 20.5584C31.8957 19.5142 32.4241 19.0449 33.1313 18.9202L33.5997 18.8377L33.2634 19.174C32.9572 19.4803 32.8909 19.9044 32.8999 20.9365L32.9002 20.9628C32.9064 21.6736 32.8811 22.127 32.7663 22.4559C32.9071 22.3716 33.0908 22.2584 33.356 22.0943C34.0052 21.6926 34.3863 21.4873 34.8065 21.3435C35.2063 21.2066 35.5753 21.162 35.9269 21.2228L36.3985 21.3045L35.9647 21.5066C35.5711 21.69 35.364 22.0658 35.0166 23.0456L35.0056 23.0767C34.7714 23.7374 34.5929 24.1519 34.3735 24.4206C34.5273 24.3916 34.7168 24.3531 34.9705 24.3004C35.1989 24.253 35.3375 24.2252 35.4853 24.1979C36.5116 24.0083 37.1939 24.0211 37.7653 24.3411L38.1901 24.579L37.7051 24.6214C37.275 24.659 36.9625 24.9355 36.3058 25.7413L36.3002 25.7482C35.8467 26.3046 35.5328 26.6401 35.2262 26.8194C35.3582 26.8414 35.5113 26.8649 35.6968 26.8922Z" fill="#BD9C08"/>
<path d="M36.0703 27.2515C35.9597 27.2343 35.8614 27.2196 35.653 27.1891C35.1037 27.1081 34.8309 27.0599 34.5464 26.9835L33.4472 26.6887H34.5853C35.0469 26.6887 35.3749 26.4086 36.0676 25.5587L36.0732 25.5518C36.5712 24.9407 36.8904 24.6069 37.2237 24.4449C36.7948 24.3328 36.2629 24.3594 35.5397 24.493C35.3947 24.5198 35.2578 24.5472 35.0314 24.5942C34.347 24.7362 34.1194 24.7778 33.8037 24.8054L32.6851 24.9032L33.7388 24.5152C34.1519 24.3631 34.363 23.9913 34.7228 22.9765L34.7338 22.9454C34.9982 22.1997 35.1899 21.7724 35.4529 21.5037C35.2789 21.5197 35.0965 21.5613 34.9036 21.6274C34.5112 21.7617 34.1446 21.9591 33.5138 22.3494C32.7874 22.799 32.6611 22.8737 32.362 23.0133L31.3533 23.4838L32.2015 22.763C32.5399 22.4754 32.6098 22.0558 32.6001 20.9655L32.5999 20.9391C32.593 20.15 32.6274 19.6836 32.7841 19.3413C32.3382 19.5481 31.9069 19.9817 31.2988 20.7453C31.2917 20.7543 31.0207 21.0966 30.943 21.193C30.8078 21.361 30.6962 21.4942 30.5886 21.6143C30.5211 21.6897 30.4561 21.7586 30.3927 21.8221L29.4448 22.7698L30.1597 21.636C30.407 21.2438 30.3291 20.82 29.9278 19.7822L29.9245 19.7737C29.6443 19.0491 29.5127 18.6089 29.5341 18.2432C29.2116 18.5852 28.9563 19.1234 28.6576 19.9765C28.6202 20.0834 28.4956 20.4457 28.4855 20.4748C28.3445 20.8817 28.2462 21.1396 28.1359 21.3763L27.6275 22.467L27.8526 21.2849C27.9316 20.8697 27.718 20.4778 27.1191 19.7772C27.0586 19.7066 27.0586 19.7066 26.9975 19.6358C26.4694 19.0227 26.1936 18.6441 26.0959 18.2793C25.8882 18.698 25.8269 19.2658 25.8486 20.1061C25.8516 20.2219 25.855 20.3207 25.8626 20.5199C25.887 21.1601 25.8897 21.4202 25.8627 21.7291L25.7624 22.8757L25.5655 21.7417C25.4892 21.3026 25.1577 21.0279 24.2196 20.5003L24.1944 20.4862C23.5065 20.0993 23.1198 19.8396 22.9003 19.5382C22.8732 19.9362 22.9707 20.4061 23.1791 21.0014C23.2414 21.1792 23.3069 21.3522 23.4118 21.6199C23.6964 22.346 23.7627 22.526 23.8462 22.8386L24.1658 24.035L23.5698 22.9495C23.3581 22.5639 22.9564 22.4211 21.8799 22.2444L21.8424 22.2382C21.0565 22.1092 20.601 21.994 20.2909 21.7761C20.407 22.257 20.7658 22.7607 21.4455 23.5186C22.0802 24.2265 22.1392 24.2946 22.3321 24.5699L23.0291 25.5645L22.1111 24.7694C21.7806 24.4832 21.3584 24.4872 20.2762 24.6889L20.2235 24.6987C19.4656 24.8396 19.0005 24.8847 18.636 24.789C18.9106 25.1891 19.4071 25.5373 20.2468 25.9931C20.2841 26.0133 20.683 26.2277 20.7974 26.2905C21.0953 26.4542 21.3119 26.5837 21.5006 26.7158L22.4499 27.3801L21.3627 26.9794C20.9472 26.8262 20.5518 26.975 19.6008 27.5364L19.4951 27.5987C18.8879 27.9554 18.4778 28.1466 18.1124 28.1835C18.5034 28.4554 19.0661 28.614 19.9296 28.7485C20.0402 28.7657 20.1385 28.7803 20.3468 28.8109C20.8962 28.8919 21.1689 28.9401 21.4535 29.0164L21.5004 29.029C21.5475 29.0323 21.6062 29.036 21.6754 29.04C21.9872 29.0583 22.4922 29.0828 23.0974 29.109C24.5623 29.1722 26.3074 29.2324 27.9121 29.2714C29.9145 29.32 31.5919 29.3336 32.7679 29.3039C33.4323 29.2871 33.927 29.2565 34.2314 29.212C34.2813 29.2047 34.3255 29.197 34.3636 29.1893L33.55 28.6198L34.6372 29.0206C35.0527 29.1738 35.4481 29.0249 36.3991 28.4636L36.5048 28.4013C37.112 28.0446 37.5221 27.8534 37.8875 27.8164C37.4965 27.5445 36.9338 27.386 36.0703 27.2515Z" fill="#FCD116"/>
<path d="M22.0515 28L18.1793 26.4175C18.0299 26.3565 18.069 26.135 18.2302 26.1287L22.4101 25.9657L19.3125 23.1537C19.1931 23.0453 19.3055 22.8505 19.4591 22.8998L23.4429 24.177L21.4939 20.4754C21.4188 20.3327 21.591 20.1882 21.7185 20.287L25.0258 22.8487L24.4607 18.7044C24.4389 18.5445 24.6502 18.4677 24.7362 18.6041L26.9672 22.1428L27.8534 18.0544C27.8876 17.8968 28.1124 17.8968 28.1466 18.0544L29.0328 22.1428L31.2638 18.6041C31.3498 18.4677 31.5611 18.5445 31.5393 18.7044L30.9742 22.8486L34.2801 20.287C34.4076 20.1882 34.5798 20.3327 34.5047 20.4754L32.557 24.177L36.5395 22.8998C36.6931 22.8505 36.8056 23.0452 36.6862 23.1537L33.5897 25.9657L37.7685 26.1287C37.9297 26.135 37.9687 26.3564 37.8194 26.4175L33.9484 28L37.8194 29.5824C37.9717 29.6447 37.9272 29.8713 37.7627 29.8713H18.236C18.0715 29.8713 18.0269 29.6447 18.1793 29.5824L22.0515 28Z" fill="#BD9C08"/>
<path d="M22.5047 27.8612C22.629 27.912 22.629 28.088 22.5047 28.1389L18.9995 29.5713H36.9993L33.4952 28.1388C33.3709 28.088 33.3709 27.912 33.4952 27.8612L37.0655 26.4016L33.2114 26.2512C33.0772 26.246 33.017 26.0806 33.1164 25.9903L35.9722 23.3968L32.2991 24.5748C32.1712 24.6159 32.058 24.481 32.1205 24.3622L33.9172 20.9477L30.8678 23.3106C30.7617 23.3928 30.6092 23.3048 30.6273 23.1717L31.1485 19.3494L29.0908 22.6133C29.0192 22.727 28.8458 22.6964 28.8174 22.5651L27.9999 18.7943L27.1825 22.5651C27.1541 22.6964 26.9807 22.727 26.9091 22.6133L24.8514 19.3494L25.3726 23.1717C25.3907 23.3048 25.2383 23.3928 25.1321 23.3106L22.0816 20.9477L23.8793 24.3621C23.9419 24.481 23.8287 24.6159 23.7008 24.5748L20.0266 23.3968L22.8834 25.9903C22.9829 26.0805 22.9227 26.246 22.7885 26.2512L18.9332 26.4016L22.5047 27.8612Z" fill="#FCD116"/>
<path fill-rule="evenodd" clip-rule="evenodd" d="M33.6644 28C33.6644 31.1283 31.1283 33.6644 28 33.6644C24.8716 33.6644 22.3356 31.1283 22.3356 28C22.3356 24.8716 24.8716 22.3356 28 22.3356C31.1283 22.3356 33.6644 24.8716 33.6644 28ZM22.6356 28C22.6356 30.9626 25.0373 33.3644 28 33.3644C30.9626 33.3644 33.3644 30.9626 33.3644 28C33.3644 25.0373 30.9626 22.6356 28 22.6356C25.0373 22.6356 22.6356 25.0373 22.6356 28Z" fill="#BD9C08"/>
<path d="M29.8134 14.6483L32.7707 14.6679C32.7894 14.5428 32.5174 14.2939 32.284 14.2575C31.536 14.1399 30.9747 14.3823 30.0654 14.3916L29.8134 14.6483H29.8134Z" fill="#FCD116" stroke="#BD9C08" stroke-width="0.2"/>
<path d="M23.924 13.9524C24.6187 14.8297 25.9654 15.4394 27.2507 15.4474C28.984 15.4581 30.9067 14.0553 33.2307 13.6258L25.6427 13.4696C24.66 12.7969 23.9147 12.8822 23.4067 13.2993L21.956 13.3432C21.7507 13.455 22.1254 13.9222 22.4294 13.9393L23.924 13.9524Z" fill="#FCD116" stroke="#BD9C08" stroke-width="0.2"/>
<path d="M27.3547 13.449C27.0787 12.18 26.06 11.633 24.836 11.4708C23.4214 11.2833 20.1667 11.0912 18.004 10.4701C18.94 11.3902 20.8987 11.8496 22.26 12.0573C23.7014 12.2773 25.104 12.5978 26.216 13.4374L27.3547 13.449Z" fill="#FCD116" stroke="#BD9C08" stroke-width="0.2"/>
<path d="M26.436 14.2961C26.888 14.8766 27.5894 14.8438 28.344 14.3373C29.096 13.8325 29.9134 12.411 30.308 12.3877C33.0667 12.2274 36.404 11.0629 37.996 10.1636C35.9774 10.4493 33.9774 10.7733 31.9414 10.7813C28.468 10.7952 28.0574 12.377 26.6414 13.4861" fill="#FCD116"/>
<path d="M26.436 14.2961C26.888 14.8766 27.5894 14.8438 28.344 14.3373C29.096 13.8325 29.9134 12.411 30.308 12.3877C33.0667 12.2274 36.404 11.0629 37.996 10.1636C35.9774 10.4493 33.9774 10.7733 31.9414 10.7813C28.468 10.7952 28.0574 12.377 26.6414 13.4861" stroke="#BD9C08" stroke-width="0.2" stroke-linecap="round"/>
<path d="M27.0284 13.698C27.3962 13.4637 27.6716 13.2466 28.2452 12.7611L28.2736 12.737C28.6549 12.4143 28.8395 12.2633 29.0689 12.0932C30.0103 11.3954 30.8678 11.2446 32.9079 11.2194C33.47 11.2125 34.2435 11.1071 35.2039 10.9211C35.5121 10.8614 35.8353 10.7943 36.1791 10.719C36.608 10.6251 36.8207 10.576 37.6015 10.3931C37.6552 10.3805 37.6886 10.3267 37.676 10.2729C37.6634 10.2191 37.6096 10.1857 37.5558 10.1983C36.7761 10.3811 36.5639 10.4301 36.1363 10.5236C35.794 10.5986 35.4724 10.6654 35.1659 10.7248C34.2164 10.9087 33.4528 11.0127 32.9054 11.0194C30.8245 11.0452 29.9362 11.2014 28.9498 11.9326C28.7158 12.106 28.5289 12.2589 28.1444 12.5844L28.116 12.6084C27.5491 13.0883 27.2787 13.3014 26.9209 13.5294C26.8743 13.559 26.8606 13.6209 26.8903 13.6674C26.92 13.714 26.9818 13.7277 27.0284 13.698Z" fill="#BD9C08"/>
<path d="M26.3022 13.3726C26.1001 12.3178 25.2823 11.8694 23.5976 11.6134C23.2784 11.5649 23.0126 11.5282 22.4499 11.4532C21.9775 11.3902 21.7867 11.3643 21.5338 11.3278C20.5978 11.1929 19.8878 11.0573 19.2039 10.8683C19.0119 10.8153 18.8568 10.7541 18.5289 10.6107L18.517 10.6055C18.3445 10.5301 18.266 10.4966 18.1674 10.4576L18.0939 10.6437C18.1895 10.6814 18.2666 10.7143 18.4369 10.7888L18.4488 10.794C18.7853 10.9411 18.9465 11.0047 19.1507 11.061C19.8441 11.2527 20.5616 11.3898 21.5053 11.5258C21.7591 11.5623 21.9503 11.5883 22.4235 11.6514C22.9849 11.7263 23.25 11.7629 23.5676 11.8111C25.1765 12.0557 25.9249 12.4659 26.1057 13.4103L26.3022 13.3726Z" fill="#BD9C08"/>
<path d="M26.662 15.1641C27.8848 15.2538 28.8017 14.992 30.2713 14.2597C30.3207 14.2351 30.3408 14.175 30.3162 14.1256C30.2915 14.0762 30.2315 14.0561 30.1821 14.0807C28.7418 14.7984 27.8565 15.0512 26.6767 14.9646C26.6216 14.9606 26.5736 15.002 26.5696 15.057C26.5656 15.1121 26.6069 15.16 26.662 15.1641Z" fill="#BD9C08"/>
<path d="M21.9507 13.6822H23.6787C23.7339 13.6822 23.7787 13.6374 23.7787 13.5822C23.7787 13.527 23.7339 13.4822 23.6787 13.4822H21.9507C21.8955 13.4822 21.8507 13.527 21.8507 13.5822C21.8507 13.6374 21.8955 13.6822 21.9507 13.6822Z" fill="#BD9C08"/>
<circle cx="24.2333" cy="13.3916" r="0.216" fill="#BD9C08"/>
<rect x="-12" y="30" width="80" height="18" fill="#003F87"/>
<path d="M-12 42.2853C-9.33333 42.2853 -6.66667 44 -4 44C-1.33333 44 1.33333 42.2853 4 42.2853C6.66667 42.2853 9.33333 44 12 44C14.6667 44 17.3333 42.2853 20 42.2853C22.6667 42.2853 25.3333 44 28 44C30.6667 44 33.3333 42.2853 36 42.2853C38.6667 42.2853 41.3333 44 44 44C46.6667 44 49.3333 42.2853 52 42.2853C54.6667 42.2853 57.3333 44 60 44C62.6667 44 65.3333 42.2853 68 42.2853V39.428C65.3333 39.428 62.6667 41.1426 60 41.1426C57.3333 41.1426 54.6667 39.428 52 39.428C49.3333 39.428 46.6667 41.1426 44 41.1426C41.3333 41.1426 38.6667 39.428 36 39.428C33.3333 39.428 30.6667 41.1426 28 41.1426C25.3333 41.1426 22.6667 39.428 20 39.428C17.3333 39.428 14.6667 41.1426 12 41.1426C9.33333 41.1426 6.66667 39.428 4 39.428C1.33333 39.428 -1.33333 41.1426 -4 41.1426C-6.66667 41.1426 -9.33333 39.428 -12 39.428V42.2853Z" fill="white"/>
<path d="M-12 36.5711C-9.33333 36.5711 -6.66667 38.2857 -4 38.2857C-1.33333 38.2857 1.33333 36.5711 4 36.5711C6.66667 36.5711 9.33333 38.2857 12 38.2857C14.6667 38.2857 17.3333 36.5711 20 36.5711C22.6667 36.5711 25.3333 38.2857 28 38.2857C30.6667 38.2857 33.3333 36.5711 36 36.5711C38.6667 36.5711 41.3333 38.2857 44 38.2857C46.6667 38.2857 49.3333 36.5711 52 36.5711C54.6667 36.5711 57.3333 38.2857 60 38.2857C62.6667 38.2857 65.3333 36.5711 68 36.5711V33.7137C65.3333 33.7137 62.6667 35.4284 60 35.4284C57.3333 35.4284 54.6667 33.7137 52 33.7137C49.3333 33.7137 46.6667 35.4284 44 35.4284C41.3333 35.4284 38.6667 33.7137 36 33.7137C33.3333 33.7137 30.6667 35.4284 28 35.4284C25.3333 35.4284 22.6667 33.7137 20 33.7137C17.3333 33.7137 14.6667 35.4284 12 35.4284C9.33333 35.4284 6.66667 33.7137 4 33.7137C1.33333 33.7137 -1.33333 35.4284 -4 35.4284C-6.66667 35.4284 -9.33333 33.7137 -12 33.7137V36.5711Z" fill="white"/>
<path d="M-12 30.8568C-9.33333 30.8568 -6.66667 32.5715 -4 32.5715C-1.33333 32.5715 1.33333 30.8568 4 30.8568C6.66667 30.8568 9.33333 32.5715 12 32.5715C14.6667 32.5715 17.3333 30.8568 20 30.8568C22.6667 30.8568 25.3333 32.5715 28 32.5715C30.6667 32.5715 33.3333 30.8568 36 30.8568C38.6667 30.8568 41.3333 32.5715 44 32.5715C46.6667 32.5715 49.3333 30.8568 52 30.8568C54.6667 30.8568 57.3333 32.5715 60 32.5715C62.6667 32.5715 65.3333 30.8568 68 30.8568V27.9995C65.3333 27.9995 62.6667 29.7141 60 29.7141C57.3333 29.7141 54.6667 27.9995 52 27.9995C49.3333 27.9995 46.6667 29.7141 44 29.7141C41.3333 29.7141 38.6667 27.9995 36 27.9995C33.3333 27.9995 30.6667 29.7141 28 29.7141C25.3333 29.7141 22.6667 27.9995 20 27.9995C17.3333 27.9995 14.6667 29.7141 12 29.7141C9.33333 29.7141 6.66667 27.9995 4 27.9995C1.33333 27.9995 -1.33333 29.7141 -4 29.7141C-6.66667 29.7141 -9.33333 27.9995 -12 27.9995V30.8568Z" fill="white"/>
</g>
</svg>
