<svg width="56" height="56" viewBox="0 0 56 56" fill="none" xmlns="http://www.w3.org/2000/svg">
<rect x="0.5" y="8.5" width="55" height="39" rx="3.5" fill="white" stroke="#F5F5F5"/>
<mask id="mask0_17_2800" style="mask-type:alpha" maskUnits="userSpaceOnUse" x="0" y="8" width="56" height="40">
<rect x="0.5" y="8.5" width="55" height="39" rx="3.5" fill="white" stroke="white"/>
</mask>
<g mask="url(#mask0_17_2800)">
<path fill-rule="evenodd" clip-rule="evenodd" d="M0 18.6667H56V8H0V18.6667Z" fill="#F03340"/>
<path fill-rule="evenodd" clip-rule="evenodd" d="M0 48H56V37.3333H0V48Z" fill="#F03340"/>
<path fill-rule="evenodd" clip-rule="evenodd" d="M25.8856 32.781C26.317 32.3497 26.317 31.6503 25.8856 31.2189L25.7322 31.0655C25.4847 30.8181 25.1256 30.7186 24.7861 30.8035L24.0276 30.9931C23.1403 31.2149 22.5895 30.0579 23.3212 29.5091L24.0066 28.995C24.4316 28.6763 24.2062 28 23.675 28C23.0917 28 22.906 27.2136 23.4278 26.9528L24.5722 26.3805C25.094 26.1197 24.9083 25.3333 24.325 25.3333C23.7938 25.3333 23.5684 24.6571 23.9934 24.3383L27.2 21.9333C27.6741 21.5778 28.3259 21.5778 28.8 21.9333L32.0066 24.3383C32.4316 24.6571 32.2062 25.3333 31.675 25.3333C31.0917 25.3333 30.906 26.1197 31.4278 26.3805L32.5722 26.9528C33.094 27.2136 32.9083 28 32.325 28C31.7938 28 31.5684 28.6763 31.9934 28.995L32.6788 29.5091C33.4105 30.0579 32.8597 31.2149 31.9724 30.9931L31.2139 30.8035C30.8744 30.7186 30.5153 30.8181 30.2678 31.0655L30.1144 31.2189C29.683 31.6503 29.683 32.3497 30.1144 32.781C30.8102 33.4769 30.3174 34.6667 29.3333 34.6667H26.6667C25.6826 34.6667 25.1898 33.4769 25.8856 32.781Z" fill="#1FC065"/>
</g>
</svg>
