<svg width="56" height="56" viewBox="0 0 56 56" fill="none" xmlns="http://www.w3.org/2000/svg">
<rect x="0.5" y="8.5" width="55" height="39" rx="3.5" fill="white" stroke="#F5F5F5"/>
<mask id="mask0_17_2792" style="mask-type:alpha" maskUnits="userSpaceOnUse" x="0" y="8" width="56" height="40">
<rect x="0.5" y="8.5" width="55" height="39" rx="3.5" fill="white" stroke="white"/>
</mask>
<g mask="url(#mask0_17_2792)">
<path fill-rule="evenodd" clip-rule="evenodd" d="M56 8H26.6667V13.3333H56V8ZM56 18.6667H26.6667V24H56V18.6667ZM26.6667 29.3333H56V34.6667H26.6667V29.3333ZM56 40H0V45.3333H56V40Z" fill="#E1244A"/>
<rect y="8" width="26.6667" height="26.6667" fill="#0C3F8E"/>
<path fill-rule="evenodd" clip-rule="evenodd" d="M13.3334 24.4533L8.63109 27.8055L10.3661 22.2975L5.72492 18.8612L11.4995 18.8092L13.3334 13.3333L15.1673 18.8092L20.9418 18.8612L16.3007 22.2975L18.0357 27.8055L13.3334 24.4533Z" fill="white"/>
</g>
</svg>
