<svg width="56" height="56" viewBox="0 0 56 56" fill="none" xmlns="http://www.w3.org/2000/svg">
<rect y="8" width="56" height="40" rx="4" fill="white"/>
<mask id="mask0_17_2771" style="mask-type:alpha" maskUnits="userSpaceOnUse" x="0" y="8" width="56" height="40">
<rect y="8" width="56" height="40" rx="4" fill="white"/>
</mask>
<g mask="url(#mask0_17_2771)">
<rect y="8" width="56" height="40" fill="#E81B26"/>
<circle cx="28" cy="28" r="6.66667" fill="#FFE94F"/>
<path fill-rule="evenodd" clip-rule="evenodd" d="M20.4162 22.5585C20.8188 21.9984 21.282 21.4847 21.7961 21.027L3.92336 0.938721L-1.42968 6.88388L20.4162 22.5585ZM21.7961 34.9731C21.282 34.5153 20.8188 34.0016 20.4162 33.4415L-1.42969 49.1161L3.92336 55.0613L21.7961 34.9731ZM26.1693 37.1538L24 48H32L29.8308 37.1538C29.2388 37.2716 28.6266 37.3333 28 37.3333C27.3735 37.3333 26.7613 37.2716 26.1693 37.1538ZM35.5839 33.4415C35.1813 34.0016 34.7181 34.5153 34.204 34.9731L52.0767 55.0613L57.4298 49.1161L35.5839 33.4415ZM18.7594 29.3201C18.6983 28.8888 18.6667 28.4481 18.6667 28C18.6667 27.5519 18.6983 27.1112 18.7593 26.6799L4.86374e-05 24V32L18.7594 29.3201ZM26.1693 18.8462L24 8H32L29.8308 18.8462C29.2388 18.7284 28.6266 18.6667 28 18.6667C27.3735 18.6667 26.7613 18.7284 26.1693 18.8462ZM37.2407 26.6799C37.3018 27.1112 37.3334 27.5519 37.3334 28C37.3334 28.4481 37.3018 28.8888 37.2407 29.3201L56 32V24L37.2407 26.6799ZM35.5839 22.5585C35.1813 21.9984 34.7181 21.4847 34.204 21.027L52.0767 0.938721L57.4298 6.88388L35.5839 22.5585Z" fill="#FFE94F"/>
</g>
</svg>
