<svg width="56" height="56" viewBox="0 0 56 56" fill="none" xmlns="http://www.w3.org/2000/svg">
<rect y="8" width="56" height="40" rx="4" fill="white"/>
<mask id="mask0_17_2759" style="mask-type:alpha" maskUnits="userSpaceOnUse" x="0" y="8" width="56" height="40">
<rect y="8" width="56" height="40" rx="4" fill="white"/>
</mask>
<g mask="url(#mask0_17_2759)">
<path fill-rule="evenodd" clip-rule="evenodd" d="M56 8H26.6667V10.6667H56V8ZM56 13.3333H26.6667V16H56V13.3333ZM26.6667 18.6667H56V21.3333H26.6667V18.6667ZM56 24H26.6667V26.6667H56V24ZM0 29.3333H56V32H0V29.3333ZM56 34.6667H0V37.3333H56V34.6667ZM0 40H56V42.6667H0V40ZM56 45.3333H0V48H56V45.3333Z" fill="#E1244A"/>
<rect y="8" width="32" height="21.3333" fill="#0C3F8E"/>
<path fill-rule="evenodd" clip-rule="evenodd" d="M16 12C16.8195 12 17.6045 12.1479 18.3297 12.4184C16.9607 11.3222 15.2236 10.6667 13.3334 10.6667C8.9151 10.6667 5.33337 14.2484 5.33337 18.6667C5.33337 23.085 8.9151 26.6667 13.3334 26.6667C15.2236 26.6667 16.9607 26.0111 18.3297 24.915C17.6045 25.1855 16.8195 25.3334 16 25.3334C12.3181 25.3334 9.33337 22.3486 9.33337 18.6667C9.33337 14.9848 12.3181 12 16 12ZM19.0193 23.4719L21.3334 20.8534L23.6474 23.4719L23.043 20.0301L26.533 19.8535L23.4652 18.1801L25.5031 15.3414L22.2821 16.6966L21.3334 13.3334L20.3846 16.6966L17.1636 15.3414L19.2015 18.1801L16.1338 19.8535L19.6238 20.0301L19.0193 23.4719Z" fill="#FFD34F"/>
</g>
</svg>
