<svg width="56" height="56" viewBox="0 0 56 56" fill="none" xmlns="http://www.w3.org/2000/svg">
<rect y="8" width="56" height="40" rx="4" fill="white"/>
<mask id="mask0_17_2743" style="mask-type:alpha" maskUnits="userSpaceOnUse" x="0" y="8" width="56" height="40">
<rect y="8" width="56" height="40" rx="4" fill="white"/>
</mask>
<g mask="url(#mask0_17_2743)">
<rect x="-2" y="8" width="76" height="40" fill="#003893"/>
<path d="M-2 47.36V46.4L74 12.6667V24.32L-2 47.36Z" fill="white"/>
<path d="M-2 46.72V46.08L74 8.64001V16.48L-2 46.72Z" fill="#DD7500"/>
<path d="M12.6048 10.2048L13.3502 22.6048H11.8595L12.6048 10.2048Z" fill="white"/>
<path d="M14.9027 14.0289L13.4836 22.8403L11.7259 22.3693L14.9027 14.0289Z" fill="white"/>
<path d="M17.0441 14.9158L13.3928 23.0597L11.8169 22.1498L17.0441 14.9158Z" fill="white"/>
<path d="M18.8828 16.3268L13.2481 23.2481L11.9614 21.9614L18.8828 16.3268Z" fill="white"/>
<path d="M20.2938 18.1656L13.0598 23.3928L12.1499 21.8168L20.2938 18.1656Z" fill="white"/>
<path d="M21.1807 20.3069L12.8403 23.4837L12.3693 21.7259L21.1807 20.3069Z" fill="white"/>
<path d="M25.0049 22.6048L12.6049 23.3501V21.8594L25.0049 22.6048Z" fill="white"/>
<path d="M21.1808 24.9027L12.3694 23.4836L12.8404 21.7259L21.1808 24.9027Z" fill="white"/>
<path d="M20.2938 27.0439L12.15 23.3927L13.0599 21.8168L20.2938 27.0439Z" fill="white"/>
<path d="M18.8829 28.8828L11.9615 23.2481L13.2483 21.9614L18.8829 28.8828Z" fill="white"/>
<path d="M17.0441 30.2937L11.8169 23.0597L13.3928 22.1498L17.0441 30.2937Z" fill="white"/>
<path d="M14.9029 31.1806L11.7261 22.8402L13.4838 22.3693L14.9029 31.1806Z" fill="white"/>
<path d="M12.6048 35.0048L11.8594 22.6048H13.3501L12.6048 35.0048Z" fill="white"/>
<path d="M10.3069 31.1806L11.726 22.3693L13.4837 22.8403L10.3069 31.1806Z" fill="white"/>
<path d="M8.16552 30.2937L11.8168 22.1499L13.3927 23.0597L8.16552 30.2937Z" fill="white"/>
<path d="M6.32684 28.8828L11.9614 21.9614L13.2482 23.2481L6.32684 28.8828Z" fill="white"/>
<path d="M4.91579 27.0439L12.1498 21.8168L13.0596 23.3927L4.91579 27.0439Z" fill="white"/>
<path d="M4.02891 24.9026L12.3693 21.7259L12.8403 23.4836L4.02891 24.9026Z" fill="white"/>
<path d="M0.204834 22.6048L12.6048 21.8594V23.3501L0.204834 22.6048Z" fill="white"/>
<path d="M4.02895 20.3069L12.8403 21.7259L12.3693 23.4836L4.02895 20.3069Z" fill="white"/>
<path d="M4.91587 18.1656L13.0597 21.8168L12.1499 23.3928L4.91587 18.1656Z" fill="white"/>
<path d="M6.32684 16.3268L13.2482 21.9614L11.9614 23.2481L6.32684 16.3268Z" fill="white"/>
<path d="M8.16565 14.9159L13.3928 22.1498L11.8169 23.0597L8.16565 14.9159Z" fill="white"/>
<path d="M10.3068 14.0289L13.4836 22.3693L11.7259 22.8403L10.3068 14.0289Z" fill="white"/>
</g>
</svg>
