<svg width="56" height="56" viewBox="0 0 56 56" fill="none" xmlns="http://www.w3.org/2000/svg">
<rect x="0.5" y="8.5" width="55" height="39" rx="3.5" fill="white" stroke="#F5F5F5"/>
<mask id="mask0_17_2731" style="mask-type:alpha" maskUnits="userSpaceOnUse" x="0" y="8" width="56" height="40">
<rect x="0.5" y="8.5" width="55" height="39" rx="3.5" fill="white" stroke="white"/>
</mask>
<g mask="url(#mask0_17_2731)">
<rect x="37.3334" y="8" width="18.6667" height="40" fill="#E3283E"/>
<path fill-rule="evenodd" clip-rule="evenodd" d="M0 48H18.6667V8H0V48Z" fill="#128A60"/>
<path d="M25.9964 30.1297L26.6656 28.9765L25.9964 30.1297ZM26.4805 31.9522L27.6338 32.6213L27.6338 32.6213L26.4805 31.9522ZM24.6581 32.4363L25.3273 31.283H25.3273L24.6581 32.4363ZM31.5881 32.2862L32.3065 33.4095L31.5881 32.2862ZM29.7465 31.8814L28.6232 32.5998H28.6232L29.7465 31.8814ZM30.1513 30.0397L30.8697 31.163L30.1513 30.0397ZM25.3334 26.6667C25.3334 25.1939 24.1395 24 22.6667 24V26.6667H25.3334ZM26.6656 28.9765C25.8639 28.5113 25.3334 27.6499 25.3334 26.6667H22.6667C22.6667 28.6375 23.7359 30.3596 25.3273 31.283L26.6656 28.9765ZM27.6338 32.6213C28.3729 31.3475 27.9394 29.7156 26.6656 28.9765L25.3273 31.283L25.3273 31.283L27.6338 32.6213ZM23.9889 33.5895C25.2628 34.3286 26.8946 33.8952 27.6338 32.6213L25.3273 31.283L23.9889 33.5895ZM20 26.6667C20 29.6278 21.6101 32.2092 23.9889 33.5895L25.3273 31.283C23.7361 30.3597 22.6667 28.6378 22.6667 26.6667H20ZM22.6667 24C21.1939 24 20 25.1939 20 26.6667H22.6667V24ZM36 26.6667C36 25.1939 34.8061 24 33.3334 24V26.6667H36ZM32.3065 33.4095C34.5216 31.9928 36 29.5035 36 26.6667H33.3334C33.3334 28.5554 32.3516 30.2152 30.8697 31.163L32.3065 33.4095ZM28.6232 32.5998C29.4168 33.8405 31.0658 34.203 32.3065 33.4095L30.8697 31.163V31.163L28.6232 32.5998ZM29.4329 28.9165C28.1922 29.71 27.8297 31.3591 28.6232 32.5998L30.8697 31.163L29.4329 28.9165ZM30.6667 26.6667C30.6667 27.6091 30.18 28.4387 29.4329 28.9165L30.8697 31.163C32.3518 30.2151 33.3334 28.5551 33.3334 26.6667H30.6667ZM33.3334 24C31.8606 24 30.6667 25.1939 30.6667 26.6667H33.3334V24Z" fill="#8C9157"/>
<ellipse cx="28" cy="25.3334" rx="2.66667" ry="4" fill="#C59262"/>
</g>
</svg>
