<svg width="56" height="56" viewBox="0 0 56 56" fill="none" xmlns="http://www.w3.org/2000/svg">
<rect y="8" width="56" height="40" rx="4" fill="white"/>
<mask id="mask0_17_2727" style="mask-type:alpha" maskUnits="userSpaceOnUse" x="0" y="8" width="56" height="40">
<rect y="8" width="56" height="40" rx="4" fill="white"/>
</mask>
<g mask="url(#mask0_17_2727)">
<rect y="8" width="56" height="40" fill="#95CEF5"/>
<path fill-rule="evenodd" clip-rule="evenodd" d="M24.8651 21.6481L28 19.52L31.1348 21.6481L30.0796 18.0091L33.0723 15.6852L29.2852 15.5643L28 12L26.7147 15.5643L22.9277 15.6852L25.9203 18.0091L24.8651 21.6481ZM24.8651 42.9814L28 40.8533L31.1348 42.9814L30.0796 39.3424L33.0723 37.0186L29.2852 36.8976L28 33.3333L26.7147 36.8976L22.9277 37.0186L25.9203 39.3424L24.8651 42.9814ZM38.6666 30.1867L35.5318 32.3148L36.587 28.6757L33.5943 26.3519L37.3813 26.2309L38.6666 22.6667L39.9519 26.2309L43.7389 26.3519L40.7463 28.6757L41.8015 32.3148L38.6666 30.1867ZM14.1984 32.3148L17.3333 30.1867L20.4681 32.3148L19.4129 28.6757L22.4056 26.3519L18.6186 26.2309L17.3333 22.6667L16.048 26.2309L12.261 26.3519L15.2536 28.6757L14.1984 32.3148Z" fill="white"/>
</g>
</svg>
