<svg width="56" height="56" viewBox="0 0 56 56" fill="none" xmlns="http://www.w3.org/2000/svg">
<rect y="8" width="56" height="40" rx="4" fill="white"/>
<mask id="mask0_17_2715" style="mask-type:alpha" maskUnits="userSpaceOnUse" x="0" y="8" width="56" height="40">
<rect y="8" width="56" height="40" rx="4" fill="white"/>
</mask>
<g mask="url(#mask0_17_2715)">
<path fill-rule="evenodd" clip-rule="evenodd" d="M18.6666 48H37.3333V8H18.6666V48Z" fill="#146BBC"/>
<path fill-rule="evenodd" clip-rule="evenodd" d="M0 48H18.6667V8H0V48Z" fill="#E43642"/>
<path fill-rule="evenodd" clip-rule="evenodd" d="M37.3334 48H56V8H37.3334V48Z" fill="#E43642"/>
<path fill-rule="evenodd" clip-rule="evenodd" d="M9.33337 28L10.6667 29.3333L9.33337 29.3333L8.00004 29.3333L9.33337 28ZM9.33337 32C8.59699 32 8.00004 31.403 8.00004 30.6667C8.00004 29.9303 8.59699 29.3333 9.33337 29.3333C10.0698 29.3333 10.6667 29.9303 10.6667 30.6667C10.6667 31.403 10.0698 32 9.33337 32ZM10.6667 32H9.33337H8.00004H5.33337V40H8.00004V37.3333L9.33337 40L10.6667 37.3333V40H13.3334V32H10.6667ZM9.33337 34.6667L10.6667 32V36C10.6667 35.2636 10.0698 34.6667 9.33337 34.6667ZM8.00004 36V32L9.33337 34.6667C8.59699 34.6667 8.00004 35.2636 8.00004 36ZM9.33337 37.3333H8.00004V36C8.00004 36.7364 8.59699 37.3333 9.33337 37.3333ZM9.33337 37.3333H10.6667V36C10.6667 36.7364 10.0698 37.3333 9.33337 37.3333Z" fill="url(#paint0_linear_17_2715)"/>
</g>
<defs>
<linearGradient id="paint0_linear_17_2715" x1="5.33337" y1="28" x2="5.33337" y2="40" gradientUnits="userSpaceOnUse">
<stop stop-color="#F8D246"/>
<stop offset="1" stop-color="#F9CE2F"/>
</linearGradient>
</defs>
</svg>
