<svg width="56" height="56" viewBox="0 0 56 56" fill="none" xmlns="http://www.w3.org/2000/svg">
<rect y="8" width="56" height="40" rx="4" fill="white"/>
<mask id="mask0_17_2711" style="mask-type:alpha" maskUnits="userSpaceOnUse" x="0" y="8" width="56" height="40">
<rect y="8" width="56" height="40" rx="4" fill="white"/>
</mask>
<g mask="url(#mask0_17_2711)">
<rect y="8" width="56" height="40" fill="#E6BE53"/>
<path fill-rule="evenodd" clip-rule="evenodd" d="M2.66663 43.3333C2.66663 44.4379 3.56206 45.3333 4.66663 45.3333H51.3333C52.4379 45.3333 53.3333 44.4379 53.3333 43.3333V12.6666C53.3333 11.5621 52.4379 10.6666 51.3333 10.6666H4.66663C3.56206 10.6666 2.66663 11.5621 2.66663 12.6666V43.3333Z" fill="#E01826"/>
<path fill-rule="evenodd" clip-rule="evenodd" d="M26.0466 15.3178C25.1063 15.6312 24.8246 16.8246 25.5255 17.5255L26.2761 18.2761C26.5261 18.5262 26.8653 18.6666 27.2189 18.6666H28.781C29.1346 18.6666 29.4738 18.5262 29.7238 18.2761L30.4745 17.5255C31.1753 16.8246 30.8936 15.6312 29.9533 15.3178L28.4216 14.8072C28.1479 14.716 27.852 14.716 27.5783 14.8072L26.0466 15.3178ZM28.9428 21.7238C28.4221 22.2445 27.5778 22.2445 27.0571 21.7238L26.6666 21.3333L24.6795 19.3462C24.2737 18.9404 23.6537 18.8398 23.1404 19.0964L22.9879 19.1727C22.1739 19.5797 21.9978 20.6645 22.6414 21.3081L22.6666 21.3333L24.6538 23.3204C25.0596 23.7263 25.1602 24.3462 24.9035 24.8595L24.0759 26.5148C24.026 26.6147 24 26.7248 24 26.8364C24 27.371 23.4374 27.7187 22.9592 27.4796L22.3134 27.1567C21.8312 26.9156 21.7269 26.273 22.1081 25.8918C22.4166 25.5834 22.4166 25.0833 22.1081 24.7748L21.4863 24.153C21.385 24.0516 21.3006 23.9346 21.2365 23.8065L20.0654 21.4642C20.0219 21.3772 19.9881 21.2857 19.9645 21.1913L19.346 18.7176C19.0737 17.6284 17.6595 17.3428 16.9859 18.241L14.9333 20.9778C14.7602 21.2086 14.6666 21.4893 14.6666 21.7778V26.3519C14.6666 26.5589 14.7148 26.763 14.8074 26.9482L15.9032 29.1398C15.9673 29.268 16.0516 29.385 16.153 29.4863L18.5136 31.847C18.615 31.9483 18.732 32.0327 18.8602 32.0967L21.2074 33.2704C21.2902 33.3118 21.3815 33.3333 21.4741 33.3333C22.1033 33.3333 22.3035 34.1815 21.7407 34.4629L21.4317 34.6175C21.3665 34.65 21.307 34.6929 21.2555 34.7444L20.6666 35.3333C20.2984 35.7015 19.7015 35.7015 19.3333 35.3333C18.9651 34.9651 18.3681 34.9651 18 35.3333L17.8918 35.4415C17.5583 35.775 17.4756 36.2845 17.6865 36.7064L18.2981 37.9296C18.524 38.3813 18.9856 38.6666 19.4907 38.6666H21.0185C21.2255 38.6666 21.4297 38.6185 21.6148 38.5259L23.6024 37.5321C23.8605 37.4031 24.0697 37.1938 24.1987 36.9358L24.8032 35.7268C25.064 35.2052 25.7591 35.0924 26.1714 35.5048C26.4594 35.7927 26.504 36.2439 26.2781 36.5827L24.7396 38.8906C24.3311 39.5033 24.4967 40.3311 25.1094 40.7396L27.2604 42.1736C27.7082 42.4722 28.2917 42.4722 28.7396 42.1736L30.8906 40.7396C31.5033 40.3311 31.6688 39.5033 31.2604 38.8906L29.7218 36.5827C29.4959 36.2439 29.5406 35.7927 29.8285 35.5048C30.2408 35.0924 30.9359 35.2052 31.1967 35.7268L31.8012 36.9358C31.9302 37.1938 32.1394 37.4031 32.3975 37.5321L34.3851 38.5259C34.5702 38.6185 34.7744 38.6666 34.9814 38.6666H36.5092C37.0143 38.6666 37.476 38.3813 37.7018 37.9296L38.3134 36.7064C38.5243 36.2845 38.4417 35.775 38.1081 35.4415L38 35.3333C37.6318 34.9651 37.0348 34.9651 36.6666 35.3333C36.2984 35.7015 35.7015 35.7015 35.3333 35.3333L34.7444 34.7444C34.6929 34.6929 34.6334 34.65 34.5682 34.6175L34.2592 34.4629C33.6964 34.1815 33.8966 33.3333 34.5259 33.3333C34.6184 33.3333 34.7097 33.3118 34.7925 33.2704L37.1398 32.0967C37.2679 32.0327 37.385 31.9483 37.4863 31.847L39.847 29.4863C39.9483 29.385 40.0326 29.268 40.0967 29.1398L41.1925 26.9482C41.2851 26.763 41.3333 26.5589 41.3333 26.3519V21.7778C41.3333 21.4893 41.2397 21.2086 41.0666 20.9778L39.0141 18.241C38.3404 17.3428 36.9262 17.6284 36.6539 18.7176L36.0355 21.1913C36.0119 21.2857 35.978 21.3772 35.9345 21.4642L34.7634 23.8065C34.6993 23.9346 34.615 24.0516 34.5136 24.153L33.8918 24.7748C33.5833 25.0833 33.5833 25.5834 33.8918 25.8918C34.273 26.273 34.1687 26.9156 33.6865 27.1567L33.0407 27.4796C32.5625 27.7187 32 27.371 32 26.8364C32 26.7248 31.974 26.6147 31.924 26.5148L31.0964 24.8595C30.8397 24.3462 30.9404 23.7263 31.3462 23.3204L33.3333 21.3333L33.3585 21.3081C34.0021 20.6645 33.826 19.5797 33.012 19.1727L32.8595 19.0964C32.3462 18.8398 31.7262 18.9404 31.3204 19.3462L29.3333 21.3333L28.9428 21.7238Z" fill="#E6BE53"/>
<ellipse cx="28" cy="29.6268" rx="2.66667" ry="2.96021" fill="#215F90"/>
</g>
</svg>
