<svg width="56" height="56" viewBox="0 0 56 56" fill="none" xmlns="http://www.w3.org/2000/svg">
<rect y="8" width="56" height="40" rx="4" fill="white"/>
<mask id="mask0_17_2703" style="mask-type:alpha" maskUnits="userSpaceOnUse" x="0" y="8" width="56" height="40">
<rect y="8" width="56" height="40" rx="4" fill="white"/>
</mask>
<g mask="url(#mask0_17_2703)">
<path fill-rule="evenodd" clip-rule="evenodd" d="M0 48H56V37.3334H0V48Z" fill="#FFE547"/>
<path fill-rule="evenodd" clip-rule="evenodd" d="M0 18.6667H56V8H0V18.6667Z" fill="#118C81"/>
<path fill-rule="evenodd" clip-rule="evenodd" d="M0 37.3333H56V18.6666H0V37.3333Z" fill="white"/>
<path fill-rule="evenodd" clip-rule="evenodd" d="M0 34.6667H56V21.3334H0V34.6667Z" fill="#262626"/>
<path fill-rule="evenodd" clip-rule="evenodd" d="M0 8L26.6667 28L0 48V8Z" fill="#EF2147"/>
<path fill-rule="evenodd" clip-rule="evenodd" d="M9.33329 30.5482L5.41472 33.3935L6.90985 28.7875L2.99292 25.9399L7.83552 25.9385L9.33329 21.3334L10.8311 25.9385L15.6737 25.9399L11.7567 28.7875L13.2519 33.3935L9.33329 30.5482Z" fill="#FDE444"/>
</g>
</svg>
