<svg width="56" height="56" viewBox="0 0 56 56" fill="none" xmlns="http://www.w3.org/2000/svg">
<rect x="0.214286" y="8.21429" width="55.5714" height="39.5714" rx="1.5" fill="white" stroke="#F5F5F5" stroke-width="0.428571"/>
<path fill-rule="evenodd" clip-rule="evenodd" d="M0 9.71429C0 8.76751 0.767512 8 1.71429 8L5.16032 8C5.27313 8 5.38342 8.03339 5.47729 8.09597L34.1927 27.2396C35.1335 27.8668 34.6895 29.3333 33.5587 29.3333H16L35.0443 45.9971C35.8384 46.692 35.347 48 34.2917 48H1.71428C0.767511 48 0 47.2325 0 46.2857V9.71429Z" fill="white"/>
<mask id="mask0_17_2686" style="mask-type:alpha" maskUnits="userSpaceOnUse" x="0" y="8" width="36" height="40">
<path fill-rule="evenodd" clip-rule="evenodd" d="M0 9.71429C0 8.76751 0.767512 8 1.71429 8L5.16032 8C5.27313 8 5.38342 8.03339 5.47729 8.09597L34.1927 27.2396C35.1335 27.8668 34.6895 29.3333 33.5587 29.3333H16L35.0443 45.9971C35.8384 46.692 35.347 48 34.2917 48H1.71428C0.767511 48 0 47.2325 0 46.2857V9.71429Z" fill="white"/>
</mask>
<g mask="url(#mask0_17_2686)">
<path d="M16 28.7619C15.7619 28.7619 15.5488 28.9095 15.4651 29.1323C15.3814 29.3552 15.4446 29.6066 15.6237 29.7634L34.668 46.4271C35.0651 46.7746 34.8193 47.4286 34.2917 47.4286H0.571429V8.57143H5.16032L33.8757 27.715C34.3461 28.0286 34.1241 28.7619 33.5587 28.7619H16Z" fill="#EE1B44" stroke="#0543A8" stroke-width="1.14286" stroke-linejoin="round"/>
<path fill-rule="evenodd" clip-rule="evenodd" d="M13.7021 23.6015C14.4702 23.391 15.1784 23.1031 15.8048 22.7524C15.1835 25.0091 13.1165 26.6667 10.6623 26.6667C8.20808 26.6667 6.14103 25.0089 5.51978 22.7521C6.14793 23.1039 6.85839 23.3925 7.62913 23.6032L8.66653 22.6666L6.97101 21.1359L9.25232 21.2524L9.1358 18.9711L10.6665 20.6666L12.1973 18.9711L12.0807 21.2524L14.362 21.1359L12.6665 22.6666L13.7021 23.6015ZM8.62553 42.2607L10.6665 40L12.7075 42.2607L12.5521 39.219L15.5939 39.3743L13.3332 37.3333L15.5939 35.2924L12.5521 35.4477L12.7075 32.406L10.6665 34.6667L8.62553 32.406L8.78089 35.4477L5.73915 35.2924L7.99984 37.3333L5.73915 39.3743L8.78089 39.219L8.62553 42.2607Z" fill="white"/>
</g>
</svg>
