<svg width="56" height="56" viewBox="0 0 56 56" fill="none" xmlns="http://www.w3.org/2000/svg">
<rect y="8" width="56" height="40" rx="4" fill="white"/>
<mask id="mask0_17_2678" style="mask-type:alpha" maskUnits="userSpaceOnUse" x="0" y="8" width="56" height="40">
<rect y="8" width="56" height="40" rx="4" fill="white"/>
</mask>
<g mask="url(#mask0_17_2678)">
<rect y="8" width="56" height="40" fill="#0A17A7"/>
<path d="M0 7.33333H-1.80217L-0.433861 8.50617L8.66667 16.3066V18.3236L-0.387492 24.7908L-0.666667 24.9903V25.3333V26.6667V27.8695L0.353333 27.232L10.8579 20.6667H13.1197L22.1642 27.127C22.352 27.2612 22.5771 27.3333 22.808 27.3333C23.8363 27.3333 24.3096 26.054 23.5288 25.3847L15.3333 18.36V16.3431L24.1083 10.0752C24.4587 9.82495 24.6667 9.42086 24.6667 8.99025V8V6.79717L23.6467 7.43467L13.1421 14H10.8803L1.72083 7.45751L1.54698 7.33333H1.33333H0Z" fill="#FF2E3B" stroke="white" stroke-width="1.33333"/>
<path fill-rule="evenodd" clip-rule="evenodd" d="M0 14.6667V20H9.33333V26.6667C9.33333 27.403 9.93029 28 10.6667 28H13.3333C14.0697 28 14.6667 27.403 14.6667 26.6667V20H24C24.7364 20 25.3333 19.403 25.3333 18.6667V16C25.3333 15.2636 24.7364 14.6667 24 14.6667H14.6667V8H9.33333V14.6667H0Z" fill="white"/>
<path fill-rule="evenodd" clip-rule="evenodd" d="M0 16H10.6667V14.6667V8H13.3333V14.6667V16H24V18.6667H13.3333V20V26.6667H10.6667V20V18.6667H0V16Z" fill="#FF2E3B"/>
<path fill-rule="evenodd" clip-rule="evenodd" d="M39.9999 42.6667L38.1143 43.219L38.6666 41.3334L38.1143 39.4477L39.9999 40L41.8855 39.4477L41.3333 41.3334L41.8855 43.219L39.9999 42.6667Z" fill="#CA1931"/>
<path fill-rule="evenodd" clip-rule="evenodd" d="M39.9999 17.3333L38.1143 17.8856L38.6666 16L38.1143 14.1144L39.9999 14.6666L41.8855 14.1144L41.3333 16L41.8855 17.8856L39.9999 17.3333Z" fill="#CA1931"/>
<path fill-rule="evenodd" clip-rule="evenodd" d="M47.9999 25.3333L46.1143 25.8856L46.6666 24L46.1143 22.1144L47.9999 22.6666L49.8855 22.1144L49.3333 24L49.8855 25.8856L47.9999 25.3333Z" fill="#CA1931"/>
<path fill-rule="evenodd" clip-rule="evenodd" d="M31.9999 28L30.1143 28.5523L30.6666 26.6667L30.1143 24.781L31.9999 25.3333L33.8855 24.781L33.3333 26.6667L33.8855 28.5523L31.9999 28Z" fill="#CA1931"/>
</g>
</svg>
