<svg width="56" height="56" viewBox="0 0 56 56" fill="none" xmlns="http://www.w3.org/2000/svg">
<rect y="8" width="56" height="40" rx="4" fill="white"/>
<mask id="mask0_17_2662" style="mask-type:alpha" maskUnits="userSpaceOnUse" x="0" y="8" width="56" height="40">
<rect y="8" width="56" height="40" rx="4" fill="white"/>
</mask>
<g mask="url(#mask0_17_2662)">
<path fill-rule="evenodd" clip-rule="evenodd" d="M0 16H56V8H0V16Z" fill="#1461B6"/>
<path fill-rule="evenodd" clip-rule="evenodd" d="M0 48H56V40H0V48Z" fill="#1461B6"/>
<path fill-rule="evenodd" clip-rule="evenodd" d="M0 40H56V16H0V40Z" fill="white"/>
<path fill-rule="evenodd" clip-rule="evenodd" d="M0 37.3334H56V18.6667H0V37.3334Z" fill="#F53846"/>
<path fill-rule="evenodd" clip-rule="evenodd" d="M19.9999 34.6666C23.6818 34.6666 26.6666 31.6819 26.6666 28C26.6666 24.3181 23.6818 21.3333 19.9999 21.3333C16.318 21.3333 13.3333 24.3181 13.3333 28C13.3333 31.6819 16.318 34.6666 19.9999 34.6666ZM16.0814 33.3934L19.9999 30.6751L23.9185 33.3934L22.5441 28.8266L26.3403 25.9399L21.5723 25.8357L19.9999 21.3333L18.4275 25.8357L13.6595 25.9399L17.4557 28.8266L16.0814 33.3934Z" fill="white"/>
</g>
</svg>
