<svg width="56" height="56" viewBox="0 0 56 56" fill="none" xmlns="http://www.w3.org/2000/svg">
<rect x="0.5" y="8.5" width="55" height="39" rx="3.5" fill="white" stroke="#F5F5F5"/>
<mask id="mask0_17_2653" style="mask-type:alpha" maskUnits="userSpaceOnUse" x="0" y="8" width="56" height="40">
<rect x="0.5" y="8.5" width="55" height="39" rx="3.5" fill="white" stroke="white"/>
</mask>
<g mask="url(#mask0_17_2653)">
<path fill-rule="evenodd" clip-rule="evenodd" d="M0 48H56V34.6667H0V48Z" fill="#138E16"/>
<path fill-rule="evenodd" clip-rule="evenodd" d="M0 48H18.6667V34.6667H56V21.3333H18.6667V8H0V48Z" fill="#ED2B35"/>
<path fill-rule="evenodd" clip-rule="evenodd" d="M9.33333 17.4235L7.01929 20.8052L8.22038 16.8875L4.13372 17.1868L7.94551 15.6832L5.16357 12.6747L8.71569 14.7174L9.33333 10.6667L9.95097 14.7174L13.5031 12.6747L10.7212 15.6832L14.5329 17.1868L10.4463 16.8875L11.6474 20.8052L9.33333 17.4235Z" fill="white"/>
</g>
</svg>
