<svg width="56" height="56" viewBox="0 0 56 56" fill="none" xmlns="http://www.w3.org/2000/svg">
<rect x="0.5" y="8.5" width="55" height="39" rx="3.5" fill="white" stroke="#F5F5F5"/>
<mask id="mask0_17_2648" style="mask-type:alpha" maskUnits="userSpaceOnUse" x="0" y="8" width="56" height="40">
<rect x="0.5" y="8.5" width="55" height="39" rx="3.5" fill="white" stroke="white"/>
</mask>
<g mask="url(#mask0_17_2648)">
<path fill-rule="evenodd" clip-rule="evenodd" d="M56 8H16V48H56V8Z" fill="#0A632F"/>
<path fill-rule="evenodd" clip-rule="evenodd" d="M47.3403 29.5011C47.0836 32.0024 46.0175 34.4058 44.1331 36.2902C39.6414 40.7819 32.2011 40.6242 27.5148 35.9379C22.8285 31.2516 22.6708 23.8114 27.1625 19.3197C29.047 17.4352 31.4504 16.3691 33.9517 16.1125C33.1638 16.5768 32.418 17.1497 31.7372 17.8306C27.6538 21.914 27.4518 28.3325 31.2861 32.1667C35.1203 36.0009 41.5388 35.799 45.6222 31.7156C46.303 31.0347 46.876 30.289 47.3403 29.5011ZM42.1849 24.2094L41.5485 28.0063L39.7698 24.5919L35.9621 25.1599L38.6598 22.4132L36.9429 18.9674L40.3888 20.6842L43.1354 17.9866L42.5674 21.7943L45.9818 23.5729L42.1849 24.2094Z" fill="white"/>
</g>
</svg>
