<svg width="56" height="56" viewBox="0 0 56 56" fill="none" xmlns="http://www.w3.org/2000/svg">
<rect x="0.5" y="8.5" width="55" height="39" rx="3.5" fill="white" stroke="#F5F5F5"/>
<mask id="mask0_17_2640" style="mask-type:alpha" maskUnits="userSpaceOnUse" x="0" y="8" width="56" height="40">
<rect x="0.5" y="8.5" width="55" height="39" rx="3.5" fill="white" stroke="white"/>
</mask>
<g mask="url(#mask0_17_2640)">
<path fill-rule="evenodd" clip-rule="evenodd" d="M56.0001 26.6667H26.6667V8H56.0001V26.6667Z" fill="#E52448"/>
<path fill-rule="evenodd" clip-rule="evenodd" d="M26.6667 48H0V26.6667H26.6667V48Z" fill="#1367AE"/>
<path fill-rule="evenodd" clip-rule="evenodd" d="M13.3333 19.52L10.1985 21.6481L11.2537 18.0091L8.26103 15.6852L12.048 15.5643L13.3333 12L14.6186 15.5643L18.4056 15.6852L15.413 18.0091L16.4682 21.6481L13.3333 19.52Z" fill="#1367AE"/>
<path fill-rule="evenodd" clip-rule="evenodd" d="M41.3333 39.52L38.1985 41.6481L39.2537 38.0091L36.261 35.6852L40.048 35.5643L41.3333 32L42.6186 35.5643L46.4056 35.6852L43.413 38.0091L44.4682 41.6481L41.3333 39.52Z" fill="#E52448"/>
</g>
</svg>
