<svg width="56" height="56" viewBox="0 0 56 56" fill="none" xmlns="http://www.w3.org/2000/svg">
<rect y="8" width="56" height="40" rx="4" fill="white"/>
<mask id="mask0_17_2636" style="mask-type:alpha" maskUnits="userSpaceOnUse" x="0" y="8" width="56" height="40">
<rect y="8" width="56" height="40" rx="4" fill="white"/>
</mask>
<g mask="url(#mask0_17_2636)">
<rect y="8" width="56" height="40" fill="#262626"/>
<path fill-rule="evenodd" clip-rule="evenodd" d="M0 8H56V48L0 8Z" fill="#E8283F"/>
<path fill-rule="evenodd" clip-rule="evenodd" d="M13.3334 41.3333L11.4478 41.8856L12.0001 40L11.4478 38.1144L13.3334 38.6667L15.219 38.1144L14.6667 40L15.219 41.8856L13.3334 41.3333Z" fill="white"/>
<path fill-rule="evenodd" clip-rule="evenodd" d="M13.3334 25.3333L11.4478 25.8856L12.0001 24L11.4478 22.1144L13.3334 22.6667L15.219 22.1144L14.6667 24L15.219 25.8856L13.3334 25.3333Z" fill="white"/>
<path fill-rule="evenodd" clip-rule="evenodd" d="M6.66667 32L4.78105 32.5523L5.33333 30.6667L4.78105 28.781L6.66667 29.3333L8.55228 28.781L8 30.6667L8.55228 32.5523L6.66667 32Z" fill="white"/>
<path fill-rule="evenodd" clip-rule="evenodd" d="M18.6667 30.6667L16.781 31.219L17.3333 29.3333L16.781 27.4477L18.6667 28L20.5523 27.4477L20 29.3333L20.5523 31.219L18.6667 30.6667Z" fill="white"/>
<path fill-rule="evenodd" clip-rule="evenodd" d="M37.7226 26.5311C37.4033 26.3396 37.1445 25.8884 37.1445 25.5274L37.1445 23.07C37.1445 22.7072 36.8835 22.5001 36.4885 22.6318L34.9721 23.1372C34.6098 23.258 34.0551 23.2689 33.6601 23.1372L32.1437 22.6318C31.7814 22.511 31.7411 22.261 32.0657 22.0663L35.6237 19.9315C35.9429 19.7399 36.1147 19.3236 35.9831 18.9286L35.4776 17.4122C35.3568 17.0499 35.5199 16.8432 35.9149 16.9749L37.4313 17.4804C37.7936 17.6011 38.2394 17.4456 38.4342 17.121L40.569 13.563C40.7605 13.2438 41.0028 13.246 41.1344 13.641L41.6399 15.1574C41.7607 15.5197 41.7716 16.0744 41.6399 16.4694L41.1344 17.9858C41.0137 18.3481 41.2117 18.6418 41.5727 18.6418H44.0301C44.3929 18.6418 44.8391 18.8953 45.0338 19.2199L47.1686 22.7779C47.3602 23.0971 47.2061 23.4178 46.86 23.487L43.4569 24.1676C43.0949 24.24 42.7395 24.608 42.6703 24.9542L41.9897 28.3573C41.9173 28.7193 41.6051 28.8607 41.2805 28.6659L37.7226 26.5311Z" fill="#FFD84E"/>
</g>
</svg>
