<svg width="56" height="56" viewBox="0 0 56 56" fill="none" xmlns="http://www.w3.org/2000/svg">
<rect x="0.5" y="8.5" width="55" height="39" rx="3.5" fill="white" stroke="#F5F5F5"/>
<mask id="mask0_17_2624" style="mask-type:alpha" maskUnits="userSpaceOnUse" x="0" y="8" width="56" height="40">
<rect x="0.5" y="8.5" width="55" height="39" rx="3.5" fill="white" stroke="white"/>
</mask>
<g mask="url(#mask0_17_2624)">
<path fill-rule="evenodd" clip-rule="evenodd" d="M0 48H56V26.6667H24.8889L26.6667 28L0 48Z" fill="#DD1C34"/>
<path fill-rule="evenodd" clip-rule="evenodd" d="M56 26.6667H24.8889L0 8H56V26.6667Z" fill="#0D4BC3"/>
<path fill-rule="evenodd" clip-rule="evenodd" d="M5.33341 14.6667C5.33341 15.403 4.73646 16 4.00008 16C3.2637 16 2.66675 15.403 2.66675 14.6667C2.66675 13.9303 3.2637 13.3333 4.00008 13.3333C4.73646 13.3333 5.33341 13.9303 5.33341 14.6667ZM21.3334 28C21.3334 28.7364 20.7365 29.3333 20.0001 29.3333C19.2637 29.3333 18.6667 28.7364 18.6667 28C18.6667 27.2636 19.2637 26.6667 20.0001 26.6667C20.7365 26.6667 21.3334 27.2636 21.3334 28ZM4.00008 42.6667C4.73646 42.6667 5.33341 42.0697 5.33341 41.3333C5.33341 40.5969 4.73646 40 4.00008 40C3.2637 40 2.66675 40.5969 2.66675 41.3333C2.66675 42.0697 3.2637 42.6667 4.00008 42.6667ZM9.06423 30.6532L6.78219 34.1592L7.64765 30.0663C7.50838 29.9526 7.38083 29.825 7.26708 29.6858L3.17422 30.5512L6.68017 28.2692C6.67129 28.1807 6.66675 28.0909 6.66675 28C6.66675 27.9091 6.67129 27.8193 6.68017 27.7308L3.17422 25.4488L7.26708 26.3142C7.38083 26.175 7.50838 26.0474 7.64765 25.9337L6.78219 21.8408L9.06423 25.3467C9.15275 25.3379 9.24255 25.3333 9.33342 25.3333C9.42428 25.3333 9.51407 25.3379 9.6026 25.3467L11.8846 21.8408L11.0192 25.9337C11.1584 26.0474 11.286 26.175 11.3998 26.3142L15.4926 25.4488L11.9867 27.7308C11.9955 27.8193 12.0001 27.9091 12.0001 28C12.0001 28.0909 11.9955 28.1807 11.9867 28.2692L15.4926 30.5512L11.3998 29.6858C11.286 29.825 11.1584 29.9526 11.0192 30.0663L11.8846 34.1592L9.6026 30.6532C9.51407 30.6621 9.42428 30.6667 9.33342 30.6667C9.24255 30.6667 9.15275 30.6621 9.06423 30.6532Z" fill="#FDD64D"/>
</g>
</svg>
