<svg width="56" height="56" viewBox="0 0 56 56" fill="none" xmlns="http://www.w3.org/2000/svg">
<rect y="8" width="56" height="40" rx="4" fill="white"/>
<mask id="mask0_17_2598" style="mask-type:alpha" maskUnits="userSpaceOnUse" x="0" y="8" width="56" height="40">
<rect y="8" width="56" height="40" rx="4" fill="white"/>
</mask>
<g mask="url(#mask0_17_2598)">
<g filter="url(#filter0_d_17_2598)">
<path fill-rule="evenodd" clip-rule="evenodd" d="M0 48H56V37.3333H0V48Z" fill="#2D754D"/>
</g>
<path fill-rule="evenodd" clip-rule="evenodd" d="M0 26.6667H56V8H0V26.6667Z" fill="#25B1EB"/>
<path fill-rule="evenodd" clip-rule="evenodd" d="M0 37.3334H56V26.6667H0V37.3334Z" fill="#FECB2F"/>
<path fill-rule="evenodd" clip-rule="evenodd" d="M42.6666 20L40.6256 22.2607L40.781 19.219L37.7392 19.3743L39.9999 17.3333L37.7392 15.2924L40.781 15.4477L40.6256 12.406L42.6666 14.6667L44.7076 12.406L44.5522 15.4477L47.5939 15.2924L45.3333 17.3333L47.5939 19.3743L44.5522 19.219L44.7076 22.2607L42.6666 20Z" fill="#FECB2F"/>
</g>
<defs>
<filter id="filter0_d_17_2598" x="0" y="37.3333" width="56" height="10.6667" filterUnits="userSpaceOnUse" color-interpolation-filters="sRGB">
<feFlood flood-opacity="0" result="BackgroundImageFix"/>
<feColorMatrix in="SourceAlpha" type="matrix" values="0 0 0 0 0 0 0 0 0 0 0 0 0 0 0 0 0 0 127 0" result="hardAlpha"/>
<feOffset/>
<feColorMatrix type="matrix" values="0 0 0 0 0 0 0 0 0 0 0 0 0 0 0 0 0 0 0.06 0"/>
<feBlend mode="normal" in2="BackgroundImageFix" result="effect1_dropShadow_17_2598"/>
<feBlend mode="normal" in="SourceGraphic" in2="effect1_dropShadow_17_2598" result="shape"/>
</filter>
</defs>
</svg>
