<svg width="56" height="56" viewBox="0 0 56 56" fill="none" xmlns="http://www.w3.org/2000/svg">
<rect y="8" width="56" height="40" rx="4" fill="white"/>
<mask id="mask0_17_2581" style="mask-type:alpha" maskUnits="userSpaceOnUse" x="0" y="8" width="56" height="40">
<rect y="8" width="56" height="40" rx="4" fill="white"/>
</mask>
<g mask="url(#mask0_17_2581)">
<rect y="8" width="56" height="40" fill="#E31F37"/>
<path fill-rule="evenodd" clip-rule="evenodd" d="M-2.66675 29.3333H29.3333V5.33331H-2.66675V29.3333Z" fill="#083B9A"/>
<path fill-rule="evenodd" clip-rule="evenodd" d="M13.3335 13.3333L11.4478 13.8856L12.0001 12L11.4478 10.1144L13.3335 10.6667L15.2191 10.1144L14.6668 12L15.2191 13.8856L13.3335 13.3333ZM13.3335 26.6667L11.4478 27.219L12.0001 25.3333L11.4478 23.4477L13.3335 24L15.2191 23.4477L14.6668 25.3333L15.2191 27.219L13.3335 26.6667ZM6.1145 20.5523L8.00012 20L9.88574 20.5523L9.33345 18.6667L9.88574 16.781L8.00012 17.3333L6.1145 16.781L6.66679 18.6667L6.1145 20.5523ZM20.0001 18.6667L18.1145 19.2189L18.6668 17.3333L18.1145 15.4477L20.0001 16L21.8857 15.4477L21.3335 17.3333L21.8857 19.2189L20.0001 18.6667ZM16.6668 22.6667C17.035 22.6667 17.3335 22.3682 17.3335 22C17.3335 21.6318 17.035 21.3333 16.6668 21.3333C16.2986 21.3333 16.0001 21.6318 16.0001 22C16.0001 22.3682 16.2986 22.6667 16.6668 22.6667Z" fill="white"/>
</g>
</svg>
