<svg width="56" height="56" viewBox="0 0 56 56" fill="none" xmlns="http://www.w3.org/2000/svg">
<rect x="0.5" y="8.5" width="55" height="39" rx="3.5" fill="white" stroke="#F5F5F5"/>
<mask id="mask0_17_2577" style="mask-type:alpha" maskUnits="userSpaceOnUse" x="0" y="8" width="56" height="40">
<rect x="0.5" y="8.5" width="55" height="39" rx="3.5" fill="white" stroke="white"/>
</mask>
<g mask="url(#mask0_17_2577)">
<path fill-rule="evenodd" clip-rule="evenodd" d="M0 48H56V26.6667H0V48Z" fill="#7CCCF5"/>
<path d="M25.9963 30.1297L26.6655 28.9764L25.9963 30.1297ZM26.4804 31.9521L27.6337 32.6213L27.6337 32.6213L26.4804 31.9521ZM24.658 32.4362L25.3271 31.2829H25.3271L24.658 32.4362ZM31.588 32.2862L32.3064 33.4094L31.588 32.2862ZM29.7464 31.8813L28.6231 32.5997H28.6231L29.7464 31.8813ZM30.1512 30.0397L30.8696 31.1629L30.1512 30.0397ZM25.3333 26.6666C25.3333 25.1939 24.1393 24 22.6666 24V26.6666H25.3333ZM26.6655 28.9764C25.8638 28.5112 25.3333 27.6498 25.3333 26.6666H22.6666C22.6666 28.6375 23.7357 30.3595 25.3271 31.2829L26.6655 28.9764ZM27.6337 32.6213C28.3728 31.3474 27.9393 29.7156 26.6655 28.9764L25.3271 31.2829L25.3271 31.2829L27.6337 32.6213ZM23.9888 33.5894C25.2627 34.3286 26.8945 33.8951 27.6337 32.6213L25.3271 31.2829L23.9888 33.5894ZM19.9999 26.6666C19.9999 29.6278 21.61 32.2092 23.9888 33.5894L25.3271 31.2829C23.736 30.3597 22.6666 28.6378 22.6666 26.6666H19.9999ZM22.6666 24C21.1938 24 19.9999 25.1939 19.9999 26.6666H22.6666V24ZM35.9999 26.6666C35.9999 25.1939 34.806 24 33.3333 24V26.6666H35.9999ZM32.3064 33.4094C34.5215 31.9927 35.9999 29.5035 35.9999 26.6666H33.3333C33.3333 28.5553 32.3515 30.2152 30.8696 31.1629L32.3064 33.4094ZM28.6231 32.5997C29.4166 33.8404 31.0657 34.2029 32.3064 33.4094L30.8696 31.1629V31.1629L28.6231 32.5997ZM29.4328 28.9164C28.1921 29.7099 27.8296 31.359 28.6231 32.5997L30.8696 31.1629L29.4328 28.9164ZM30.6666 26.6666C30.6666 27.609 30.1799 28.4386 29.4328 28.9164L30.8696 31.1629C32.3517 30.215 33.3333 28.5551 33.3333 26.6666H30.6666ZM33.3333 24C31.8605 24 30.6666 25.1939 30.6666 26.6666H33.3333V24Z" fill="#445F42"/>
<ellipse cx="27.9999" cy="25.3333" rx="2.66667" ry="4" fill="#D89F3D"/>
</g>
</svg>
