<svg width="56" height="56" viewBox="0 0 56 56" fill="none" xmlns="http://www.w3.org/2000/svg">
<rect y="8" width="56" height="40" rx="4" fill="white"/>
<mask id="mask0_17_2569" style="mask-type:alpha" maskUnits="userSpaceOnUse" x="0" y="8" width="56" height="40">
<rect y="8" width="56" height="40" rx="4" fill="white"/>
</mask>
<g mask="url(#mask0_17_2569)">
<rect y="8" width="56" height="40" fill="#128C4B"/>
<path fill-rule="evenodd" clip-rule="evenodd" d="M13.3333 32H34.6666V30.1574C34.6666 29.1662 35.7097 28.5215 36.5962 28.9648L37.3333 29.3333V32H41.3333C42.0696 32 42.6666 32.597 42.6666 33.3333V34.6667C42.6666 36.1394 41.4727 37.3333 39.9999 37.3333H35.9999C35.2635 37.3333 34.6666 36.7364 34.6666 36V34.6667H16.5522C16.1986 34.6667 15.8594 34.5262 15.6094 34.2761L13.3333 32Z" fill="white"/>
<path fill-rule="evenodd" clip-rule="evenodd" d="M13.3333 24.2762C13.3333 24.0994 13.4035 23.9298 13.5285 23.8048L14.1952 23.1381C14.4555 22.8777 14.4555 22.4556 14.1952 22.1953L13.5285 21.5286C13.4035 21.4036 13.3333 21.234 13.3333 21.0572V19.3334C13.3333 18.9652 13.6317 18.6667 13.9999 18.6667H15.4906C15.7719 18.6667 15.9999 18.8947 15.9999 19.176C15.9999 19.7134 16.7244 19.8844 16.9647 19.4037L17.1635 19.0062C17.2675 18.7981 17.4802 18.6667 17.7129 18.6667H20.6666C21.0348 18.6667 21.3333 18.9652 21.3333 19.3334C21.3333 19.7015 21.0348 20 20.6666 20H19.3333C18.9651 20 18.6666 20.2985 18.6666 20.6667C18.6666 21.0349 18.9651 21.3334 19.3333 21.3334H20.6666C21.0348 21.3334 21.3333 21.6318 21.3333 22V26C21.3333 26.3682 21.0348 26.6667 20.6666 26.6667H19.3333C18.9651 26.6667 18.6666 26.3682 18.6666 26V24.6667C18.6666 24.2985 18.9651 24 19.3333 24C19.7014 24 19.9999 23.7015 19.9999 23.3334C19.9999 22.9652 19.7014 22.6667 19.3333 22.6667H17.9999C17.6317 22.6667 17.3333 22.9652 17.3333 23.3334V26C17.3333 26.3682 17.0348 26.6667 16.6666 26.6667C16.2984 26.6667 15.9999 26.3682 15.9999 26V24.6667C15.9999 24.2985 15.7014 24 15.3333 24C14.9651 24 14.6666 24.2985 14.6666 24.6667V26C14.6666 26.3682 14.3681 26.6667 13.9999 26.6667C13.6317 26.6667 13.3333 26.3682 13.3333 26V24.2762Z" fill="white"/>
<path fill-rule="evenodd" clip-rule="evenodd" d="M34.6667 24.2762C34.6667 24.0994 34.737 23.9298 34.862 23.8048L35.5287 23.1381C35.789 22.8777 35.789 22.4556 35.5287 22.1953L34.862 21.5286C34.737 21.4036 34.6667 21.234 34.6667 21.0572V19.3334C34.6667 18.9652 34.9652 18.6667 35.3334 18.6667H36.8241C37.1054 18.6667 37.3334 18.8947 37.3334 19.176C37.3334 19.7134 38.0579 19.8844 38.2982 19.4037L38.497 19.0062C38.601 18.7981 38.8137 18.6667 39.0463 18.6667H42.0001C42.3683 18.6667 42.6667 18.9652 42.6667 19.3334C42.6667 19.7015 42.3683 20 42.0001 20H40.6667C40.2986 20 40.0001 20.2985 40.0001 20.6667C40.0001 21.0349 40.2986 21.3334 40.6667 21.3334H42.0001C42.3683 21.3334 42.6667 21.6318 42.6667 22V26C42.6667 26.3682 42.3683 26.6667 42.0001 26.6667H40.6667C40.2986 26.6667 40.0001 26.3682 40.0001 26V24.6667C40.0001 24.2985 40.2986 24 40.6667 24C41.0349 24 41.3334 23.7015 41.3334 23.3334C41.3334 22.9652 41.0349 22.6667 40.6667 22.6667H39.3334C38.9652 22.6667 38.6667 22.9652 38.6667 23.3334V26C38.6667 26.3682 38.3683 26.6667 38.0001 26.6667C37.6319 26.6667 37.3334 26.3682 37.3334 26V24.6667C37.3334 24.2985 37.0349 24 36.6667 24C36.2986 24 36.0001 24.2985 36.0001 24.6667V26C36.0001 26.3682 35.7016 26.6667 35.3334 26.6667C34.9652 26.6667 34.6667 26.3682 34.6667 26V24.2762Z" fill="white"/>
<path fill-rule="evenodd" clip-rule="evenodd" d="M32 20.6604C32 21.0321 31.7917 21.5417 31.5186 21.8147L31.148 22.1853C30.8822 22.4512 30.875 22.875 31.148 23.1481L31.5186 23.5187C31.7845 23.7845 32 24.2854 32 24.6729V25.9938C32 26.3654 31.7146 26.6667 31.3271 26.6667H30.0062C29.6346 26.6667 29.3333 26.3813 29.3333 25.9938V24.6729C29.3333 24.3013 29.2103 24.2461 29.0241 24.6185L28.3092 26.0482C28.1385 26.3898 27.6861 26.6667 27.3395 26.6667H24.6605C24.2957 26.6667 24 26.3574 24 26C24 25.6318 24.2854 25.3334 24.6729 25.3334H25.9938C26.3654 25.3334 26.6667 25.0241 26.6667 24.6667C26.6667 24.2985 26.3813 24 25.9938 24H24.6729C24.3013 24 24 23.7133 24 23.346V19.3207C24 18.9595 24.2854 18.6667 24.6729 18.6667H25.9938C26.3654 18.6667 26.6667 18.9521 26.6667 19.3396V20.6604C26.6667 21.0321 26.3574 21.3334 26 21.3334C25.6318 21.3334 25.3333 21.6426 25.3333 22C25.3333 22.3682 25.6187 22.6667 26.0062 22.6667H27.3271C27.6987 22.6667 28 22.3528 28 22.0062V19.3272C28 18.9624 28.3092 18.6667 28.6667 18.6667C29.0349 18.6667 29.3333 18.9521 29.3333 19.3396V20.6604C29.3333 21.0321 29.6426 21.3334 30 21.3334C30.3682 21.3334 30.6667 21.048 30.6667 20.6604V19.3396C30.6667 18.968 30.9759 18.6667 31.3333 18.6667C31.7015 18.6667 32 18.9521 32 19.3396V20.6604Z" fill="white"/>
</g>
</svg>
