<svg width="56" height="56" viewBox="0 0 56 56" fill="none" xmlns="http://www.w3.org/2000/svg">
<rect x="0.5" y="8.5" width="55" height="39" rx="3.5" fill="white" stroke="#F5F5F5"/>
<mask id="mask0_17_2549" style="mask-type:alpha" maskUnits="userSpaceOnUse" x="0" y="8" width="56" height="40">
<rect x="0.5" y="8.5" width="55" height="39" rx="3.5" fill="white" stroke="white"/>
</mask>
<g mask="url(#mask0_17_2549)">
<path fill-rule="evenodd" clip-rule="evenodd" d="M0 29.3333H56V8H0V29.3333Z" fill="#E12237"/>
<path fill-rule="evenodd" clip-rule="evenodd" d="M15.9999 12C16.8194 12 17.6044 12.1479 18.3296 12.4184C16.9606 11.3222 15.2235 10.6667 13.3333 10.6667C8.91497 10.6667 5.33325 14.2484 5.33325 18.6667C5.33325 23.0849 8.91497 26.6667 13.3333 26.6667C15.2235 26.6667 16.9606 26.0111 18.3296 24.9149C17.6044 25.1855 16.8194 25.3333 15.9999 25.3333C12.318 25.3333 9.33325 22.3486 9.33325 18.6667C9.33325 14.9848 12.318 12 15.9999 12ZM14.6666 18.6667C15.403 18.6667 15.9999 18.0697 15.9999 17.3333C15.9999 16.5969 15.403 16 14.6666 16C13.9302 16 13.3333 16.5969 13.3333 17.3333C13.3333 18.0697 13.9302 18.6667 14.6666 18.6667ZM18.6666 22.6667C18.6666 23.403 18.0696 24 17.3333 24C16.5969 24 15.9999 23.403 15.9999 22.6667C15.9999 21.9303 16.5969 21.3333 17.3333 21.3333C18.0696 21.3333 18.6666 21.9303 18.6666 22.6667ZM22.6666 24C23.403 24 23.9999 23.403 23.9999 22.6667C23.9999 21.9303 23.403 21.3333 22.6666 21.3333C21.9302 21.3333 21.3333 21.9303 21.3333 22.6667C21.3333 23.403 21.9302 24 22.6666 24ZM26.6666 17.3333C26.6666 18.0697 26.0696 18.6667 25.3333 18.6667C24.5969 18.6667 23.9999 18.0697 23.9999 17.3333C23.9999 16.5969 24.5969 16 25.3333 16C26.0696 16 26.6666 16.5969 26.6666 17.3333ZM19.9999 14.6667C20.7363 14.6667 21.3333 14.0697 21.3333 13.3333C21.3333 12.5969 20.7363 12 19.9999 12C19.2635 12 18.6666 12.5969 18.6666 13.3333C18.6666 14.0697 19.2635 14.6667 19.9999 14.6667Z" fill="white"/>
</g>
</svg>
