<svg width="56" height="56" viewBox="0 0 56 56" fill="none" xmlns="http://www.w3.org/2000/svg">
<rect x="0.5" y="8.5" width="55" height="39" rx="3.5" fill="white" stroke="#F5F5F5"/>
<mask id="mask0_17_2545" style="mask-type:alpha" maskUnits="userSpaceOnUse" x="0" y="8" width="56" height="40">
<rect x="0.5" y="8.5" width="55" height="39" rx="3.5" fill="white" stroke="white"/>
</mask>
<g mask="url(#mask0_17_2545)">
<path fill-rule="evenodd" clip-rule="evenodd" d="M0 34.6667H56V21.3333H0V34.6667Z" fill="#0C47B7"/>
<path fill-rule="evenodd" clip-rule="evenodd" d="M0 48H56V34.6667H0V48Z" fill="#E53B35"/>
<path d="M13.8993 14.6667C11.75 14.6667 9.98486 16.3652 9.90226 18.5129L9.38376 31.9939C9.33681 33.2145 9.85018 34.3897 10.7776 35.1846L16.529 40.1144C18.5263 41.8263 21.4735 41.8263 23.4708 40.1144L29.2221 35.1846C30.1496 34.3897 30.663 33.2145 30.616 31.9939L30.0975 18.5129C30.0149 16.3652 28.2498 14.6667 26.1005 14.6667H13.8993Z" fill="#F73744" stroke="white" stroke-width="2.66667"/>
<mask id="mask1_17_2545" style="mask-type:alpha" maskUnits="userSpaceOnUse" x="8" y="13" width="24" height="30">
<path d="M13.8993 14.6667C11.75 14.6667 9.98486 16.3652 9.90226 18.5129L9.38376 31.9939C9.33681 33.2145 9.85018 34.3897 10.7776 35.1846L16.529 40.1144C18.5263 41.8263 21.4735 41.8263 23.4708 40.1144L29.2221 35.1846C30.1496 34.3897 30.663 33.2145 30.616 31.9939L30.0975 18.5129C30.0149 16.3652 28.2498 14.6667 26.1005 14.6667H13.8993Z" fill="white" stroke="white" stroke-width="2.66667"/>
</mask>
<g mask="url(#mask1_17_2545)">
<path fill-rule="evenodd" clip-rule="evenodd" d="M18.6665 30C18.6665 29.6318 18.368 29.3333 17.9998 29.3333H15.3332C14.965 29.3333 14.6665 29.0349 14.6665 28.6667V27.3333C14.6665 26.9651 14.965 26.6667 15.3332 26.6667H17.9998C18.368 26.6667 18.6665 26.3682 18.6665 26V24.6667C18.6665 24.2985 18.368 24 17.9998 24H16.6665C16.2983 24 15.9998 23.7015 15.9998 23.3333V22C15.9998 21.6318 16.2983 21.3333 16.6665 21.3333H17.9998C18.368 21.3333 18.6665 21.0349 18.6665 20.6667V19.3333C18.6665 18.9651 18.965 18.6667 19.3332 18.6667H20.6665C21.0347 18.6667 21.3332 18.9651 21.3332 19.3333V20.6667C21.3332 21.0349 21.6316 21.3333 21.9998 21.3333H23.3332C23.7014 21.3333 23.9998 21.6318 23.9998 22V23.3333C23.9998 23.7015 23.7014 24 23.3332 24H21.9998C21.6316 24 21.3332 24.2985 21.3332 24.6667V26C21.3332 26.3682 21.6316 26.6667 21.9998 26.6667H24.6665C25.0347 26.6667 25.3332 26.9651 25.3332 27.3333V28.6667C25.3332 29.0349 25.0347 29.3333 24.6665 29.3333H21.9998C21.6316 29.3333 21.3332 29.6318 21.3332 30V34C21.3332 34.3682 21.0347 34.6667 20.6665 34.6667H19.3332C18.965 34.6667 18.6665 34.3682 18.6665 34V30Z" fill="white"/>
<path fill-rule="evenodd" clip-rule="evenodd" d="M17.5929 34.8509C18.0222 33.9533 18.9387 33.3333 20 33.3333C21.0613 33.3333 21.9778 33.9533 22.4071 34.8509C25.6491 35.3617 28 36.8769 28 38.6667C28 40.8758 24.4183 42.6667 20 42.6667C15.5817 42.6667 12 40.8758 12 38.6667C12 36.8769 14.3509 35.3617 17.5929 34.8509Z" fill="#1251A1"/>
</g>
</g>
</svg>
