<svg width="56" height="56" viewBox="0 0 56 56" fill="none" xmlns="http://www.w3.org/2000/svg">
<rect y="8" width="56" height="40" rx="4" fill="white"/>
<mask id="mask0_17_2541" style="mask-type:alpha" maskUnits="userSpaceOnUse" x="0" y="8" width="56" height="40">
<rect y="8" width="56" height="40" rx="4" fill="white"/>
</mask>
<g mask="url(#mask0_17_2541)">
<rect y="8" width="56" height="40" fill="url(#paint0_linear_17_2541)"/>
<g filter="url(#filter0_d_17_2541)">
<path fill-rule="evenodd" clip-rule="evenodd" d="M0 8H56L0 48V8Z" fill="url(#paint1_linear_17_2541)"/>
</g>
<path fill-rule="evenodd" clip-rule="evenodd" d="M56 8L0 48H56V8Z" fill="#2C7442"/>
<rect x="-5.54736" y="47.4114" width="67.0946" height="47.6658" transform="rotate(-34 -5.54736 47.4114)" fill="#FFD646"/>
<path fill-rule="evenodd" clip-rule="evenodd" d="M4.04074 16.6967L4.41493 14.515L2.82983 12.9699L5.02038 12.6516L6.00002 10.6667L6.97966 12.6516L9.17021 12.9699L7.58512 14.515L7.95931 16.6967L6.00002 15.6667L4.04074 16.6967ZM17.3741 16.6967L17.7483 14.515L16.1632 12.9699L18.3537 12.6516L19.3334 10.6667L20.313 12.6516L22.5035 12.9699L20.9184 14.515L21.2926 16.6967L19.3334 15.6667L17.3741 16.6967ZM17.7483 22.515L17.3741 24.6967L19.3334 23.6667L21.2926 24.6967L20.9184 22.515L22.5035 20.9699L20.313 20.6516L19.3334 18.6667L18.3537 20.6516L16.1632 20.9699L17.7483 22.515ZM6.00002 23.6667L4.04074 24.6967L4.41493 22.515L2.82983 20.9699L5.02038 20.6516L6.00002 18.6667L6.97966 20.6516L9.17021 20.9699L7.58512 22.515L7.95931 24.6967L6.00002 23.6667ZM10.7074 20.6967L12.6667 19.6667L14.626 20.6967L14.2518 18.515L15.8369 16.9699L13.6463 16.6516L12.6667 14.6667L11.687 16.6516L9.4965 16.9699L11.0816 18.515L10.7074 20.6967Z" fill="white"/>
</g>
<defs>
<filter id="filter0_d_17_2541" x="0" y="8" width="56" height="40" filterUnits="userSpaceOnUse" color-interpolation-filters="sRGB">
<feFlood flood-opacity="0" result="BackgroundImageFix"/>
<feColorMatrix in="SourceAlpha" type="matrix" values="0 0 0 0 0 0 0 0 0 0 0 0 0 0 0 0 0 0 127 0" result="hardAlpha"/>
<feOffset/>
<feColorMatrix type="matrix" values="0 0 0 0 0 0 0 0 0 0 0 0 0 0 0 0 0 0 0.06 0"/>
<feBlend mode="normal" in2="BackgroundImageFix" result="effect1_dropShadow_17_2541"/>
<feBlend mode="normal" in="SourceGraphic" in2="effect1_dropShadow_17_2541" result="shape"/>
</filter>
<linearGradient id="paint0_linear_17_2541" x1="0" y1="8" x2="0" y2="48" gradientUnits="userSpaceOnUse">
<stop stop-color="#1DBE4F"/>
<stop offset="1" stop-color="#159B3F"/>
</linearGradient>
<linearGradient id="paint1_linear_17_2541" x1="0" y1="8" x2="0" y2="48" gradientUnits="userSpaceOnUse">
<stop stop-color="#0660D4"/>
<stop offset="1" stop-color="#0051BB"/>
</linearGradient>
</defs>
</svg>
