<svg width="56" height="56" viewBox="0 0 56 56" fill="none" xmlns="http://www.w3.org/2000/svg">
<rect x="0.5" y="8.5" width="55" height="39" rx="3.5" fill="white" stroke="#F5F5F5"/>
<mask id="mask0_17_2529" style="mask-type:alpha" maskUnits="userSpaceOnUse" x="0" y="8" width="56" height="40">
<rect x="0.5" y="8.5" width="55" height="39" rx="3.5" fill="white" stroke="white"/>
</mask>
<g mask="url(#mask0_17_2529)">
<circle cx="28.0001" cy="28" r="9.33333" fill="#E01B41"/>
<mask id="mask1_17_2529" style="mask-type:alpha" maskUnits="userSpaceOnUse" x="18" y="18" width="20" height="20">
<circle cx="28.0001" cy="28" r="9.33333" fill="white"/>
</mask>
<g mask="url(#mask1_17_2529)">
<path fill-rule="evenodd" clip-rule="evenodd" d="M18.6666 29.3333C21.3333 31.8333 25.3333 33.3333 28 29.3333C30.6666 25.3333 36 25.3333 37.3333 29.3333C38.6666 33.3333 37.3333 37.3333 37.3333 37.3333H18.6666C18.6666 37.3333 16 26.8333 18.6666 29.3333Z" fill="#0E4B9C"/>
</g>
<path opacity="0.75" fill-rule="evenodd" clip-rule="evenodd" d="M12.3461 15.1132C12.5302 14.7944 12.9379 14.6851 13.2568 14.8692L14.4115 15.5359C14.7303 15.72 14.8396 16.1277 14.6555 16.4466L11.3222 22.2201C11.1381 22.5389 10.7303 22.6482 10.4115 22.4641L9.25679 21.7974C8.93792 21.6133 8.82867 21.2056 9.01277 20.8868L12.3461 15.1132ZM41.5884 15.5359C41.2695 15.72 41.1603 16.1277 41.3444 16.4466L44.6777 22.2201C44.8618 22.5389 45.2695 22.6482 45.5884 22.4641L46.7431 21.7974C47.062 21.6133 47.1712 21.2056 46.9871 20.8868L43.6538 15.1132C43.4697 14.7944 43.062 14.6851 42.7431 14.8692L41.5884 15.5359ZM38.1243 17.5359C37.8054 17.72 37.6962 18.1277 37.8803 18.4466L41.2136 24.2201C41.3977 24.5389 41.8054 24.6482 42.1243 24.4641L43.279 23.7974C43.5979 23.6133 43.7071 23.2056 43.523 22.8868L40.1897 17.1132C40.0056 16.7944 39.5979 16.6851 39.279 16.8692L38.1243 17.5359ZM9.01277 35.1132C8.82867 34.7944 8.93792 34.3867 9.25678 34.2026L10.4115 33.5359C10.7303 33.3518 11.1381 33.4611 11.3222 33.7799L14.6555 39.5534C14.8396 39.8723 14.7303 40.28 14.4115 40.4641L13.2568 41.1308C12.9379 41.3149 12.5302 41.2056 12.3461 40.8868L9.01277 35.1132ZM12.7209 32.2026C12.402 32.3867 12.2928 32.7944 12.4769 33.1132L15.8102 38.8868C15.9943 39.2056 16.402 39.3149 16.7209 39.1308L17.8756 38.4641C18.1944 38.28 18.3037 37.8723 18.1196 37.5534L14.7863 31.7799C14.6022 31.4611 14.1944 31.3518 13.8756 31.5359L12.7209 32.2026ZM41.2136 31.7799C41.3977 31.4611 41.8054 31.3518 42.1243 31.5359L43.279 32.2026C43.5979 32.3867 43.7071 32.7944 43.523 33.1133L40.1897 38.8868C40.0056 39.2056 39.5979 39.3149 39.279 39.1308L38.1243 38.4641C37.8054 38.28 37.6962 37.8723 37.8803 37.5534L41.2136 31.7799ZM45.5884 33.5359C45.2695 33.3518 44.8618 33.4611 44.6777 33.7799L41.3444 39.5534C41.1603 39.8723 41.2695 40.28 41.5884 40.4641L42.7431 41.1308C43.062 41.3149 43.4697 41.2056 43.6538 40.8868L46.9871 35.1133C47.1712 34.7944 47.062 34.3867 46.7431 34.2026L45.5884 33.5359ZM16.7209 16.8692C16.402 16.6851 15.9943 16.7944 15.8102 17.1132L12.4769 22.8868C12.2928 23.2056 12.402 23.6133 12.7209 23.7974L13.8756 24.4641C14.1944 24.6482 14.6022 24.5389 14.7863 24.2201L18.1196 18.4466C18.3037 18.1277 18.1944 17.72 17.8756 17.5359L16.7209 16.8692Z" fill="#262626"/>
</g>
</svg>
