<svg width="56" height="56" viewBox="0 0 56 56" fill="none" xmlns="http://www.w3.org/2000/svg">
<rect y="8" width="56" height="40" rx="4" fill="#06A86E"/>
<mask id="mask0_17_2525" style="mask-type:alpha" maskUnits="userSpaceOnUse" x="0" y="8" width="56" height="40">
<rect y="8" width="56" height="40" rx="4" fill="white"/>
</mask>
<g mask="url(#mask0_17_2525)">
<rect x="-6" y="8" width="68" height="40" fill="#003893"/>
<rect x="-6" y="28" width="68" height="10" fill="white"/>
<rect x="-6" y="31.3333" width="68" height="3.33333" fill="#CF2027"/>
<path d="M19.6475 21L18.9439 23.038L20.0266 23.3691" fill="#F7D116"/>
<path d="M19.9276 21L20.7935 23.038L19.461 23.3691" fill="#F7D116"/>
<path d="M21.6265 22.4379L19.4708 22.3985L19.4905 23.5305" fill="#F7D116"/>
<path d="M21.713 22.7044L20.0424 24.1577L19.3157 22.9927" fill="#F7D116"/>
<path d="M20.8707 24.7645L20.242 22.7022L19.1715 23.0707" fill="#F7D116"/>
<path d="M20.6438 24.9292L18.7454 23.7894L19.6288 22.7383" fill="#F7D116"/>
<path d="M18.4245 24.7645L20.1916 23.5293L19.5103 22.625" fill="#F7D116"/>
<path d="M18.1976 24.5998L18.695 22.442L19.9676 22.9574" fill="#F7D116"/>
<path d="M17.6684 22.4379L19.3892 23.7368L20.0387 22.8094" fill="#F7D116"/>
<path d="M17.7549 22.1714L19.9607 21.9776L19.8639 23.3472" fill="#F7D116"/>
<path d="M19.6475 41L18.9439 43.038L20.0266 43.3691" fill="#F7D116"/>
<path d="M19.9276 41L20.7935 43.038L19.461 43.3691" fill="#F7D116"/>
<path d="M21.6265 42.4379L19.4708 42.3985L19.4905 43.5305" fill="#F7D116"/>
<path d="M21.713 42.7044L20.0424 44.1577L19.3157 42.9927" fill="#F7D116"/>
<path d="M20.8707 44.7645L20.242 42.7022L19.1715 43.0707" fill="#F7D116"/>
<path d="M20.6438 44.9292L18.7454 43.7894L19.6288 42.7383" fill="#F7D116"/>
<path d="M18.4245 44.7645L20.1916 43.5293L19.5103 42.625" fill="#F7D116"/>
<path d="M18.1976 44.5998L18.695 42.442L19.9676 42.9574" fill="#F7D116"/>
<path d="M17.6684 42.4379L19.3892 43.7368L20.0387 42.8094" fill="#F7D116"/>
<path d="M17.7549 42.1714L19.9607 41.9776L19.8639 43.3472" fill="#F7D116"/>
<path d="M30.9583 29.4322L28.8026 29.3928L28.8223 30.5248" fill="#F7D116"/>
<path d="M31.0448 29.6987L29.3742 31.152L28.6475 29.987" fill="#F7D116"/>
<path d="M30.2025 31.7588L29.5738 29.6964L28.5033 30.065" fill="#F7D116"/>
<path d="M29.9756 31.9235L28.0772 30.7837L28.9606 29.7326" fill="#F7D116"/>
<path d="M27.756 31.7587L29.5231 30.5235L28.8418 29.6193" fill="#F7D116"/>
<path d="M27.5292 31.594L28.0265 29.4363L29.2991 29.9517" fill="#F7D116"/>
<path d="M26.9999 29.4322L28.7208 30.7311L29.3702 29.8037" fill="#F7D116"/>
<path d="M27.0865 29.1657L29.2923 28.9719L29.1954 30.3415" fill="#F7D116"/>
<path d="M28.979 27.9943L28.2754 30.0322L29.3581 30.3633" fill="#F7D116"/>
<path d="M29.2592 27.9943L30.1251 30.0323L28.7926 30.3633" fill="#F7D116"/>
<path d="M11.937 35.6125L9.78138 35.5732L9.80106 36.7052" fill="#F7D116"/>
<path d="M12.0236 35.879L10.3529 37.3323L9.62629 36.1673" fill="#F7D116"/>
<path d="M11.1813 37.9391L10.5526 35.8768L9.48207 36.2453" fill="#F7D116"/>
<path d="M10.9544 38.1038L9.05595 36.964L9.93938 35.9129" fill="#F7D116"/>
<path d="M8.73478 37.9391L10.5019 36.7039L9.82057 35.7996" fill="#F7D116"/>
<path d="M8.50792 37.7744L9.00526 35.6166L10.2779 36.132" fill="#F7D116"/>
<path d="M7.9787 35.6125L9.69952 36.9114L10.349 35.9841" fill="#F7D116"/>
<path d="M8.06523 35.346L10.2711 35.1522L10.1742 36.5219" fill="#F7D116"/>
<path d="M9.95777 34.1746L9.2542 36.2126L10.3369 36.5437" fill="#F7D116"/>
<path d="M10.2379 34.1746L11.1038 36.2126L9.77132 36.5437" fill="#F7D116"/>
<path d="M26.434 42.795L25.8053 40.7327L24.7348 41.1012" fill="#F7D116"/>
<path d="M26.2071 42.9597L24.3086 41.8199L25.1921 40.7688" fill="#F7D116"/>
<path d="M23.9877 42.795L25.7548 41.5597L25.0735 40.6555" fill="#F7D116"/>
<path d="M23.7608 42.6303L24.2582 40.4725L25.5308 40.9879" fill="#F7D116"/>
<path d="M23.2316 40.4684L24.9524 41.7673L25.6019 40.8399" fill="#F7D116"/>
<path d="M23.3182 40.2019L25.524 40.0081L25.4271 41.3777" fill="#F7D116"/>
<path d="M25.2107 39.0305L24.5071 41.0685L25.5898 41.3996" fill="#F7D116"/>
<path d="M25.4909 39.0305L26.3568 41.0685L25.0243 41.3996" fill="#F7D116"/>
<path d="M27.1897 40.4684L25.0341 40.429L25.0537 41.561" fill="#F7D116"/>
<path d="M27.2763 40.7349L25.6056 42.1882L24.879 41.0232" fill="#F7D116"/>
<path d="M14.6784 26.6146L14.0497 24.5523L12.9791 24.9208" fill="#F7D116"/>
<path d="M14.4515 26.7793L12.553 25.6395L13.4364 24.5885" fill="#F7D116"/>
<path d="M12.2321 26.6146L13.9992 25.3794L13.3179 24.4752" fill="#F7D116"/>
<path d="M12.0052 26.4499L12.5026 24.2922L13.7752 24.8076" fill="#F7D116"/>
<path d="M11.476 24.2881L13.1968 25.587L13.8463 24.6596" fill="#F7D116"/>
<path d="M11.5625 24.0215L13.7684 23.8278L13.6715 25.1974" fill="#F7D116"/>
<path d="M13.4551 22.8502L12.7515 24.8881L13.8342 25.2192" fill="#F7D116"/>
<path d="M13.7352 22.8502L14.6012 24.8881L13.2686 25.2192" fill="#F7D116"/>
<path d="M15.4341 24.288L13.2784 24.2487L13.2981 25.3807" fill="#F7D116"/>
<path d="M15.5207 24.5546L13.85 26.0079L13.1234 24.8429" fill="#F7D116"/>
<path d="M12.3273 42.6214L14.0944 41.3862L13.4131 40.482" fill="#F7D116"/>
<path d="M12.1004 42.4567L12.5978 40.299L13.8704 40.8144" fill="#F7D116"/>
<path d="M11.5712 40.2949L13.292 41.5938L13.9415 40.6664" fill="#F7D116"/>
<path d="M11.6578 40.0284L13.8636 39.8346L13.7667 41.2042" fill="#F7D116"/>
<path d="M13.5503 38.857L12.8467 40.8949L13.9294 41.226" fill="#F7D116"/>
<path d="M13.8305 38.857L14.6964 40.8949L13.3639 41.226" fill="#F7D116"/>
<path d="M15.5293 40.2949L13.3737 40.2555L13.3933 41.3875" fill="#F7D116"/>
<path d="M15.6159 40.5614L13.9452 42.0147L13.2186 40.8497" fill="#F7D116"/>
<path d="M14.7736 42.6214L14.1449 40.5591L13.0744 40.9276" fill="#F7D116"/>
<path d="M14.5467 42.7861L12.6482 41.6464L13.5317 40.5953" fill="#F7D116"/>
<path d="M24.0829 26.4411L25.85 25.2059L25.1687 24.3016" fill="#F7D116"/>
<path d="M23.8561 26.2764L24.3534 24.1186L25.626 24.634" fill="#F7D116"/>
<path d="M23.3268 24.1145L25.0477 25.4134L25.6971 24.486" fill="#F7D116"/>
<path d="M23.4134 23.848L25.6192 23.6542L25.5223 25.0239" fill="#F7D116"/>
<path d="M25.3059 22.6766L24.6023 24.7146L25.685 25.0457" fill="#F7D116"/>
<path d="M25.5861 22.6766L26.452 24.7146L25.1195 25.0457" fill="#F7D116"/>
<path d="M27.2849 24.1145L25.1293 24.0752L25.149 25.2071" fill="#F7D116"/>
<path d="M27.3715 24.381L25.7008 25.8343L24.9742 24.6693" fill="#F7D116"/>
<path d="M26.5292 26.4411L25.9005 24.3788L24.83 24.7473" fill="#F7D116"/>
<path d="M26.3023 26.6058L24.4039 25.466L25.2873 24.4149" fill="#F7D116"/>
<path d="M8.133 29.1514L9.85382 30.4503L10.5033 29.5229" fill="#F7D116"/>
<path d="M8.21953 28.8849L10.4253 28.6911L10.3285 30.0607" fill="#F7D116"/>
<path d="M10.1121 27.7135L9.4085 29.7515L10.4912 30.0826" fill="#F7D116"/>
<path d="M10.3922 27.7135L11.2581 29.7515L9.92562 30.0826" fill="#F7D116"/>
<path d="M12.0911 29.1514L9.93543 29.112L9.95511 30.244" fill="#F7D116"/>
<path d="M12.1776 29.4179L10.507 30.8712L9.78034 29.7062" fill="#F7D116"/>
<path d="M11.3353 31.478L10.7066 29.4157L9.63612 29.7842" fill="#F7D116"/>
<path d="M11.1084 31.6427L9.21001 30.5029L10.0934 29.4518" fill="#F7D116"/>
<path d="M8.88907 31.478L10.6562 30.2428L9.97487 29.3385" fill="#F7D116"/>
<path d="M8.66221 31.3133L9.15956 29.1555L10.4322 29.6709" fill="#F7D116"/>
<path d="M27.1542 35.3318L28.8751 36.6307L29.5245 35.7033" fill="#F7D116"/>
<path d="M27.2408 35.0652L29.4466 34.8715L29.3497 36.2411" fill="#F7D116"/>
<path d="M29.1333 33.8938L28.4297 35.9318L29.5124 36.2629" fill="#F7D116"/>
<path d="M29.4135 33.8938L30.2794 35.9318L28.9469 36.2629" fill="#F7D116"/>
<path d="M31.1123 35.3317L28.9567 35.2924L28.9764 36.4244" fill="#F7D116"/>
<path d="M31.1989 35.5982L29.5282 37.0516L28.8016 35.8866" fill="#F7D116"/>
<path d="M30.3566 37.6583L29.7279 35.596L28.6574 35.9645" fill="#F7D116"/>
<path d="M30.1297 37.823L28.2312 36.6832L29.1147 35.6322" fill="#F7D116"/>
<path d="M27.9103 37.6583L29.6774 36.4231L28.9961 35.5189" fill="#F7D116"/>
<path d="M27.6835 37.4936L28.1808 35.3359L29.4534 35.8513" fill="#F7D116"/>
</g>
</svg>
