<svg width="56" height="56" viewBox="0 0 56 56" fill="none" xmlns="http://www.w3.org/2000/svg">
<rect x="0.5" y="8.5" width="55" height="39" rx="3.5" fill="white" stroke="#F5F5F5"/>
<mask id="mask0_17_2484" style="mask-type:alpha" maskUnits="userSpaceOnUse" x="0" y="8" width="56" height="40">
<rect x="0.5" y="8.5" width="55" height="39" rx="3.5" fill="white" stroke="white"/>
</mask>
<g mask="url(#mask0_17_2484)">
<path fill-rule="evenodd" clip-rule="evenodd" d="M0 21.3333H56V8H0V21.3333Z" fill="#D9101C"/>
<path fill-rule="evenodd" clip-rule="evenodd" d="M0 48H56V34.6667H0V48Z" fill="#0F7811"/>
<path fill-rule="evenodd" clip-rule="evenodd" d="M25.3334 26.6667C26.0698 26.6667 26.6667 26.0697 26.6667 25.3333C26.6667 24.597 26.0698 24 25.3334 24C24.597 24 24.0001 24.597 24.0001 25.3333C24.0001 26.0697 24.597 26.6667 25.3334 26.6667ZM25.3334 29.3333H26.6667C26.6667 27.8606 27.2637 26.6667 28.0001 26.6667C28.7365 26.6667 29.3334 27.8606 29.3334 29.3333H30.6667C31.4031 29.3333 32.0001 29.9303 32.0001 30.6667C32.0001 31.403 31.4031 32 30.6667 32H28.0001H25.3334C24.597 32 24.0001 31.403 24.0001 30.6667C24.0001 29.9303 24.597 29.3333 25.3334 29.3333ZM30.6667 26.6667C31.4031 26.6667 32.0001 26.0697 32.0001 25.3333C32.0001 24.597 31.4031 24 30.6667 24C29.9304 24 29.3334 24.597 29.3334 25.3333C29.3334 26.0697 29.9304 26.6667 30.6667 26.6667ZM37.3334 28C37.3334 28.7364 36.7365 29.3333 36.0001 29.3333C35.2637 29.3333 34.6667 28.7364 34.6667 28C34.6667 27.2636 35.2637 26.6667 36.0001 26.6667C36.7365 26.6667 37.3334 27.2636 37.3334 28ZM20.0001 29.3333C20.7365 29.3333 21.3334 28.7364 21.3334 28C21.3334 27.2636 20.7365 26.6667 20.0001 26.6667C19.2637 26.6667 18.6667 27.2636 18.6667 28C18.6667 28.7364 19.2637 29.3333 20.0001 29.3333Z" fill="#FAD14E"/>
</g>
</svg>
