<svg width="56" height="56" viewBox="0 0 56 56" fill="none" xmlns="http://www.w3.org/2000/svg">
<rect y="8" width="56" height="40" rx="4" fill="white"/>
<mask id="mask0_17_2460" style="mask-type:alpha" maskUnits="userSpaceOnUse" x="0" y="8" width="56" height="40">
<rect y="8" width="56" height="40" rx="4" fill="white"/>
</mask>
<g mask="url(#mask0_17_2460)">
<rect y="8" width="56" height="40" fill="#E92434"/>
<path fill-rule="evenodd" clip-rule="evenodd" d="M28 40C34.6274 40 40 34.6274 40 28C40 21.3726 34.6274 16 28 16C21.3726 16 16 21.3726 16 28C16 34.6274 21.3726 40 28 40ZM28 37.3333C29.2281 37.3333 30.4007 37.0961 31.4747 36.6651C31.4277 36.6661 31.3806 36.6667 31.3333 36.6667C27.2832 36.6667 24 32.7865 24 28C24 23.2135 27.2832 19.3333 31.3333 19.3333C31.3806 19.3333 31.4277 19.3339 31.4747 19.3349C30.4007 18.9039 29.2281 18.6667 28 18.6667C22.8453 18.6667 18.6667 22.8453 18.6667 28C18.6667 33.1547 22.8453 37.3333 28 37.3333ZM30.2587 33.3102L32.7084 30.3402L36.3148 31.6875L34.2472 28.4399L36.643 25.4263L32.9154 26.3892L30.7897 23.1795L30.5536 27.0221L26.844 28.052L30.4256 29.4639L30.2587 33.3102Z" fill="white"/>
</g>
</svg>
