<svg width="56" height="56" viewBox="0 0 56 56" fill="none" xmlns="http://www.w3.org/2000/svg">
<rect y="8" width="56" height="40" rx="4" fill="white"/>
<mask id="mask0_17_2456" style="mask-type:alpha" maskUnits="userSpaceOnUse" x="0" y="8" width="56" height="40">
<rect y="8" width="56" height="40" rx="4" fill="white"/>
</mask>
<g mask="url(#mask0_17_2456)">
<rect y="8" width="56" height="40" fill="#E92434"/>
<path fill-rule="evenodd" clip-rule="evenodd" d="M38.0418 29.5368L35.5922 32.5067L35.759 28.6605L32.1774 27.2485L35.887 26.2187L36.1231 22.376L38.2489 25.5858L41.9764 24.6229L39.5806 27.6365L41.6482 30.884L38.0418 29.5368Z" fill="white"/>
<path fill-rule="evenodd" clip-rule="evenodd" d="M34.8054 20.6318C33.111 19.4002 30.9806 18.6667 28.6666 18.6667C23.1437 18.6667 18.6666 22.8453 18.6666 28C18.6666 33.1547 23.1437 37.3333 28.6666 37.3333C30.9806 37.3333 33.111 36.5998 34.8054 35.3682C32.6096 38.187 29.1832 40 25.3333 40C18.7058 40 13.3333 34.6274 13.3333 28C13.3333 21.3726 18.7058 16 25.3333 16C29.1832 16 32.6096 17.813 34.8054 20.6318Z" fill="white"/>
</g>
</svg>
