<svg width="56" height="56" viewBox="0 0 56 56" fill="none" xmlns="http://www.w3.org/2000/svg">
<rect y="8" width="56" height="40" rx="4" fill="white"/>
<mask id="mask0_17_2448" style="mask-type:alpha" maskUnits="userSpaceOnUse" x="0" y="8" width="56" height="40">
<rect y="8" width="56" height="40" rx="4" fill="white"/>
</mask>
<g mask="url(#mask0_17_2448)">
<path d="M-11 8H69V48H-11V8Z" fill="#00247D"/>
<path d="M-11 28H29V8H69V48H-11V28Z" fill="#0096C8"/>
<path d="M32.0227 40.7275L33.9852 46.7673L28.8474 43.0345H35.198L30.0603 46.7674L32.0227 40.7275Z" fill="#FFCE00"/>
<path d="M43.4977 38.9333L41.5352 44.9732L39.5728 38.9333L44.7105 42.6662L38.3599 42.6662L43.4977 38.9333Z" fill="#FFCE00"/>
<path d="M43.4977 30.801L41.5352 36.8408L39.5728 30.801L44.7105 34.5338L38.3599 34.5339L43.4977 30.801Z" fill="#FFCE00"/>
<path d="M51.8978 36.8778L49.9354 42.9176L47.9729 36.8778L53.1107 40.6106L46.76 40.6107L51.8978 36.8778Z" fill="#FFCE00"/>
<path d="M51.8978 19.1836L49.9354 25.2234L47.9729 19.1836L53.1107 22.9164L46.76 22.9164L51.8978 19.1836Z" fill="#FFCE00"/>
<path d="M55.4295 30.6643L57.3919 36.7041L52.2542 32.9713H58.6048L53.467 36.7042L55.4295 30.6643Z" fill="#FFCE00"/>
<path d="M58.9576 16.7708L56.9952 22.8106L55.0327 16.7708L60.1705 20.5036L53.8198 20.5036L58.9576 16.7708Z" fill="#FFCE00"/>
</g>
</svg>
