<svg width="56" height="56" viewBox="0 0 56 56" fill="none" xmlns="http://www.w3.org/2000/svg">
<rect y="8" width="56" height="40" rx="4" fill="white"/>
<mask id="mask0_17_2443" style="mask-type:alpha" maskUnits="userSpaceOnUse" x="0" y="8" width="56" height="40">
<rect y="8" width="56" height="40" rx="4" fill="white"/>
</mask>
<g mask="url(#mask0_17_2443)">
<path fill-rule="evenodd" clip-rule="evenodd" d="M0 13.3333H56V8H0V13.3333Z" fill="#262626"/>
<path fill-rule="evenodd" clip-rule="evenodd" d="M0 34.6667H56V29.3334H0V34.6667Z" fill="#262626"/>
<path fill-rule="evenodd" clip-rule="evenodd" d="M0 29.3334H56V21.3334H0V29.3334Z" fill="#ED1623"/>
<path fill-rule="evenodd" clip-rule="evenodd" d="M0 21.3334H56V13.3334H0V21.3334Z" fill="#FEE044"/>
<path fill-rule="evenodd" clip-rule="evenodd" d="M0 48H56V42.6666H0V48Z" fill="#ED1623"/>
<path fill-rule="evenodd" clip-rule="evenodd" d="M0 42.6666H56V34.6666H0V42.6666Z" fill="#FEE044"/>
<circle cx="28.0001" cy="28" r="9.33333" fill="white"/>
<path fill-rule="evenodd" clip-rule="evenodd" d="M25.8047 23.1381C25.5444 22.8777 25.5444 22.4556 25.8047 22.1952L26.6284 21.3715C26.6539 21.3461 26.6767 21.3193 26.6984 21.2907C26.7685 21.1984 26.9469 20.9731 27.1556 20.7833C27.509 20.4619 28.5159 20.4282 28.8647 20.7546C28.9593 20.8433 29.0459 20.9419 29.1182 21.0324C29.262 21.2123 29.2707 21.4586 29.1677 21.6646L28.0704 23.8592C28.0241 23.9518 28 24.0539 28 24.1574V24.9213C28 25.1738 28.1427 25.4046 28.3685 25.5176L30.5699 26.6183C30.634 26.6503 30.6925 26.6925 30.7432 26.7431L32.9936 28.9935C33.1965 29.1965 33.2468 29.5064 33.1184 29.7631L32.4137 31.1727C32.2102 31.5797 31.6677 31.6677 31.346 31.3459L31.1381 31.1381C30.8777 30.8777 30.4556 30.8777 30.1953 31.1381L29.5286 31.8047C29.4036 31.9297 29.3333 32.0993 29.3333 32.2761V33.0572C29.3333 33.234 29.4036 33.4036 29.5286 33.5286C29.9486 33.9486 29.6511 34.6666 29.0572 34.6666H28.2761C27.6822 34.6666 27.3848 33.9486 27.8047 33.5286C27.9298 33.4036 28 33.234 28 33.0572V32.6666C28 32.2985 27.7015 32 27.3333 32H26.9428C26.766 32 26.5964 32.0702 26.4714 32.1952L25.8047 32.8619C25.5444 33.1223 25.1223 33.1223 24.8619 32.8619L24.4714 32.4714C24.2111 32.211 24.2111 31.7889 24.4714 31.5286L25.1381 30.8619C25.2631 30.7369 25.4327 30.6666 25.6095 30.6666H26.3905C26.9845 30.6666 27.2819 29.9486 26.8619 29.5286L24.4714 27.1381C24.2111 26.8777 24.2111 26.4556 24.4714 26.1952L26.1953 24.4714C26.4556 24.211 26.4556 23.7889 26.1953 23.5286L25.8047 23.1381Z" fill="#262626"/>
</g>
</svg>
