<svg width="56" height="56" viewBox="0 0 56 56" fill="none" xmlns="http://www.w3.org/2000/svg">
<rect y="8" width="56" height="40" rx="4" fill="white"/>
<mask id="mask0_17_2427" style="mask-type:alpha" maskUnits="userSpaceOnUse" x="0" y="8" width="56" height="40">
<rect y="8" width="56" height="40" rx="4" fill="white"/>
</mask>
<g mask="url(#mask0_17_2427)">
<path fill-rule="evenodd" clip-rule="evenodd" d="M56 8H0V10.6667H56V8ZM56 13.3333H0V16H56V13.3333ZM0 18.6667H56V21.3333H0V18.6667ZM56 24H0V26.6667H56V24ZM0 29.3333H56V32H0V29.3333ZM56 34.6667H0V37.3333H56V34.6667ZM0 40H56V42.6667H0V40ZM56 45.3333H0V48H56V45.3333Z" fill="#D02F44"/>
<rect y="8" width="24" height="18.6667" fill="#46467F"/>
<g filter="url(#filter0_d_17_2427)">
<path fill-rule="evenodd" clip-rule="evenodd" d="M4.00008 13.3334C4.73646 13.3334 5.33341 12.7364 5.33341 12C5.33341 11.2636 4.73646 10.6667 4.00008 10.6667C3.2637 10.6667 2.66675 11.2636 2.66675 12C2.66675 12.7364 3.2637 13.3334 4.00008 13.3334ZM9.33342 13.3334C10.0698 13.3334 10.6667 12.7364 10.6667 12C10.6667 11.2636 10.0698 10.6667 9.33342 10.6667C8.59704 10.6667 8.00008 11.2636 8.00008 12C8.00008 12.7364 8.59704 13.3334 9.33342 13.3334ZM16.0001 12C16.0001 12.7364 15.4031 13.3334 14.6667 13.3334C13.9304 13.3334 13.3334 12.7364 13.3334 12C13.3334 11.2636 13.9304 10.6667 14.6667 10.6667C15.4031 10.6667 16.0001 11.2636 16.0001 12ZM20.0001 13.3334C20.7365 13.3334 21.3334 12.7364 21.3334 12C21.3334 11.2636 20.7365 10.6667 20.0001 10.6667C19.2637 10.6667 18.6667 11.2636 18.6667 12C18.6667 12.7364 19.2637 13.3334 20.0001 13.3334ZM8.00008 14.6667C8.00008 15.4031 7.40313 16 6.66675 16C5.93037 16 5.33341 15.4031 5.33341 14.6667C5.33341 13.9303 5.93037 13.3334 6.66675 13.3334C7.40313 13.3334 8.00008 13.9303 8.00008 14.6667ZM12.0001 16C12.7365 16 13.3334 15.4031 13.3334 14.6667C13.3334 13.9303 12.7365 13.3334 12.0001 13.3334C11.2637 13.3334 10.6667 13.9303 10.6667 14.6667C10.6667 15.4031 11.2637 16 12.0001 16ZM18.6667 14.6667C18.6667 15.4031 18.0698 16 17.3334 16C16.597 16 16.0001 15.4031 16.0001 14.6667C16.0001 13.9303 16.597 13.3334 17.3334 13.3334C18.0698 13.3334 18.6667 13.9303 18.6667 14.6667ZM20.0001 18.6667C20.7365 18.6667 21.3334 18.0697 21.3334 17.3334C21.3334 16.597 20.7365 16 20.0001 16C19.2637 16 18.6667 16.597 18.6667 17.3334C18.6667 18.0697 19.2637 18.6667 20.0001 18.6667ZM16.0001 17.3334C16.0001 18.0697 15.4031 18.6667 14.6667 18.6667C13.9304 18.6667 13.3334 18.0697 13.3334 17.3334C13.3334 16.597 13.9304 16 14.6667 16C15.4031 16 16.0001 16.597 16.0001 17.3334ZM9.33342 18.6667C10.0698 18.6667 10.6667 18.0697 10.6667 17.3334C10.6667 16.597 10.0698 16 9.33342 16C8.59704 16 8.00008 16.597 8.00008 17.3334C8.00008 18.0697 8.59704 18.6667 9.33342 18.6667ZM5.33341 17.3334C5.33341 18.0697 4.73646 18.6667 4.00008 18.6667C3.2637 18.6667 2.66675 18.0697 2.66675 17.3334C2.66675 16.597 3.2637 16 4.00008 16C4.73646 16 5.33341 16.597 5.33341 17.3334ZM6.66675 21.3334C7.40313 21.3334 8.00008 20.7364 8.00008 20C8.00008 19.2636 7.40313 18.6667 6.66675 18.6667C5.93037 18.6667 5.33341 19.2636 5.33341 20C5.33341 20.7364 5.93037 21.3334 6.66675 21.3334ZM13.3334 20C13.3334 20.7364 12.7365 21.3334 12.0001 21.3334C11.2637 21.3334 10.6667 20.7364 10.6667 20C10.6667 19.2636 11.2637 18.6667 12.0001 18.6667C12.7365 18.6667 13.3334 19.2636 13.3334 20ZM17.3334 21.3334C18.0698 21.3334 18.6667 20.7364 18.6667 20C18.6667 19.2636 18.0698 18.6667 17.3334 18.6667C16.597 18.6667 16.0001 19.2636 16.0001 20C16.0001 20.7364 16.597 21.3334 17.3334 21.3334ZM21.3334 22.6667C21.3334 23.4031 20.7365 24 20.0001 24C19.2637 24 18.6667 23.4031 18.6667 22.6667C18.6667 21.9303 19.2637 21.3334 20.0001 21.3334C20.7365 21.3334 21.3334 21.9303 21.3334 22.6667ZM14.6667 24C15.4031 24 16.0001 23.4031 16.0001 22.6667C16.0001 21.9303 15.4031 21.3334 14.6667 21.3334C13.9304 21.3334 13.3334 21.9303 13.3334 22.6667C13.3334 23.4031 13.9304 24 14.6667 24ZM10.6667 22.6667C10.6667 23.4031 10.0698 24 9.33342 24C8.59704 24 8.00008 23.4031 8.00008 22.6667C8.00008 21.9303 8.59704 21.3334 9.33342 21.3334C10.0698 21.3334 10.6667 21.9303 10.6667 22.6667ZM4.00008 24C4.73646 24 5.33341 23.4031 5.33341 22.6667C5.33341 21.9303 4.73646 21.3334 4.00008 21.3334C3.2637 21.3334 2.66675 21.9303 2.66675 22.6667C2.66675 23.4031 3.2637 24 4.00008 24Z" fill="url(#paint0_linear_17_2427)"/>
</g>
</g>
<defs>
<filter id="filter0_d_17_2427" x="2.66675" y="10.6667" width="18.6667" height="15.3333" filterUnits="userSpaceOnUse" color-interpolation-filters="sRGB">
<feFlood flood-opacity="0" result="BackgroundImageFix"/>
<feColorMatrix in="SourceAlpha" type="matrix" values="0 0 0 0 0 0 0 0 0 0 0 0 0 0 0 0 0 0 127 0" result="hardAlpha"/>
<feOffset dy="2"/>
<feColorMatrix type="matrix" values="0 0 0 0 0 0 0 0 0 0 0 0 0 0 0 0 0 0 0.06 0"/>
<feBlend mode="normal" in2="BackgroundImageFix" result="effect1_dropShadow_17_2427"/>
<feBlend mode="normal" in="SourceGraphic" in2="effect1_dropShadow_17_2427" result="shape"/>
</filter>
<linearGradient id="paint0_linear_17_2427" x1="2.66675" y1="10.6667" x2="2.66675" y2="24" gradientUnits="userSpaceOnUse">
<stop stop-color="white"/>
<stop offset="1" stop-color="#F0F0F0"/>
</linearGradient>
</defs>
</svg>
