<svg width="56" height="56" viewBox="0 0 56 56" fill="none" xmlns="http://www.w3.org/2000/svg">
<rect x="0.5" y="8.5" width="55" height="39" rx="3.5" fill="white" stroke="#F5F5F5"/>
<mask id="mask0_17_2423" style="mask-type:alpha" maskUnits="userSpaceOnUse" x="0" y="8" width="56" height="40">
<rect x="0.5" y="8.5" width="55" height="39" rx="3.5" fill="white" stroke="white"/>
</mask>
<g mask="url(#mask0_17_2423)">
<path fill-rule="evenodd" clip-rule="evenodd" d="M56 13.3333H26.6667V18.6666H56V13.3333ZM26.6667 24V29.3333H56V24H26.6667ZM26.6667 34.6666L0 34.6666V40H56V34.6666H26.6667ZM0 48V45.3333H56V48H0Z" fill="#0E4DC5"/>
<path fill-rule="evenodd" clip-rule="evenodd" d="M13.3333 26.6426L11.5531 29.2999L11.1022 26.1334L8.34533 27.7551L9.31298 24.7065L6.1255 24.9715L8.32005 22.6447L5.33325 21.5005L8.32005 20.3562L6.1255 18.0294L9.31298 18.2944L8.34533 15.2458L11.1022 16.8676L11.5531 13.701L13.3333 16.3583L15.1134 13.701L15.5643 16.8676L18.3212 15.2458L17.3535 18.2944L20.541 18.0294L18.3465 20.3562L21.3333 21.5005L18.3465 22.6447L20.541 24.9715L17.3535 24.7065L18.3212 27.7551L15.5643 26.1334L15.1134 29.2999L13.3333 26.6426ZM18.4242 21.5005C18.4242 24.3121 16.1449 26.5914 13.3333 26.5914C10.5216 26.5914 8.24234 24.3121 8.24234 21.5005C8.24234 18.6888 10.5216 16.4096 13.3333 16.4096C16.1449 16.4096 18.4242 18.6888 18.4242 21.5005ZM13.3333 25.3333C15.5424 25.3333 17.3333 23.5425 17.3333 21.3333C17.3333 19.1242 15.5424 17.3333 13.3333 17.3333C11.1241 17.3333 9.33325 19.1242 9.33325 21.3333C9.33325 23.5425 11.1241 25.3333 13.3333 25.3333Z" fill="#FED443"/>
</g>
</svg>
