<svg width="56" height="56" viewBox="0 0 56 56" fill="none" xmlns="http://www.w3.org/2000/svg">
<rect x="0.5" y="8.5" width="55" height="39" rx="3.5" fill="white" stroke="#F5F5F5"/>
<mask id="mask0_17_2419" style="mask-type:alpha" maskUnits="userSpaceOnUse" x="0" y="8" width="56" height="40">
<rect x="0.5" y="8.5" width="55" height="39" rx="3.5" fill="white" stroke="white"/>
</mask>
<g mask="url(#mask0_17_2419)">
<path fill-rule="evenodd" clip-rule="evenodd" d="M0 21.3333H56V8H0V21.3333Z" fill="#04AAC8"/>
<path fill-rule="evenodd" clip-rule="evenodd" d="M0 48H56V34.6667H0V48Z" fill="#23C840"/>
<path fill-rule="evenodd" clip-rule="evenodd" d="M11.3333 11.3334C11.4081 11.3334 11.4824 11.3358 11.5561 11.3407C10.9204 10.915 10.1558 10.6667 9.33325 10.6667C7.12411 10.6667 5.33325 12.4575 5.33325 14.6667C5.33325 16.8758 7.12411 18.6667 9.33325 18.6667C10.1558 18.6667 10.9204 18.4184 11.5561 17.9927C11.4824 17.9976 11.4081 18 11.3333 18C9.4923 18 7.99992 16.5076 7.99992 14.6667C7.99992 12.8257 9.4923 11.3334 11.3333 11.3334ZM14.6666 18.6667C15.403 18.6667 15.9999 18.0697 15.9999 17.3334C15.9999 16.597 15.403 16 14.6666 16C13.9302 16 13.3333 16.597 13.3333 17.3334C13.3333 18.0697 13.9302 18.6667 14.6666 18.6667ZM21.3333 12C21.3333 12.7364 20.7363 13.3334 19.9999 13.3334C19.2635 13.3334 18.6666 12.7364 18.6666 12C18.6666 11.2636 19.2635 10.6667 19.9999 10.6667C20.7363 10.6667 21.3333 11.2636 21.3333 12ZM25.3333 13.3334C26.0696 13.3334 26.6666 12.7364 26.6666 12C26.6666 11.2636 26.0696 10.6667 25.3333 10.6667C24.5969 10.6667 23.9999 11.2636 23.9999 12C23.9999 12.7364 24.5969 13.3334 25.3333 13.3334ZM26.6666 17.3334C26.6666 18.0697 26.0696 18.6667 25.3333 18.6667C24.5969 18.6667 23.9999 18.0697 23.9999 17.3334C23.9999 16.597 24.5969 16 25.3333 16C26.0696 16 26.6666 16.597 26.6666 17.3334ZM19.9999 18.6667C20.7363 18.6667 21.3333 18.0697 21.3333 17.3334C21.3333 16.597 20.7363 16 19.9999 16C19.2635 16 18.6666 16.597 18.6666 17.3334C18.6666 18.0697 19.2635 18.6667 19.9999 18.6667Z" fill="white"/>
</g>
</svg>
