<svg width="56" height="56" viewBox="0 0 56 56" fill="none" xmlns="http://www.w3.org/2000/svg">
<rect y="8" width="56" height="40" rx="4" fill="white"/>
<mask id="mask0_17_2414" style="mask-type:alpha" maskUnits="userSpaceOnUse" x="0" y="8" width="56" height="40">
<rect y="8" width="56" height="40" rx="4" fill="white"/>
</mask>
<g mask="url(#mask0_17_2414)">
<g filter="url(#filter0_d_17_2414)">
<path fill-rule="evenodd" clip-rule="evenodd" d="M0 48H56V32H0V48Z" fill="#009543"/>
</g>
<g filter="url(#filter1_d_17_2414)">
<path fill-rule="evenodd" clip-rule="evenodd" d="M0 24H56V8H0V24Z" fill="#D21034"/>
</g>
<path fill-rule="evenodd" clip-rule="evenodd" d="M0 32H56V24H0V32Z" fill="#262626"/>
<path fill-rule="evenodd" clip-rule="evenodd" d="M0 8L26.6667 28L0 48V8Z" fill="#262626"/>
<path d="M-1.33341 42.7257V13.2743L19.056 28L-1.33341 42.7257Z" stroke="#FDCE12" stroke-width="2.66667"/>
<path fill-rule="evenodd" clip-rule="evenodd" d="M18.6667 29.3333H56.0001V26.6667H18.6667V29.3333Z" fill="#FDCE12"/>
</g>
<defs>
<filter id="filter0_d_17_2414" x="0" y="32" width="56" height="16" filterUnits="userSpaceOnUse" color-interpolation-filters="sRGB">
<feFlood flood-opacity="0" result="BackgroundImageFix"/>
<feColorMatrix in="SourceAlpha" type="matrix" values="0 0 0 0 0 0 0 0 0 0 0 0 0 0 0 0 0 0 127 0" result="hardAlpha"/>
<feOffset/>
<feColorMatrix type="matrix" values="0 0 0 0 0 0 0 0 0 0 0 0 0 0 0 0 0 0 0.06 0"/>
<feBlend mode="normal" in2="BackgroundImageFix" result="effect1_dropShadow_17_2414"/>
<feBlend mode="normal" in="SourceGraphic" in2="effect1_dropShadow_17_2414" result="shape"/>
</filter>
<filter id="filter1_d_17_2414" x="0" y="8" width="56" height="16" filterUnits="userSpaceOnUse" color-interpolation-filters="sRGB">
<feFlood flood-opacity="0" result="BackgroundImageFix"/>
<feColorMatrix in="SourceAlpha" type="matrix" values="0 0 0 0 0 0 0 0 0 0 0 0 0 0 0 0 0 0 127 0" result="hardAlpha"/>
<feOffset/>
<feColorMatrix type="matrix" values="0 0 0 0 0 0 0 0 0 0 0 0 0 0 0 0 0 0 0.06 0"/>
<feBlend mode="normal" in2="BackgroundImageFix" result="effect1_dropShadow_17_2414"/>
<feBlend mode="normal" in="SourceGraphic" in2="effect1_dropShadow_17_2414" result="shape"/>
</filter>
</defs>
</svg>
