<svg width="56" height="56" viewBox="0 0 56 56" fill="none" xmlns="http://www.w3.org/2000/svg">
<rect x="0.214286" y="8.21429" width="55.5714" height="39.5714" rx="1.5" fill="white" stroke="#F5F5F5" stroke-width="0.428571"/>
<mask id="mask0_17_2410" style="mask-type:alpha" maskUnits="userSpaceOnUse" x="0" y="8" width="56" height="40">
<rect x="0.214286" y="8.21429" width="55.5714" height="39.5714" rx="1.5" fill="white" stroke="white" stroke-width="0.428571"/>
</mask>
<g mask="url(#mask0_17_2410)">
<path d="M55.0344 8.03018H28V48.0302H55.0344C55.5676 48.0302 56 47.5588 56 46.9775V9.08274C56 8.50143 55.5676 8.03018 55.0344 8.03018Z" fill="#F5F5F5"/>
<path d="M0.965563 48.0302H28V8.03018H0.965563C0.432359 8.03018 0 8.50143 0 9.08274V46.9775C0 47.5589 0.432359 48.0302 0.965563 48.0302Z" fill="#FFE15A"/>
<path d="M44.6543 19.4885L44.5901 19.6168C44.7974 19.7229 44.9158 19.8436 44.9158 19.9723L44.8835 19.3345C44.8404 19.4201 44.7559 19.4816 44.6543 19.4885Z" fill="#EBEBEB"/>
<path d="M39.6417 19.6168L39.5775 19.4885C39.476 19.4815 39.3916 19.4201 39.3481 19.3345L39.3159 19.9723C39.3159 19.8439 39.4345 19.7229 39.6417 19.6168Z" fill="#EBEBEB"/>
<path d="M39.5959 18.9322C39.7505 18.9322 39.8759 19.0576 39.8759 19.2122C39.8759 19.2682 39.8552 19.3174 39.8269 19.3612L39.9006 19.5085C40.1119 19.4343 40.3722 19.3711 40.6692 19.3223L40.6377 19.1963C40.5219 19.1619 40.4359 19.0589 40.4359 18.9321C40.4359 18.7775 40.5612 18.6521 40.7159 18.6521C40.8705 18.6521 40.9959 18.7775 40.9959 18.9321C40.9959 19.0111 40.9627 19.0816 40.9102 19.1326L40.9476 19.2821C41.1037 19.2625 41.2672 19.2471 41.437 19.2355C41.4243 19.1829 41.4159 19.1286 41.4159 19.0721C41.4159 18.6856 41.7293 18.3721 42.1159 18.3721C42.5024 18.3721 42.8159 18.6856 42.8159 19.0721C42.8159 19.1288 42.8074 19.1829 42.7947 19.2355C42.9647 19.247 43.1282 19.2625 43.2841 19.2821L43.3215 19.1326C43.269 19.0816 43.2359 19.0111 43.2359 18.9321C43.2359 18.7775 43.3612 18.6521 43.5159 18.6521C43.6705 18.6521 43.7959 18.7775 43.7959 18.9321C43.7959 19.059 43.7098 19.1619 43.5941 19.1963L43.5626 19.3223C43.8594 19.371 44.1198 19.4341 44.3311 19.5085L44.4049 19.3612C44.3765 19.3173 44.3559 19.2682 44.3559 19.2122C44.3559 19.0576 44.4812 18.9322 44.6359 18.9322C44.7366 18.9322 44.821 18.9883 44.8702 19.0683L44.8488 18.6413C44.5723 18.3274 43.4547 18.0922 42.1159 18.0922C40.777 18.0922 39.6595 18.3272 39.383 18.6413L39.3616 19.0683C39.4108 18.9883 39.4951 18.9322 39.5959 18.9322Z" fill="#EBEBEB"/>
<path d="M42.5531 15.6384C42.6289 15.5428 42.6759 15.4236 42.6759 15.2922C42.6759 15.0316 42.4971 14.8146 42.2559 14.752V14.4092C42.338 14.3604 42.3959 14.2747 42.3959 14.1722C42.3959 14.0176 42.2706 13.8922 42.1159 13.8922C41.9613 13.8922 41.8359 14.0176 41.8359 14.1722C41.8359 14.2747 41.8938 14.3604 41.9759 14.4092V14.752C41.7347 14.8144 41.5559 15.0316 41.5559 15.2922C41.5559 15.4237 41.603 15.5429 41.6787 15.6384C41.8211 15.5994 41.9662 15.5722 42.1159 15.5722C42.2656 15.5722 42.4106 15.5993 42.5531 15.6384Z" fill="#E6B432"/>
<path d="M40.9426 17.0559L40.9177 16.9565C40.802 16.9221 40.7159 16.8191 40.7159 16.6923C40.7159 16.5377 40.8413 16.4123 40.9959 16.4123C41.1506 16.4123 41.2759 16.5377 41.2759 16.6923C41.2759 16.7713 41.2428 16.8418 41.1903 16.8928L41.2219 17.019C41.4959 16.9891 41.798 16.9723 42.1159 16.9723C41.884 16.9723 41.6959 16.7843 41.6959 16.5523C41.6959 16.3203 41.884 16.1323 42.1159 16.1323C42.3479 16.1323 42.5359 16.3203 42.5359 16.5523C42.5359 16.7843 42.3479 16.9723 42.1159 16.9723C42.434 16.9723 42.7361 16.9891 43.01 17.019L43.0416 16.8928C42.9891 16.8418 42.9559 16.7713 42.9559 16.6923C42.9559 16.5377 43.0813 16.4123 43.2359 16.4123C43.3906 16.4123 43.5159 16.5377 43.5159 16.6923C43.5159 16.8192 43.4299 16.9221 43.3141 16.9565L43.2893 17.0559C43.4316 17.0779 43.564 17.1034 43.6827 17.1325L43.8891 16.7197C43.532 16.1663 43.0706 15.7802 42.553 15.6385C42.4106 15.5996 42.2656 15.5723 42.1158 15.5723C41.9662 15.5723 41.8212 15.5995 41.6787 15.6385C41.161 15.7801 40.6996 16.1662 40.3425 16.7197L40.5489 17.1325C40.6678 17.1034 40.8003 17.0779 40.9426 17.0559Z" fill="#EBEBEB"/>
<path d="M41.8358 39.9836V39.3722C41.8358 39.3067 41.845 39.2437 41.8593 39.1825C41.8518 39.1777 41.8436 39.1743 41.8358 39.1698C41.7532 39.1218 41.6583 39.0922 41.5558 39.0922C41.4534 39.0922 41.3585 39.1217 41.2758 39.1698C41.1092 39.2669 40.9958 39.4454 40.9958 39.6522C40.9958 39.8028 41.0561 39.939 41.1527 40.0395C41.2728 39.9732 41.409 39.9322 41.5557 39.9322C41.6546 39.9322 41.7479 39.9523 41.8358 39.9836Z" fill="#E6B432"/>
<path d="M42.3957 37.7699C42.229 37.8669 42.1157 38.0454 42.1157 38.2522C42.1157 38.4028 42.176 38.539 42.2726 38.6395C42.3927 38.5732 42.5288 38.5322 42.6757 38.5322C42.8226 38.5322 42.9586 38.5732 43.0789 38.6395C43.1756 38.5389 43.2357 38.4028 43.2357 38.2522C43.2357 38.0455 43.1224 37.8669 42.9557 37.7699C42.873 37.7218 42.7782 37.6922 42.6757 37.6922C42.5732 37.6922 42.4784 37.7218 42.3957 37.7699Z" fill="#E6B432"/>
<path d="M42.2729 38.6395C42.0673 38.7529 41.9138 38.9476 41.8595 39.1827C41.8454 39.2438 41.8361 39.3068 41.8361 39.3723V39.9837C41.7481 39.9524 41.6548 39.9323 41.5561 39.9323C41.4092 39.9323 41.273 39.9733 41.1529 40.0396C40.8937 40.1827 40.7161 40.4552 40.7161 40.7723V41.8923H42.3961V40.7723C42.3961 40.6736 42.3759 40.5803 42.3447 40.4923H43.5161V39.3723C43.5161 39.0553 43.3384 38.7827 43.0792 38.6396C42.9591 38.5733 42.823 38.5323 42.6761 38.5323C42.5292 38.5323 42.393 38.5732 42.2729 38.6395Z" fill="#FF4B57"/>
<path d="M42.3957 27.3794L42.8741 27.8579L43.0378 27.6943C43.0766 27.6554 43.1249 27.6354 43.1749 27.6241L45.543 25.2555L47.0598 26.7723L48.0497 25.7825L47.6537 25.3866L47.4556 25.5845L47.0597 25.1886L47.2577 24.9906L47.0597 24.7925L47.4556 24.3966L47.6537 24.5946L47.8517 24.3966L48.2476 24.7925L48.0497 24.9906L48.4456 25.3866L49.4354 24.3967L47.9183 22.8796L48.9565 21.8411C48.9064 21.8205 48.8594 21.7902 48.8187 21.7496L48.2587 21.1896C48.2169 21.1478 48.1864 21.0994 48.1658 21.0478L42.3325 26.8826C42.3698 26.9302 42.3956 26.9874 42.3956 27.0526L42.3957 27.3794Z" fill="#E6B432"/>
<path d="M41.7535 29.0459L40.9615 28.2539L38.4998 30.7164C38.2813 30.9353 38.2813 31.2897 38.4999 31.5083C38.6093 31.6177 38.7526 31.6723 38.8959 31.6723C39.0391 31.6723 39.1826 31.6177 39.292 31.5083L41.2161 29.5836L41.7535 29.0459Z" fill="#E6B432"/>
<path d="M34.1102 31.9521C34.1257 31.9081 34.1359 31.8615 34.1359 31.8122C34.1359 31.5802 33.9479 31.3922 33.7159 31.3922C33.4839 31.3922 33.2959 31.5802 33.2959 31.8122C33.2959 32.0442 33.4839 32.2322 33.7159 32.2322C33.7652 32.2322 33.8118 32.2221 33.8558 32.2065C33.9352 32.1164 34.0201 32.0315 34.1102 31.9521Z" fill="#D2D2D2"/>
<path d="M33.8558 35.8979C33.8118 35.8824 33.7652 35.8722 33.7159 35.8722C33.4839 35.8722 33.2959 36.0602 33.2959 36.2922C33.2959 36.5242 33.4839 36.7122 33.7159 36.7122C33.9479 36.7122 34.1359 36.5242 34.1359 36.2922C34.1359 36.243 34.1258 36.1963 34.1102 36.1523C34.0201 36.073 33.9352 35.9881 33.8558 35.8979Z" fill="#D2D2D2"/>
<path d="M38.056 32.2065C38.1 32.222 38.1466 32.2322 38.1959 32.2322C38.4279 32.2322 38.6159 32.0442 38.6159 31.8122C38.6159 31.5802 38.4279 31.3922 38.1959 31.3922C37.9639 31.3922 37.7759 31.5802 37.7759 31.8122C37.7759 31.8615 37.7859 31.9081 37.8016 31.9521C37.8918 32.0315 37.9766 32.1164 38.056 32.2065Z" fill="#D2D2D2"/>
<path d="M37.7759 36.2922C37.7759 36.5242 37.9639 36.7122 38.1959 36.7122C38.3253 36.7122 38.4395 36.6525 38.5166 36.5605C38.2533 36.4653 38.0074 36.3592 37.7808 36.243C37.7789 36.2594 37.7759 36.2754 37.7759 36.2922Z" fill="#D2D2D2"/>
<path fill-rule="evenodd" clip-rule="evenodd" d="M37.1912 35.8868C37.1322 35.844 37.0969 35.7821 37.0832 35.716C37.0356 35.7263 36.9865 35.7323 36.9359 35.7323C36.6034 35.7323 36.3254 35.4988 36.2545 35.1873C36.1783 35.2644 36.0727 35.3123 35.9559 35.3123C35.8389 35.3123 35.7333 35.2644 35.6573 35.1873C35.5864 35.4988 35.3085 35.7323 34.9759 35.7323C34.5899 35.7323 34.2759 35.4184 34.2759 35.0323C34.2759 34.6997 34.5095 34.4219 34.8209 34.3509C34.7438 34.2748 34.6959 34.1691 34.6959 34.0523C34.6959 33.9354 34.7438 33.8298 34.8209 33.7537C34.5095 33.6829 34.2759 33.4051 34.2759 33.0723C34.2759 32.6862 34.5899 32.3723 34.9759 32.3723C35.3084 32.3723 35.5863 32.6058 35.6573 32.9173C35.7334 32.8402 35.8391 32.7923 35.9559 32.7923C36.0728 32.7923 36.1784 32.8402 36.2545 32.9173C36.3253 32.6058 36.6033 32.3723 36.9359 32.3723C37.3219 32.3723 37.6359 32.6862 37.6359 33.0723C37.6359 33.4049 37.4022 33.6828 37.0909 33.7537C37.168 33.8299 37.2159 33.9355 37.2159 34.0523C37.2159 34.1693 37.168 34.2749 37.0909 34.3509C37.4022 34.4218 37.6359 34.6997 37.6359 35.0323C37.6359 35.18 37.5894 35.3166 37.5111 35.4297L37.5126 35.4306L37.5153 35.4316C37.5167 35.4321 37.5182 35.4326 37.5195 35.4335C37.7006 35.5647 37.9094 35.6866 38.1413 35.7981C38.2111 35.7109 38.2745 35.6188 38.3336 35.5236C38.5181 35.2265 38.6485 34.8933 38.711 34.5363C38.7387 34.3788 38.7558 34.2178 38.7558 34.0524C38.7558 33.3452 38.49 32.7001 38.0559 32.2067C37.9765 32.1166 37.8916 32.0316 37.8015 31.9523C37.3081 31.5182 36.6631 31.2524 35.9558 31.2524C35.2484 31.2524 34.6034 31.5182 34.1101 31.9523C34.0199 32.0317 33.9349 32.1166 33.8557 32.2067C33.4215 32.7001 33.1558 33.3451 33.1558 34.0524C33.1558 34.7598 33.4215 35.4048 33.8557 35.8981C33.9351 35.9883 34.0199 36.0733 34.1101 36.1526C34.6034 36.5867 35.2484 36.8524 35.9558 36.8524C36.6286 36.8524 37.2464 36.6136 37.7298 36.2166C37.535 36.1137 37.3534 36.0042 37.1912 35.8868ZM38.1204 33.4859C38.168 33.6671 38.1959 33.8563 38.1959 34.0522C38.1959 34.2481 38.168 34.4373 38.1204 34.6186C38.0414 34.393 37.9011 34.1987 37.7181 34.0522C37.9011 33.9058 38.0414 33.7114 38.1204 33.4859ZM35.9559 32.2901C36.1024 32.107 36.2967 31.9668 36.5223 31.8877C36.3409 31.8401 36.1519 31.8122 35.9559 31.8122C35.7599 31.8122 35.5708 31.8401 35.3896 31.8877C35.6151 31.9668 35.8094 32.107 35.9559 32.2901ZM33.7913 33.4859C33.8703 33.7114 34.0106 33.9059 34.1936 34.0522C34.0106 34.1988 33.8703 34.393 33.7913 34.6186C33.7437 34.4373 33.7158 34.2482 33.7158 34.0522C33.7158 33.8562 33.7437 33.6671 33.7913 33.4859ZM35.9558 35.8145C35.8094 35.9976 35.615 36.1378 35.3895 36.2169C35.5707 36.2643 35.7598 36.2923 35.9558 36.2923C36.1518 36.2923 36.3409 36.2644 36.5222 36.2169C36.2966 36.1379 36.1024 35.9976 35.9558 35.8145Z" fill="#E6B432"/>
<path d="M35.5358 34.0522C35.5358 33.8202 35.3478 33.6322 35.1158 33.6322C35.0007 33.6322 34.8966 33.6787 34.8208 33.7536C34.7437 33.8297 34.6958 33.9354 34.6958 34.0522C34.6958 34.1691 34.7437 34.2748 34.8208 34.3508C34.8967 34.4257 35.0007 34.4722 35.1158 34.4722C35.3478 34.4722 35.5358 34.2842 35.5358 34.0522Z" fill="#F0C814"/>
<path d="M36.376 34.0522C36.376 34.2842 36.564 34.4722 36.796 34.4722C36.911 34.4722 37.0152 34.4257 37.091 34.3508C37.1681 34.2747 37.216 34.169 37.216 34.0522C37.216 33.9353 37.1681 33.8296 37.091 33.7536C37.0151 33.6787 36.911 33.6322 36.796 33.6322C36.564 33.6322 36.376 33.8202 36.376 34.0522Z" fill="#F0C814"/>
<path d="M35.9559 33.6322C36.1879 33.6322 36.3759 33.4442 36.3759 33.2122C36.3759 33.0971 36.3294 32.993 36.2545 32.9172C36.1784 32.8401 36.0727 32.7922 35.9559 32.7922C35.839 32.7922 35.7333 32.8401 35.6573 32.9172C35.5824 32.9931 35.5359 33.0971 35.5359 33.2122C35.5359 33.4442 35.7239 33.6322 35.9559 33.6322Z" fill="#F0C814"/>
<path d="M35.9559 34.4722C35.7239 34.4722 35.5359 34.6602 35.5359 34.8922C35.5359 35.0073 35.5824 35.1114 35.6573 35.1872C35.7334 35.2643 35.8391 35.3122 35.9559 35.3122C36.0728 35.3122 36.1785 35.2643 36.2545 35.1872C36.3294 35.1114 36.3759 35.0073 36.3759 34.8922C36.3759 34.6602 36.1879 34.4722 35.9559 34.4722Z" fill="#F0C814"/>
<path d="M48.819 21.7492C48.8597 21.7898 48.9067 21.8203 48.9568 21.8406C49.0078 21.8615 49.0618 21.8721 49.1159 21.8721C49.2233 21.8721 49.3309 21.8311 49.4128 21.7489C49.5584 21.6034 49.5671 21.3813 49.4545 21.2177L49.6093 20.5985C49.6313 20.6041 49.6523 20.6119 49.6759 20.6119C49.8306 20.6119 49.9559 20.4865 49.9559 20.3319C49.9559 20.1772 49.8306 20.0519 49.6759 20.0519C49.5213 20.0519 49.3959 20.1772 49.3959 20.3319C49.3959 20.3555 49.4039 20.3765 49.4093 20.3985L48.7901 20.5534C48.6265 20.4406 48.4043 20.4495 48.2589 20.595C48.1366 20.7173 48.106 20.896 48.166 21.0472C48.1866 21.0987 48.2171 21.1473 48.2589 21.1891L48.819 21.7492Z" fill="#D2D2D2"/>
<path d="M41.8357 28.3363V28.1722V27.0522C41.8357 26.987 41.8615 26.9298 41.8988 26.8823L36.0655 21.0474C36.045 21.0989 36.0144 21.1475 35.9727 21.1893L35.4127 21.7493C35.372 21.79 35.3249 21.8204 35.2749 21.8407L36.313 22.8792L34.7959 24.3964L35.7857 25.3862L36.1817 24.9903L35.9837 24.7922L36.3796 24.3963L36.5776 24.5942L36.7757 24.3963L37.1716 24.7922L36.9737 24.9903L37.1716 25.1883L36.7757 25.5842L36.5776 25.3862L36.1817 25.7822L37.1715 26.772L38.6883 25.2552L41.0564 27.6238C41.1064 27.6351 41.1546 27.6551 41.1936 27.6939L41.8357 28.3363Z" fill="#D2D2D2"/>
<path d="M42.478 29.0459L43.0155 29.5835L44.9396 31.5082C45.049 31.6175 45.1922 31.6722 45.3358 31.6722C45.4791 31.6722 45.6223 31.6175 45.7317 31.5082C45.9506 31.2897 45.9506 30.935 45.7318 30.7163L43.2701 28.2538L42.478 29.0459Z" fill="#D2D2D2"/>
<path d="M42.3958 28.1722V28.3363L42.8742 27.8579L42.3958 27.3794V28.1722Z" fill="#D2D2D2"/>
<path d="M50.3758 32.2065C50.4198 32.222 50.4664 32.2322 50.5157 32.2322C50.7477 32.2322 50.9357 32.0442 50.9357 31.8122C50.9357 31.5802 50.7477 31.3922 50.5157 31.3922C50.2837 31.3922 50.0957 31.5802 50.0957 31.8122C50.0957 31.8615 50.1058 31.9081 50.1214 31.9521C50.2116 32.0315 50.2964 32.1164 50.3758 32.2065Z" fill="#D2D2D2"/>
<path d="M50.5157 35.8722C50.4664 35.8722 50.4198 35.8823 50.3758 35.8979C50.2964 35.9881 50.2115 36.073 50.1214 36.1523C50.1059 36.1963 50.0957 36.2429 50.0957 36.2922C50.0957 36.5242 50.2837 36.7122 50.5157 36.7122C50.7477 36.7122 50.9357 36.5242 50.9357 36.2922C50.9357 36.0602 50.7477 35.8722 50.5157 35.8722Z" fill="#D2D2D2"/>
<path d="M46.43 31.9521C46.4456 31.9081 46.4557 31.8615 46.4557 31.8122C46.4557 31.5802 46.2677 31.3922 46.0357 31.3922C45.8037 31.3922 45.6157 31.5802 45.6157 31.8122C45.6157 32.0442 45.8037 32.2322 46.0357 32.2322C46.0851 32.2322 46.1316 32.2222 46.1756 32.2065C46.255 32.1164 46.3399 32.0315 46.43 31.9521Z" fill="#D2D2D2"/>
<path d="M46.0357 36.7122C46.2677 36.7122 46.4557 36.5242 46.4557 36.2922C46.4557 36.2754 46.4526 36.2594 46.4507 36.243C46.2243 36.3592 45.9782 36.4653 45.7151 36.5606C45.7922 36.6526 45.9063 36.7122 46.0357 36.7122Z" fill="#D2D2D2"/>
<path fill-rule="evenodd" clip-rule="evenodd" d="M50.3759 35.8979C50.81 35.4045 51.0758 34.7596 51.0758 34.0522C51.0758 33.3449 50.81 32.6999 50.3759 32.2065C50.2965 32.1164 50.2117 32.0314 50.1215 31.9521C49.6281 31.518 48.9832 31.2522 48.2758 31.2522C47.5685 31.2522 46.9235 31.518 46.4301 31.9521C46.34 32.0315 46.255 32.1164 46.1757 32.2065C45.7416 32.6999 45.4758 33.3449 45.4758 34.0522C45.4758 34.2184 45.4931 34.3804 45.521 34.5387C45.5838 34.8949 45.7139 35.2271 45.898 35.5235C45.9572 35.6188 46.0205 35.7107 46.0903 35.798C46.322 35.6866 46.5305 35.5648 46.7117 35.4337C46.7131 35.4327 46.7147 35.4321 46.7163 35.4316C46.7178 35.4311 46.7193 35.4305 46.7206 35.4296C46.6423 35.3166 46.5958 35.1799 46.5958 35.0322C46.5958 34.6996 46.8295 34.4218 47.1408 34.3508C47.0637 34.2747 47.0158 34.169 47.0158 34.0522C47.0158 33.9353 47.0637 33.8297 47.1408 33.7536C46.8295 33.6828 46.5958 33.4049 46.5958 33.0722C46.5958 32.6861 46.9098 32.3722 47.2958 32.3722C47.6283 32.3722 47.9063 32.6057 47.9772 32.9172C48.0534 32.8401 48.159 32.7922 48.2758 32.7922C48.3926 32.7922 48.4984 32.8401 48.5744 32.9172C48.6454 32.6057 48.9232 32.3722 49.2558 32.3722C49.6418 32.3722 49.9558 32.6861 49.9558 33.0722C49.9558 33.4048 49.7222 33.6827 49.4108 33.7536C49.4879 33.8298 49.5358 33.9354 49.5358 34.0522C49.5358 34.1692 49.4879 34.2748 49.4108 34.3508C49.7222 34.4217 49.9558 34.6996 49.9558 35.0322C49.9558 35.4183 49.6418 35.7322 49.2558 35.7322C48.9233 35.7322 48.6454 35.4987 48.5744 35.1872C48.4983 35.2643 48.3926 35.3122 48.2758 35.3122C48.159 35.3122 48.0533 35.2643 47.9772 35.1872C47.9063 35.4987 47.6284 35.7322 47.2958 35.7322C47.2452 35.7322 47.1959 35.7262 47.1481 35.7159C47.1345 35.7822 47.0991 35.8443 47.0399 35.8871C46.8778 36.0046 46.6965 36.1138 46.5017 36.2165C46.985 36.6135 47.603 36.8523 48.2757 36.8523C48.983 36.8523 49.628 36.5866 50.1214 36.1524C50.2118 36.073 50.2965 35.9881 50.3759 35.8979ZM46.1113 34.6187C46.0637 34.4374 46.0359 34.2483 46.0359 34.0523C46.0359 33.8563 46.0637 33.6672 46.1113 33.486C46.1904 33.7115 46.3306 33.906 46.5137 34.0523C46.3306 34.1988 46.1904 34.393 46.1113 34.6187ZM47.7095 31.8877C47.9351 31.9668 48.1293 32.107 48.2759 32.2901C48.4224 32.107 48.6167 31.9668 48.8422 31.8877C48.661 31.8401 48.4719 31.8122 48.2759 31.8122C48.0799 31.8122 47.8908 31.8401 47.7095 31.8877ZM50.4404 33.4859C50.488 33.6671 50.5159 33.8563 50.5159 34.0522C50.5159 34.2481 50.488 34.4373 50.4404 34.6186C50.3613 34.393 50.2211 34.1987 50.038 34.0522C50.2211 33.9058 50.3613 33.7114 50.4404 33.4859ZM48.2759 35.8145C48.1294 35.9976 47.9351 36.1378 47.7095 36.2169C47.8908 36.2643 48.0799 36.2923 48.2759 36.2923C48.4719 36.2923 48.661 36.2644 48.8422 36.2169C48.6167 36.1379 48.4224 35.9976 48.2759 35.8145Z" fill="#E6B432"/>
<path d="M48.6958 34.0522C48.6958 34.2842 48.8838 34.4722 49.1158 34.4722C49.2309 34.4722 49.335 34.4257 49.4108 34.3508C49.4879 34.2747 49.5358 34.169 49.5358 34.0522C49.5358 33.9353 49.4879 33.8296 49.4108 33.7536C49.3349 33.6787 49.2309 33.6322 49.1158 33.6322C48.8838 33.6322 48.6958 33.8202 48.6958 34.0522Z" fill="#F0C814"/>
<path d="M47.8559 34.0522C47.8559 33.8202 47.6679 33.6322 47.4359 33.6322C47.3208 33.6322 47.2167 33.6787 47.1409 33.7536C47.0638 33.8297 47.0159 33.9354 47.0159 34.0522C47.0159 34.1691 47.0638 34.2748 47.1409 34.3508C47.2168 34.4257 47.3208 34.4722 47.4359 34.4722C47.6679 34.4722 47.8559 34.2842 47.8559 34.0522Z" fill="#F0C814"/>
<path d="M48.276 33.6322C48.5079 33.6322 48.696 33.4442 48.696 33.2122C48.696 33.0971 48.6495 32.993 48.5746 32.9172C48.4984 32.8401 48.3928 32.7922 48.276 32.7922C48.1591 32.7922 48.0534 32.8401 47.9774 32.9172C47.9024 32.9931 47.856 33.0971 47.856 33.2122C47.856 33.4442 48.044 33.6322 48.276 33.6322Z" fill="#F0C814"/>
<path d="M48.276 34.4722C48.044 34.4722 47.856 34.6602 47.856 34.8922C47.856 35.0073 47.9024 35.1114 47.9774 35.1872C48.0535 35.2643 48.1591 35.3122 48.276 35.3122C48.3928 35.3122 48.4985 35.2643 48.5746 35.1872C48.6495 35.1114 48.696 35.0073 48.696 34.8922C48.696 34.6602 48.5079 34.4722 48.276 34.4722Z" fill="#F0C814"/>
<path d="M35.9727 21.1892C36.0145 21.1474 36.045 21.0989 36.0656 21.0473C36.1255 20.8962 36.095 20.7175 35.9727 20.5952C35.8271 20.4496 35.6051 20.4408 35.4415 20.5535L34.8223 20.3986C34.8279 20.3766 34.8356 20.3556 34.8356 20.332C34.8356 20.1773 34.7103 20.052 34.5556 20.052C34.401 20.052 34.2756 20.1773 34.2756 20.332C34.2756 20.4867 34.401 20.612 34.5556 20.612C34.5793 20.612 34.6003 20.604 34.6222 20.5987L34.7771 21.2178C34.6644 21.3815 34.6732 21.6036 34.8188 21.7491C34.9008 21.8311 35.0082 21.8722 35.1156 21.8722C35.1698 21.8722 35.2239 21.8615 35.2748 21.8407C35.3249 21.8202 35.3719 21.7899 35.4126 21.7493L35.9727 21.1892Z" fill="#F7B518"/>
<path fill-rule="evenodd" clip-rule="evenodd" d="M47.1482 35.7158C47.1345 35.7821 47.0992 35.8442 47.04 35.887C46.8779 36.0043 46.6966 36.1138 46.5016 36.2162C46.4846 36.2252 46.4678 36.2339 46.4506 36.2428C46.2241 36.359 45.9782 36.4651 45.715 36.5604C44.9199 36.8482 43.9724 37.0363 42.9555 37.1035V37.7697C42.8729 37.7216 42.778 37.6921 42.6755 37.6921C42.5731 37.6921 42.4782 37.7217 42.3955 37.7697V37.128C42.3868 37.1282 42.378 37.1284 42.3693 37.1286C42.2849 37.1303 42.2005 37.132 42.1155 37.132C42.0217 37.132 41.9286 37.13 41.8355 37.128V39.1697C41.7528 39.1216 41.658 39.0921 41.5555 39.0921C41.4531 39.0921 41.3582 39.1217 41.2755 39.1697V37.1035C40.2588 37.0363 39.3114 36.8482 38.5162 36.5604C38.253 36.4652 38.0069 36.3591 37.7805 36.2429C37.7633 36.234 37.7464 36.2253 37.7295 36.2163C37.5346 36.1136 37.353 36.0041 37.1907 35.8865C37.1319 35.8439 37.0965 35.7819 37.0829 35.7158C37.0674 35.6414 37.0801 35.5618 37.1281 35.4955C37.2172 35.3734 37.3862 35.3451 37.5107 35.4293C37.512 35.4302 37.5133 35.4306 37.5147 35.4311C37.5162 35.4316 37.5178 35.4321 37.5192 35.4332C37.7003 35.5643 37.9091 35.6862 38.141 35.7977C38.962 36.1926 40.0734 36.456 41.2755 36.5411V32.6082C40.0535 34.2771 38.8634 35.1739 38.3333 35.5233C38.518 35.2263 38.6481 34.8931 38.7108 34.536C39.3888 33.974 40.3473 33.0312 41.2755 31.6141V29.7138C41.267 29.6951 41.2585 29.6766 41.2499 29.658C41.2385 29.6334 41.2271 29.6088 41.2158 29.5835L41.7533 29.0459L40.9613 28.2539L40.7977 28.0903C40.6883 27.9809 40.6883 27.8037 40.7977 27.6943C40.8682 27.6239 40.966 27.6039 41.0566 27.6242C41.1066 27.6355 41.1549 27.6555 41.1937 27.6943L41.8358 28.3364V28.1723V27.0523C41.8358 26.9871 41.8616 26.9299 41.8989 26.8823C41.9502 26.8169 42.0262 26.7723 42.1158 26.7723C42.2052 26.7723 42.2813 26.8169 42.3326 26.8823C42.3699 26.9299 42.3958 26.9871 42.3958 27.0523V27.3793V28.1723V28.3364L42.8742 27.858L43.0378 27.6943C43.0768 27.6555 43.125 27.6355 43.1749 27.6242C43.2655 27.6038 43.3634 27.6239 43.4338 27.6943C43.5432 27.8037 43.5432 27.9809 43.4338 28.0903L43.2702 28.2539L42.4782 29.0459L43.0157 29.5835C43.0043 29.6091 42.9927 29.6342 42.981 29.6593C42.9727 29.6774 42.9643 29.6955 42.956 29.7138V31.6164C43.8852 33.0363 44.8435 33.978 45.5211 34.5387C45.5839 34.8948 45.7141 35.2271 45.8982 35.5235C45.3681 35.1741 44.1779 34.2772 42.956 32.6084V36.5414C44.1581 36.4562 45.2695 36.1928 46.0904 35.7978C46.3221 35.6865 46.5308 35.5646 46.7118 35.4336C46.7133 35.4325 46.7148 35.432 46.7164 35.4314C46.7179 35.4309 46.7194 35.4304 46.7208 35.4294C46.8454 35.3456 47.014 35.3738 47.1027 35.4959C47.1506 35.562 47.1634 35.6415 47.1482 35.7158ZM41.8358 36.5681C41.9289 36.5702 42.0222 36.5722 42.1158 36.5722C42.2096 36.5722 42.3029 36.5704 42.3958 36.5681V31.7894C42.302 31.642 42.2087 31.4888 42.1158 31.3316C42.023 31.4887 41.9297 31.642 41.8358 31.7894V36.5681Z" fill="#FF4B55"/>
<path d="M42.1159 20.55C43.6623 20.55 44.9159 20.8147 44.9159 21.1412C44.9159 20.5919 44.9159 20.056 44.9159 19.9723C44.9159 19.8439 44.7974 19.7229 44.5902 19.6168L44.6544 19.4885C44.7559 19.4815 44.8404 19.4202 44.8839 19.3345C44.9027 19.2973 44.9162 19.2571 44.9162 19.2122C44.9162 19.1584 44.897 19.111 44.8705 19.0683C44.8212 18.9885 44.737 18.9322 44.6362 18.9322C44.4815 18.9322 44.3562 19.0576 44.3562 19.2122C44.3562 19.2682 44.3768 19.3175 44.4052 19.3612L44.3314 19.5085C44.1201 19.4343 43.8598 19.3712 43.5629 19.3223L43.5944 19.1963C43.7101 19.1619 43.7962 19.0589 43.7962 18.9321C43.7962 18.7775 43.6708 18.6521 43.5162 18.6521C43.3615 18.6521 43.2362 18.7775 43.2362 18.9321C43.2362 19.0111 43.2693 19.0816 43.3218 19.1326L43.2844 19.2821C43.1283 19.2626 42.9648 19.2471 42.7951 19.2355C42.8077 19.1829 42.8162 19.1286 42.8162 19.0721C42.8162 18.6856 42.5027 18.3721 42.1162 18.3721C41.7296 18.3721 41.4162 18.6856 41.4162 19.0721C41.4162 19.1288 41.4246 19.1829 41.4373 19.2355C41.2673 19.247 41.1038 19.2626 40.9479 19.2821L40.9105 19.1326C40.963 19.0816 40.9962 19.0111 40.9962 18.9321C40.9962 18.7775 40.8708 18.6521 40.7162 18.6521C40.5615 18.6521 40.4362 18.7775 40.4362 18.9321C40.4362 19.059 40.5222 19.1619 40.638 19.1963L40.6695 19.3223C40.3726 19.3711 40.1122 19.4342 39.9009 19.5085L39.8272 19.3612C39.8555 19.3174 39.8762 19.2682 39.8762 19.2122C39.8762 19.0576 39.7508 18.9322 39.5962 18.9322C39.4954 18.9322 39.411 18.9884 39.3618 19.0683C39.3354 19.1111 39.3162 19.1584 39.3162 19.2122C39.3162 19.257 39.3294 19.2973 39.3483 19.3345C39.3917 19.4202 39.4763 19.4815 39.5778 19.4885L39.642 19.6168C39.4347 19.7229 39.3163 19.8437 39.3163 19.9723C39.3163 20.0561 39.3163 20.5919 39.3163 21.1412C39.3159 20.8147 40.5696 20.55 42.1159 20.55Z" fill="#E6B432"/>
<path d="M39.3159 21.1722L39.3194 21.1708C39.3185 21.1614 39.3159 21.1487 39.3159 21.1412C39.3159 21.1517 39.3159 21.1618 39.3159 21.1722Z" fill="#E6B432"/>
<path d="M44.9158 21.1722C44.9158 21.1618 44.9158 21.1516 44.9158 21.1411C44.9158 21.1487 44.9132 21.1614 44.9123 21.1707L44.9158 21.1722Z" fill="#E6B432"/>
<path d="M39.8757 21.7322C39.8757 21.7882 39.855 21.8374 39.8267 21.8812L39.9328 22.0935C40.118 22.0016 40.3711 21.9227 40.6738 21.8623L40.6374 21.7165C40.5216 21.6821 40.4356 21.5791 40.4356 21.4523C40.4356 21.2977 40.5609 21.1723 40.7156 21.1723C40.8702 21.1723 40.9956 21.2977 40.9956 21.4523C40.9956 21.5313 40.9624 21.6018 40.9099 21.6528L40.9504 21.8142C41.2205 21.7739 41.5189 21.747 41.8357 21.737V21.4834C41.7504 21.4065 41.6957 21.2963 41.6957 21.1723C41.6957 20.9403 41.8837 20.7523 42.1157 20.7523C42.3477 20.7523 42.5357 20.9403 42.5357 21.1723C42.5357 21.2962 42.481 21.4065 42.3957 21.4834V21.737C42.7123 21.7471 43.0108 21.774 43.281 21.8142L43.3214 21.6528C43.2689 21.6018 43.2358 21.5313 43.2358 21.4523C43.2358 21.2977 43.3611 21.1723 43.5158 21.1723C43.6704 21.1723 43.7958 21.2977 43.7958 21.4523C43.7958 21.5792 43.7097 21.6821 43.594 21.7165L43.5576 21.8623C43.8602 21.9227 44.1134 22.0018 44.2986 22.0935L44.4047 21.8812C44.3763 21.8373 44.3557 21.7882 44.3557 21.7322C44.3557 21.5775 44.481 21.4522 44.6357 21.4522C44.7026 21.4522 44.7617 21.479 44.8098 21.5183C44.8721 21.3653 44.9053 21.2437 44.9122 21.1709C44.9131 21.1615 44.9157 21.1488 44.9157 21.1413C44.9157 20.8148 43.662 20.5501 42.1157 20.5501C40.5693 20.5501 39.3157 20.8148 39.3157 21.1413C39.3157 21.1489 39.3183 21.1616 39.3192 21.1709C39.326 21.2437 39.3591 21.3653 39.4214 21.5183C39.4696 21.479 39.5286 21.4522 39.5956 21.4522C39.7503 21.4522 39.8757 21.5777 39.8757 21.7322Z" fill="#EBEBEB"/>
<path d="M39.3157 21.7322C39.3157 21.8803 39.4316 21.9985 39.5772 22.0085L39.698 22.2501C39.6325 22.3143 39.5956 22.3819 39.5956 22.4521C39.5956 22.5328 39.6442 22.6104 39.7301 22.6829L40.1556 23.4122C40.1556 23.1029 41.0331 22.8522 42.1156 22.8522C43.198 22.8522 44.0756 23.1029 44.0756 23.4122L44.501 22.6829C44.587 22.6104 44.6356 22.5331 44.6356 22.4521C44.6356 22.3819 44.5987 22.3143 44.5331 22.2501L44.6539 22.0085C44.7995 21.9984 44.9156 21.8803 44.9156 21.7322C44.9156 21.6446 44.8728 21.5696 44.8097 21.5183C44.7616 21.479 44.7025 21.4522 44.6356 21.4522C44.4809 21.4522 44.3556 21.5776 44.3556 21.7322C44.3556 21.7882 44.3762 21.8374 44.4046 21.8812L44.2985 22.0935C44.1132 22.0016 43.8601 21.9227 43.5575 21.8623L43.5939 21.7165C43.7096 21.6821 43.7957 21.5791 43.7957 21.4523C43.7957 21.2977 43.6703 21.1723 43.5157 21.1723C43.361 21.1723 43.2357 21.2977 43.2357 21.4523C43.2357 21.5313 43.2688 21.6018 43.3213 21.6528L43.2808 21.8142C43.0107 21.7739 42.7123 21.747 42.3956 21.737V21.4834C42.4809 21.4065 42.5356 21.2964 42.5356 21.1723C42.5356 20.9403 42.3475 20.7523 42.1156 20.7523C41.8836 20.7523 41.6956 20.9403 41.6956 21.1723C41.6956 21.2962 41.7503 21.4065 41.8356 21.4834V21.737C41.5189 21.7471 41.2204 21.774 40.9503 21.8142L40.9098 21.6528C40.9623 21.6018 40.9955 21.5313 40.9955 21.4523C40.9955 21.2977 40.8701 21.1723 40.7155 21.1723C40.5608 21.1723 40.4355 21.2977 40.4355 21.4523C40.4355 21.5792 40.5215 21.6821 40.6373 21.7165L40.6737 21.8623C40.371 21.9227 40.1178 22.0018 39.9327 22.0935L39.8266 21.8812C39.8549 21.8373 39.8756 21.7882 39.8756 21.7322C39.8756 21.5776 39.7502 21.4522 39.5956 21.4522C39.5286 21.4522 39.4696 21.479 39.4214 21.5183C39.3584 21.5696 39.3157 21.6446 39.3157 21.7322Z" fill="#E6B432"/>
<ellipse cx="42.116" cy="23.4127" rx="1.96" ry="0.56" fill="#EBEBEB"/>
<path d="M44.8486 18.6413L44.3556 17.5322C44.3556 17.4622 44.3019 17.3955 44.208 17.3337L44.606 16.5376C44.6751 16.3992 44.6191 16.231 44.4808 16.1619C44.3421 16.0932 44.1742 16.1491 44.1051 16.2871L43.8888 16.7197L43.6824 17.1325C43.5636 17.1034 43.4312 17.0779 43.289 17.0559L43.3138 16.9565C43.4296 16.9221 43.5156 16.8191 43.5156 16.6923C43.5156 16.5377 43.3903 16.4123 43.2356 16.4123C43.081 16.4123 42.9556 16.5377 42.9556 16.6923C42.9556 16.7713 42.9888 16.8419 43.0413 16.8928L43.0097 17.019C42.7357 16.9891 42.4336 16.9723 42.1156 16.9723C41.7976 16.9723 41.4955 16.9891 41.2216 17.019L41.19 16.8928C41.2425 16.8419 41.2756 16.7713 41.2756 16.6923C41.2756 16.5377 41.1503 16.4123 40.9956 16.4123C40.841 16.4123 40.7156 16.5377 40.7156 16.6923C40.7156 16.8192 40.8017 16.9221 40.9174 16.9565L40.9423 17.0559C40.8 17.0779 40.6676 17.1034 40.5487 17.1325L40.3423 16.7197L40.1261 16.2871C40.0569 16.1491 39.8892 16.0933 39.7504 16.1619C39.612 16.231 39.5559 16.3992 39.6252 16.5376L40.0232 17.3337C39.9293 17.3955 39.8755 17.4622 39.8755 17.5322L39.3826 18.6413C39.6591 18.3274 40.7767 18.0922 42.1155 18.0922C43.4545 18.0922 44.5721 18.3273 44.8486 18.6413Z" fill="#E6B432"/>
<ellipse cx="42.1158" cy="16.5527" rx="0.420001" ry="0.420001" fill="#E6B432"/>
</g>
</svg>
