<svg width="56" height="56" viewBox="0 0 56 56" fill="none" xmlns="http://www.w3.org/2000/svg">
<rect y="8" width="56" height="40" rx="4" fill="white"/>
<mask id="mask0_17_2406" style="mask-type:alpha" maskUnits="userSpaceOnUse" x="0" y="8" width="56" height="40">
<rect y="8" width="56" height="40" rx="4" fill="white"/>
</mask>
<g mask="url(#mask0_17_2406)">
<path fill-rule="evenodd" clip-rule="evenodd" d="M0 34.6667H56V21.3333H0V34.6667Z" fill="#063191"/>
<path fill-rule="evenodd" clip-rule="evenodd" d="M0 48H56V34.6667H0V48Z" fill="#E2213B"/>
<path fill-rule="evenodd" clip-rule="evenodd" d="M29.3334 25.3333C29.3334 26.0697 28.7365 26.6667 28.0001 26.6667C27.2637 26.6667 26.6667 26.0697 26.6667 25.3333C26.6667 24.597 27.2637 24 28.0001 24C28.7365 24 29.3334 24.597 29.3334 25.3333ZM24.0001 26.6667C24.0001 27.403 23.4031 28 22.6667 28C21.9304 28 21.3334 27.403 21.3334 26.6667C21.3334 25.9303 21.9304 25.3333 22.6667 25.3333C23.4031 25.3333 24.0001 25.9303 24.0001 26.6667ZM33.3334 28C34.0698 28 34.6667 27.403 34.6667 26.6667C34.6667 25.9303 34.0698 25.3333 33.3334 25.3333C32.597 25.3333 32.0001 25.9303 32.0001 26.6667C32.0001 27.403 32.597 28 33.3334 28ZM21.3334 30.6667C21.3334 31.403 20.7365 32 20.0001 32C19.2637 32 18.6667 31.403 18.6667 30.6667C18.6667 29.9303 19.2637 29.3333 20.0001 29.3333C20.7365 29.3333 21.3334 29.9303 21.3334 30.6667ZM36.0001 32C36.7365 32 37.3334 31.403 37.3334 30.6667C37.3334 29.9303 36.7365 29.3333 36.0001 29.3333C35.2637 29.3333 34.6667 29.9303 34.6667 30.6667C34.6667 31.403 35.2637 32 36.0001 32Z" fill="white"/>
<path fill-rule="evenodd" clip-rule="evenodd" d="M0 21.3333H56V8H0V21.3333Z" fill="#FFD044"/>
</g>
</svg>
